SplineFontDB: 3.2
FontName: TDATextCondensed
FullName: TDAText Condensed
FamilyName: TDAText Condensed
Weight: Regular
Copyright: Copyright (c) 2024-2025 Dmitry Tretyakov\n\nBased on Philips SAA52XX/SAA55XX/TDA93XX IC character set:\nCopyright (c) 1985-2001 NXP Semiconductors N.V.
Version: 0.1.4.20251022-1400
ItalicAngle: 0
UnderlinePosition: -100
UnderlineWidth: 50
Ascent: 800
Descent: 200
InvalidEm: 0
LayerCount: 2
Layer: 0 1 "+BBcEMAQ0BD0EOAQ5 +BD8EOwQwBD0A" 1
Layer: 1 1 "+BB8ENQRABDUENAQ9BDgEOQAA +BD8EOwQwBD0A" 0
XUID: [1021 189 -1959298516 7444281]
StyleMap: 0x0000
FSType: 0
OS2Version: 4
OS2_WeightWidthSlopeOnly: 0
OS2_UseTypoMetrics: 1
CreationTime: 1720191932
ModificationTime: 1761134698
PfmFamily: 17
TTFWeight: 400
TTFWidth: 5
LineGap: 90
VLineGap: 0
Panose: 2 0 5 3 0 0 0 0 0 0
OS2TypoAscent: 800
OS2TypoAOffset: 0
OS2TypoDescent: -200
OS2TypoDOffset: 0
OS2TypoLinegap: 90
OS2WinAscent: 800
OS2WinAOffset: 0
OS2WinDescent: 200
OS2WinDOffset: 0
HheadAscent: 800
HheadAOffset: 0
HheadDescent: -200
HheadDOffset: 0
OS2SubXSize: 650
OS2SubYSize: 700
OS2SubXOff: 0
OS2SubYOff: 140
OS2SupXSize: 650
OS2SupYSize: 700
OS2SupXOff: 0
OS2SupYOff: 480
OS2StrikeYSize: 49
OS2StrikeYPos: 258
OS2CapHeight: 700
OS2XHeight: 500
OS2Vendor: 'PfEd'
OS2CodePages: 00000004.c2960000
OS2UnicodeRanges: 8000028f.1200f8ea.00000020.00000000
MarkAttachClasses: 1
DEI: 91125
ShortTable: maxp 16
  1
  0
  604
  240
  60
  0
  0
  2
  0
  1
  1
  0
  64
  0
  0
  0
EndShort

StartChar: exclam
Encoding: 33 33 4
Width: 300
GlyphClass: 2
Flags: W
LayerCount: 2
Back
Fore
SplineSet
125 700 m 1,0,1
 125 700 125 700 175 700 c 1,2,3
 175 700 175 700 175 200 c 1,4,5
 175 200 175 200 125 200 c 1,6,7
 125 200 125 200 125 700 c 1,0,1
175 0 m 1,8,9
 175 0 175 0 125 0 c 1,10,11
 125 0 125 0 125 100 c 1,12,13
 125 100 125 100 175 100 c 1,14,15
 175 100 175 100 175 0 c 1,8,9
EndSplineSet
Validated: 1
EndChar

StartChar: quotedbl
Encoding: 34 34 5
Width: 300
GlyphClass: 2
Flags: W
LayerCount: 2
Back
Fore
SplineSet
175 500 m 1,0,1
 175 500 175 500 175 700 c 1,2,3
 175 700 175 700 225 700 c 1,4,5
 225 700 225 700 225 500 c 1,6,7
 225 500 225 500 175 500 c 1,0,1
75 500 m 1,8,9
 75 500 75 500 75 700 c 1,10,11
 75 700 75 700 125 700 c 1,12,13
 125 700 125 700 125 500 c 1,14,15
 125 500 125 500 75 500 c 1,8,9
EndSplineSet
Validated: 1
EndChar

StartChar: numbersign
Encoding: 35 35 6
Width: 300
GlyphClass: 2
Flags: W
LayerCount: 2
Back
Fore
SplineSet
125 300 m 1,0,1
 125 300 125 300 175 300 c 1,2,3
 175 300 175 300 175 400 c 1,4,5
 175 400 175 400 125 400 c 1,6,7
 125 400 125 400 125 300 c 1,0,1
75 700 m 1,8,9
 75 700 75 700 125 700 c 1,10,11
 125 700 125 700 125 500 c 1,12,13
 125 500 125 500 175 500 c 1,14,15
 175 500 175 500 175 700 c 1,16,17
 175 700 175 700 225 700 c 1,18,19
 225 700 225 700 225 500 c 1,20,21
 225 500 225 500 275 500 c 1,22,23
 275 500 275 500 275 400 c 1,24,25
 275 400 275 400 225 400 c 1,26,27
 225 400 225 400 225 300 c 1,28,29
 225 300 225 300 275 300 c 1,30,31
 275 300 275 300 275 200 c 1,32,33
 275 200 275 200 225 200 c 1,34,35
 225 200 225 200 225 0 c 1,36,37
 225 0 225 0 175 0 c 1,38,39
 175 0 175 0 175 200 c 1,40,41
 175 200 175 200 125 200 c 1,42,43
 125 200 125 200 125 0 c 1,44,45
 125 0 125 0 75 0 c 1,46,47
 75 0 75 0 75 200 c 1,48,49
 75 200 75 200 25 200 c 1,50,51
 25 200 25 200 25 300 c 1,52,53
 25 300 25 300 75 300 c 1,54,55
 75 300 75 300 75 400 c 1,56,57
 75 400 75 400 25 400 c 1,58,59
 25 400 25 400 25 500 c 1,60,61
 25 500 25 500 75 500 c 1,62,63
 75 500 75 500 75 700 c 1,8,9
EndSplineSet
Validated: 1
EndChar

StartChar: dollar
Encoding: 36 36 7
Width: 300
GlyphClass: 2
Flags: W
LayerCount: 2
Back
Fore
SplineSet
225 100 m 1,0,1
 225 100 225 100 225 300 c 1,2,3
 225 300 225 300 175 300 c 1,4,5
 175 300 175 300 175 100 c 1,6,7
 175 100 175 100 225 100 c 1,0,1
125 600 m 1,8,9
 125 600 125 600 75 600 c 1,10,11
 75 600 75 600 75 400 c 1,12,13
 75 400 75 400 125 400 c 1,14,15
 125 400 125 400 125 600 c 1,8,9
175 800 m 1,16,17
 175 800 175 800 175 700 c 1,18,19
 175 700 175 700 250 700 c 1,20,21
 250 700 250 700 250 600 c 1,22,23
 250 600 250 600 275 600 c 1,24,25
 275 600 275 600 275 500 c 1,26,27
 275 500 275 500 225 500 c 1,28,29
 225 500 225 500 225 600 c 1,30,31
 225 600 225 600 175 600 c 1,32,33
 175 600 175 600 175 400 c 1,34,35
 175 400 175 400 250 400 c 1,36,37
 250 400 250 400 250 300 c 1,38,39
 250 300 250 300 275 300 c 1,40,41
 275 300 275 300 275 100 c 1,42,43
 275 100 275 100 250 100 c 1,44,45
 250 100 250 100 250 0 c 1,46,47
 250 0 250 0 175 0 c 1,48,49
 175 0 175 0 175 -100 c 1,50,51
 175 -100 175 -100 125 -100 c 1,52,53
 125 -100 125 -100 125 0 c 1,54,55
 125 0 125 0 50 0 c 1,56,57
 50 0 50 0 50 100 c 1,58,59
 50 100 50 100 25 100 c 1,60,61
 25 100 25 100 25 200 c 1,62,63
 25 200 25 200 75 200 c 1,64,65
 75 200 75 200 75 100 c 1,66,67
 75 100 75 100 125 100 c 1,68,69
 125 100 125 100 125 300 c 1,70,71
 125 300 125 300 50 300 c 1,72,73
 50 300 50 300 50 400 c 1,74,75
 50 400 50 400 25 400 c 1,76,77
 25 400 25 400 25 600 c 1,78,79
 25 600 25 600 50 600 c 1,80,81
 50 600 50 600 50 700 c 1,82,83
 50 700 50 700 125 700 c 1,84,85
 125 700 125 700 125 800 c 1,86,87
 125 800 125 800 175 800 c 1,16,17
EndSplineSet
Validated: 1
EndChar

StartChar: percent
Encoding: 37 37 8
Width: 300
GlyphClass: 2
Flags: W
LayerCount: 2
Back
Fore
SplineSet
200 700 m 1,0,1
 200 700 200 700 250 700 c 1,2,3
 250 700 250 700 250 600 c 1,4,5
 250 600 250 600 225 600 c 1,6,7
 225 600 225 600 225 500 c 1,8,9
 225 500 225 500 200 500 c 1,10,11
 200 500 200 500 200 400 c 1,12,13
 200 400 200 400 175 400 c 1,14,15
 175 400 175 400 175 300 c 1,16,17
 175 300 175 300 150 300 c 1,18,19
 150 300 150 300 150 200 c 1,20,21
 150 200 150 200 125 200 c 1,22,23
 125 200 125 200 125 100 c 1,24,25
 125 100 125 100 100 100 c 1,26,27
 100 100 100 100 100 0 c 1,28,29
 100 0 100 0 50 0 c 1,30,31
 50 0 50 0 50 100 c 1,32,33
 50 100 50 100 75 100 c 1,34,35
 75 100 75 100 75 200 c 1,36,37
 75 200 75 200 100 200 c 1,38,39
 100 200 100 200 100 300 c 1,40,41
 100 300 100 300 125 300 c 1,42,43
 125 300 125 300 125 400 c 1,44,45
 125 400 125 400 150 400 c 1,46,47
 150 400 150 400 150 500 c 1,48,49
 150 500 150 500 175 500 c 1,50,51
 175 500 175 500 175 600 c 1,52,53
 175 600 175 600 200 600 c 1,54,55
 200 600 200 600 200 700 c 1,0,1
225 100 m 1,56,57
 225 100 225 100 250 100 c 1,58,59
 250 100 250 100 250 200 c 1,60,61
 250 200 250 200 225 200 c 1,62,63
 225 200 225 200 225 100 c 1,56,57
200 300 m 1,64,65
 200 300 200 300 275 300 c 1,66,67
 275 300 275 300 275 200 c 1,68,69
 275 200 275 200 300 200 c 1,70,71
 300 200 300 200 300 100 c 1,72,73
 300 100 300 100 275 100 c 1,74,75
 275 100 275 100 275 0 c 1,76,77
 275 0 275 0 200 0 c 1,78,79
 200 0 200 0 200 100 c 1,80,81
 200 100 200 100 175 100 c 1,82,83
 175 100 175 100 175 200 c 1,84,85
 175 200 175 200 200 200 c 1,86,87
 200 200 200 200 200 300 c 1,64,65
50 600 m 1,88,89
 50 600 50 600 50 500 c 1,90,91
 50 500 50 500 75 500 c 1,92,93
 75 500 75 500 75 600 c 1,94,95
 75 600 75 600 50 600 c 1,88,89
0 600 m 1,96,97
 0 600 0 600 25 600 c 1,98,99
 25 600 25 600 25 700 c 1,100,101
 25 700 25 700 100 700 c 1,102,103
 100 700 100 700 100 600 c 1,104,105
 100 600 100 600 125 600 c 1,106,107
 125 600 125 600 125 500 c 1,108,109
 125 500 125 500 100 500 c 1,110,111
 100 500 100 500 100 400 c 1,112,113
 100 400 100 400 25 400 c 1,114,115
 25 400 25 400 25 500 c 1,116,117
 25 500 25 500 0 500 c 1,118,119
 0 500 0 500 0 600 c 1,96,97
EndSplineSet
Validated: 1
EndChar

StartChar: ampersand
Encoding: 38 38 9
Width: 300
GlyphClass: 2
Flags: W
LayerCount: 2
Back
Fore
SplineSet
112 300 m 1,0,1
 112 300 112 300 112 200 c 1,2,3
 112 200 112 200 88 200 c 1,4,5
 88 200 88 200 88 100 c 1,6,7
 88 100 88 100 188 100 c 1,8,9
 188 100 188 100 188 200 c 1,10,11
 188 200 188 200 162 200 c 1,12,13
 162 200 162 200 162 300 c 1,14,15
 162 300 162 300 112 300 c 1,0,1
112 600 m 1,16,17
 112 600 112 600 112 400 c 1,18,19
 112 400 112 400 162 400 c 1,20,21
 162 400 162 400 162 600 c 1,22,23
 162 600 162 600 112 600 c 1,16,17
88 700 m 1,24,25
 88 700 88 700 188 700 c 1,26,27
 188 700 188 700 188 600 c 1,28,29
 188 600 188 600 212 600 c 1,30,31
 212 600 212 600 212 400 c 1,32,33
 212 400 212 400 188 400 c 1,34,35
 188 400 188 400 188 300 c 1,36,37
 188 300 188 300 212 300 c 1,38,39
 212 300 212 300 212 200 c 1,40,41
 212 200 212 200 238 200 c 1,42,43
 238 200 238 200 238 300 c 1,44,45
 238 300 238 300 288 300 c 1,46,47
 288 300 288 300 288 200 c 1,48,49
 288 200 288 200 262 200 c 1,50,51
 262 200 262 200 262 100 c 1,52,53
 262 100 262 100 312 100 c 1,54,55
 312 100 312 100 312 0 c 1,56,57
 312 0 312 0 238 0 c 1,58,59
 238 0 238 0 238 100 c 1,60,61
 238 100 238 100 212 100 c 1,62,63
 212 100 212 100 212 0 c 1,64,65
 212 0 212 0 62 0 c 1,66,67
 62 0 62 0 62 100 c 1,68,69
 62 100 62 100 38 100 c 1,70,71
 38 100 38 100 38 200 c 1,72,73
 38 200 38 200 62 200 c 1,74,75
 62 200 62 200 62 300 c 1,76,77
 62 300 62 300 88 300 c 1,78,79
 88 300 88 300 88 400 c 1,80,81
 88 400 88 400 62 400 c 1,82,83
 62 400 62 400 62 600 c 1,84,85
 62 600 62 600 88 600 c 1,86,87
 88 600 88 600 88 700 c 1,24,25
EndSplineSet
Validated: 1
EndChar

StartChar: quotesingle
Encoding: 39 39 10
Width: 300
GlyphClass: 2
Flags: W
LayerCount: 2
Back
Fore
SplineSet
125 700 m 1,0,1
 125 700 125 700 175 700 c 1,2,3
 175 700 175 700 175 500 c 1,4,5
 175 500 175 500 125 500 c 1,6,7
 125 500 125 500 125 700 c 1,0,1
EndSplineSet
Validated: 1
EndChar

StartChar: parenleft
Encoding: 40 40 11
Width: 300
GlyphClass: 2
Flags: W
LayerCount: 2
Back
Fore
SplineSet
112 600 m 1,0,1
 112 600 112 600 112 700 c 1,2,3
 112 700 112 700 188 700 c 1,4,5
 188 700 188 700 188 600 c 1,6,7
 188 600 188 600 138 600 c 1,8,9
 138 600 138 600 138 500 c 1,10,11
 138 500 138 500 112 500 c 1,12,13
 112 500 112 500 112 200 c 1,14,15
 112 200 112 200 138 200 c 1,16,17
 138 200 138 200 138 100 c 1,18,19
 138 100 138 100 188 100 c 1,20,21
 188 100 188 100 188 0 c 1,22,23
 188 0 188 0 112 0 c 1,24,25
 112 0 112 0 112 100 c 1,26,27
 112 100 112 100 88 100 c 1,28,29
 88 100 88 100 88 200 c 1,30,31
 88 200 88 200 62 200 c 1,32,33
 62 200 62 200 62 500 c 1,34,35
 62 500 62 500 88 500 c 1,36,37
 88 500 88 500 88 600 c 1,38,39
 88 600 88 600 112 600 c 1,0,1
EndSplineSet
Validated: 1
EndChar

StartChar: parenright
Encoding: 41 41 12
Width: 300
GlyphClass: 2
Flags: W
LayerCount: 2
Back
Fore
SplineSet
112 700 m 1,0,1
 112 700 112 700 188 700 c 1,2,3
 188 700 188 700 188 600 c 1,4,5
 188 600 188 600 212 600 c 1,6,7
 212 600 212 600 212 500 c 1,8,9
 212 500 212 500 238 500 c 1,10,11
 238 500 238 500 238 200 c 1,12,13
 238 200 238 200 212 200 c 1,14,15
 212 200 212 200 212 100 c 1,16,17
 212 100 212 100 188 100 c 1,18,19
 188 100 188 100 188 0 c 1,20,21
 188 0 188 0 112 0 c 1,22,23
 112 0 112 0 112 100 c 1,24,25
 112 100 112 100 162 100 c 1,26,27
 162 100 162 100 162 200 c 1,28,29
 162 200 162 200 188 200 c 1,30,31
 188 200 188 200 188 500 c 1,32,33
 188 500 188 500 162 500 c 1,34,35
 162 500 162 500 162 600 c 1,36,37
 162 600 162 600 112 600 c 1,38,39
 112 600 112 600 112 700 c 1,0,1
EndSplineSet
Validated: 1
EndChar

StartChar: asterisk
Encoding: 42 42 13
Width: 300
GlyphClass: 2
Flags: W
LayerCount: 2
Back
Fore
SplineSet
25 600 m 1,0,1
 25 600 25 600 75 600 c 1,2,3
 75 600 75 600 75 500 c 1,4,5
 75 500 75 500 100 500 c 1,6,7
 100 500 100 500 100 400 c 1,8,9
 100 400 100 400 125 400 c 1,10,11
 125 400 125 400 125 700 c 1,12,13
 125 700 125 700 175 700 c 1,14,15
 175 700 175 700 175 400 c 1,16,17
 175 400 175 400 200 400 c 1,18,19
 200 400 200 400 200 500 c 1,20,21
 200 500 200 500 225 500 c 1,22,23
 225 500 225 500 225 600 c 1,24,25
 225 600 225 600 275 600 c 1,26,27
 275 600 275 600 275 500 c 1,28,29
 275 500 275 500 250 500 c 1,30,31
 250 500 250 500 250 400 c 1,32,33
 250 400 250 400 225 400 c 1,34,35
 225 400 225 400 225 300 c 1,36,37
 225 300 225 300 250 300 c 1,38,39
 250 300 250 300 250 200 c 1,40,41
 250 200 250 200 275 200 c 1,42,43
 275 200 275 200 275 100 c 1,44,45
 275 100 275 100 225 100 c 1,46,47
 225 100 225 100 225 200 c 1,48,49
 225 200 225 200 200 200 c 1,50,51
 200 200 200 200 200 300 c 1,52,53
 200 300 200 300 175 300 c 1,54,55
 175 300 175 300 175 0 c 1,56,57
 175 0 175 0 125 0 c 1,58,59
 125 0 125 0 125 300 c 1,60,61
 125 300 125 300 100 300 c 1,62,63
 100 300 100 300 100 200 c 1,64,65
 100 200 100 200 75 200 c 1,66,67
 75 200 75 200 75 100 c 1,68,69
 75 100 75 100 25 100 c 1,70,71
 25 100 25 100 25 200 c 1,72,73
 25 200 25 200 50 200 c 1,74,75
 50 200 50 200 50 300 c 1,76,77
 50 300 50 300 75 300 c 1,78,79
 75 300 75 300 75 400 c 1,80,81
 75 400 75 400 50 400 c 1,82,83
 50 400 50 400 50 500 c 1,84,85
 50 500 50 500 25 500 c 1,86,87
 25 500 25 500 25 600 c 1,0,1
EndSplineSet
Validated: 1
EndChar

StartChar: plus
Encoding: 43 43 14
Width: 300
GlyphClass: 2
Flags: W
LayerCount: 2
Back
Fore
SplineSet
125 550 m 1,0,1
 125 550 125 550 175 550 c 1,2,3
 175 550 175 550 175 350 c 1,4,5
 175 350 175 350 250 350 c 1,6,7
 250 350 250 350 250 250 c 1,8,9
 250 250 250 250 175 250 c 1,10,11
 175 250 175 250 175 50 c 1,12,13
 175 50 175 50 125 50 c 1,14,15
 125 50 125 50 125 250 c 1,16,17
 125 250 125 250 50 250 c 1,18,19
 50 250 50 250 50 350 c 1,20,21
 50 350 50 350 125 350 c 1,22,23
 125 350 125 350 125 550 c 1,0,1
EndSplineSet
Validated: 1
EndChar

StartChar: comma
Encoding: 44 44 15
Width: 300
GlyphClass: 2
Flags: W
LayerCount: 2
Back
Fore
SplineSet
86 -100 m 1,0,1
 86 -100 86 -100 112 -100 c 1,2,3
 112 -100 112 -100 112 0 c 1,4,5
 112 0 112 0 86 0 c 1,6,7
 86 0 86 0 86 100 c 1,8,9
 86 100 86 100 162 100 c 1,10,11
 162 100 162 100 162 -100 c 1,12,13
 162 -100 162 -100 136 -100 c 1,14,15
 136 -100 136 -100 136 -200 c 1,16,17
 136 -200 136 -200 86 -200 c 1,18,19
 86 -200 86 -200 86 -100 c 1,0,1
EndSplineSet
Validated: 1
EndChar

StartChar: hyphen
Encoding: 45 45 16
Width: 300
GlyphClass: 2
Flags: W
LayerCount: 2
Back
Fore
SplineSet
50 250 m 1,0,1
 50 250 50 250 50 350 c 1,2,3
 50 350 50 350 250 350 c 1,4,5
 250 350 250 350 250 250 c 1,6,7
 250 250 250 250 50 250 c 1,0,1
EndSplineSet
Validated: 1
EndChar

StartChar: period
Encoding: 46 46 17
Width: 300
GlyphClass: 2
Flags: W
LayerCount: 2
Back
Fore
SplineSet
175 0 m 1,0,1
 175 0 175 0 125 0 c 1,2,3
 125 0 125 0 125 100 c 1,4,5
 125 100 125 100 175 100 c 1,6,7
 175 100 175 100 175 0 c 1,0,1
EndSplineSet
Validated: 1
EndChar

StartChar: slash
Encoding: 47 47 18
Width: 300
GlyphClass: 2
Flags: W
LayerCount: 2
Back
Fore
SplineSet
200 700 m 1,0,1
 200 700 200 700 250 700 c 1,2,3
 250 700 250 700 250 600 c 1,4,5
 250 600 250 600 225 600 c 1,6,7
 225 600 225 600 225 500 c 1,8,9
 225 500 225 500 200 500 c 1,10,11
 200 500 200 500 200 400 c 1,12,13
 200 400 200 400 175 400 c 1,14,15
 175 400 175 400 175 300 c 1,16,17
 175 300 175 300 150 300 c 1,18,19
 150 300 150 300 150 200 c 1,20,21
 150 200 150 200 125 200 c 1,22,23
 125 200 125 200 125 100 c 1,24,25
 125 100 125 100 100 100 c 1,26,27
 100 100 100 100 100 0 c 1,28,29
 100 0 100 0 50 0 c 1,30,31
 50 0 50 0 50 100 c 1,32,33
 50 100 50 100 75 100 c 1,34,35
 75 100 75 100 75 200 c 1,36,37
 75 200 75 200 100 200 c 1,38,39
 100 200 100 200 100 300 c 1,40,41
 100 300 100 300 125 300 c 1,42,43
 125 300 125 300 125 400 c 1,44,45
 125 400 125 400 150 400 c 1,46,47
 150 400 150 400 150 500 c 1,48,49
 150 500 150 500 175 500 c 1,50,51
 175 500 175 500 175 600 c 1,52,53
 175 600 175 600 200 600 c 1,54,55
 200 600 200 600 200 700 c 1,0,1
EndSplineSet
Validated: 1
EndChar

StartChar: zero
Encoding: 48 48 19
Width: 300
GlyphClass: 2
Flags: W
LayerCount: 2
Back
Fore
SplineSet
212 600 m 1,0,1
 212 600 212 600 138 600 c 1,2,3
 138 600 138 600 138 100 c 1,4,5
 138 100 138 100 212 100 c 1,6,7
 212 100 212 100 212 600 c 1,0,1
88 700 m 1,8,9
 88 700 88 700 262 700 c 1,10,11
 262 700 262 700 262 600 c 1,12,13
 262 600 262 600 288 600 c 1,14,15
 288 600 288 600 288 100 c 1,16,17
 288 100 288 100 262 100 c 1,18,19
 262 100 262 100 262 0 c 1,20,21
 262 0 262 0 88 0 c 1,22,23
 88 0 88 0 88 100 c 1,24,25
 88 100 88 100 62 100 c 1,26,27
 62 100 62 100 62 600 c 1,28,29
 62 600 62 600 88 600 c 1,30,31
 88 600 88 600 88 700 c 1,8,9
EndSplineSet
Validated: 1
EndChar

StartChar: one
Encoding: 49 49 20
Width: 300
GlyphClass: 2
Flags: W
LayerCount: 2
Back
Fore
SplineSet
112 500 m 1,0,1
 112 500 112 500 112 600 c 1,2,3
 112 600 112 600 162 600 c 1,4,5
 162 600 162 600 162 700 c 1,6,7
 162 700 162 700 238 700 c 1,8,9
 238 700 238 700 238 0 c 1,10,11
 238 0 238 0 162 0 c 1,12,13
 162 0 162 0 162 500 c 1,14,15
 162 500 162 500 112 500 c 1,0,1
EndSplineSet
Validated: 1
EndChar

StartChar: two
Encoding: 50 50 21
Width: 300
GlyphClass: 2
Flags: W
LayerCount: 2
Back
Fore
SplineSet
112 500 m 1,0,1
 112 500 112 500 62 500 c 1,2,3
 62 500 62 500 62 600 c 1,4,5
 62 600 62 600 88 600 c 1,6,7
 88 600 88 600 88 700 c 1,8,9
 88 700 88 700 262 700 c 1,10,11
 262 700 262 700 262 600 c 1,12,13
 262 600 262 600 288 600 c 1,14,15
 288 600 288 600 288 400 c 1,16,17
 288 400 288 400 262 400 c 1,18,19
 262 400 262 400 262 300 c 1,20,21
 262 300 262 300 238 300 c 1,22,23
 238 300 238 300 238 200 c 1,24,25
 238 200 238 200 188 200 c 1,26,27
 188 200 188 200 188 100 c 1,28,29
 188 100 188 100 288 100 c 1,30,31
 288 100 288 100 288 0 c 1,32,33
 288 0 288 0 62 0 c 1,34,35
 62 0 62 0 62 100 c 1,36,37
 62 100 62 100 88 100 c 1,38,39
 88 100 88 100 88 200 c 1,40,41
 88 200 88 200 138 200 c 1,42,43
 138 200 138 200 138 300 c 1,44,45
 138 300 138 300 188 300 c 1,46,47
 188 300 188 300 188 400 c 1,48,49
 188 400 188 400 212 400 c 1,50,51
 212 400 212 400 212 600 c 1,52,53
 212 600 212 600 112 600 c 1,54,55
 112 600 112 600 112 500 c 1,0,1
EndSplineSet
Validated: 1
EndChar

StartChar: three
Encoding: 51 51 22
Width: 300
GlyphClass: 2
Flags: W
LayerCount: 2
Back
Fore
SplineSet
62 700 m 1,0,1
 62 700 62 700 288 700 c 1,2,3
 288 700 288 700 288 600 c 1,4,5
 288 600 288 600 262 600 c 1,6,7
 262 600 262 600 262 500 c 1,8,9
 262 500 262 500 238 500 c 1,10,11
 238 500 238 500 238 400 c 1,12,13
 238 400 238 400 288 400 c 1,14,15
 288 400 288 400 288 100 c 1,16,17
 288 100 288 100 262 100 c 1,18,19
 262 100 262 100 262 0 c 1,20,21
 262 0 262 0 62 0 c 1,22,23
 62 0 62 0 62 100 c 1,24,25
 62 100 62 100 238 100 c 1,26,27
 238 100 238 100 238 300 c 1,28,29
 238 300 238 300 138 300 c 1,30,31
 138 300 138 300 138 400 c 1,32,33
 138 400 138 400 188 400 c 1,34,35
 188 400 188 400 188 500 c 1,36,37
 188 500 188 500 212 500 c 1,38,39
 212 500 212 500 212 600 c 1,40,41
 187 600 187 600 137 600.5 c 128,-1,42
 87 601 87 601 62 601 c 1,43,44
 62 601 62 601 62 700 c 1,0,1
EndSplineSet
Validated: 1
EndChar

StartChar: four
Encoding: 52 52 23
Width: 300
GlyphClass: 2
Flags: W
LayerCount: 2
Back
Fore
SplineSet
212 700 m 1,0,1
 212 700 212 700 288 700 c 1,2,3
 288 700 288 700 288 600 c 1,4,5
 288 600 288 600 262 600 c 1,6,7
 262 600 262 600 262 500 c 1,8,9
 262 500 262 500 212 500 c 1,10,11
 212 500 212 500 212 400 c 1,12,13
 212 400 212 400 162 400 c 1,14,15
 162 400 162 400 162 300 c 1,16,17
 162 300 162 300 138 300 c 1,18,19
 138 300 138 300 138 200 c 1,20,21
 138 200 138 200 212 200 c 1,22,23
 212 200 212 200 212 300 c 1,24,25
 212 300 212 300 288 300 c 1,26,27
 288 300 288 300 288 0 c 1,28,29
 288 0 288 0 212 0 c 1,30,31
 212 0 212 0 212 100 c 1,32,33
 212 100 212 100 62 100 c 1,34,35
 62 100 62 100 62 300 c 1,36,37
 62 300 62 300 88 300 c 1,38,39
 88 300 88 300 88 400 c 1,40,41
 88 400 88 400 138 400 c 1,42,43
 138 400 138 400 138 500 c 1,44,45
 138 500 138 500 162 500 c 1,46,47
 162 500 162 500 162 600 c 1,48,49
 162 600 162 600 212 600 c 1,50,51
 212 600 212 600 212 700 c 1,0,1
EndSplineSet
Validated: 1
EndChar

StartChar: five
Encoding: 53 53 24
Width: 300
GlyphClass: 2
Flags: W
LayerCount: 2
Back
Fore
SplineSet
262 700 m 1,0,1
 262 700 262 700 262 600 c 1,2,3
 262 600 262 600 112 600 c 1,4,5
 112 600 112 600 112 400 c 1,6,7
 112 400 112 400 262 400 c 1,8,9
 262 400 262 400 262 300 c 1,10,11
 262 300 262 300 288 300 c 1,12,13
 288 300 288 300 288 100 c 1,14,15
 288 100 288 100 262 100 c 1,16,17
 262 100 262 100 262 0 c 1,18,19
 262 0 262 0 88 0 c 1,20,21
 88 0 88 0 88 100 c 1,22,23
 88 100 88 100 62 100 c 1,24,25
 62 100 62 100 62 200 c 1,26,27
 62 200 62 200 112 200 c 1,28,29
 112 200 112 200 112 100 c 1,30,31
 112 100 112 100 212 100 c 1,32,33
 212 100 212 100 212 300 c 1,34,35
 212 300 212 300 62 300 c 1,36,37
 62 300 62 300 62 700 c 1,38,39
 62 700 62 700 262 700 c 1,0,1
EndSplineSet
Validated: 1
EndChar

StartChar: six
Encoding: 54 54 25
Width: 300
GlyphClass: 2
Flags: W
LayerCount: 2
Back
Fore
SplineSet
238 300 m 1,0,1
 238 300 238 300 137 300 c 1,2,3
 137 300 137 300 137 100 c 1,4,5
 137 100 137 100 238 100 c 1,6,7
 238 100 238 100 238 300 c 1,0,1
212 700 m 1,8,9
 212 700 212 700 212 600 c 1,10,11
 212 600 212 600 188 600 c 1,12,13
 188 600 188 600 188 500 c 1,14,15
 188 500 188 500 162 500 c 1,16,17
 162 500 162 500 162 400 c 1,18,19
 162 400 162 400 262 400 c 1,20,21
 262 400 262 400 262 300 c 1,22,23
 262 300 262 300 288 300 c 1,24,25
 288 300 288 300 288 100 c 1,26,27
 288 100 288 100 262 100 c 1,28,29
 262 100 262 100 262 0 c 1,30,31
 262 0 262 0 88 0 c 1,32,33
 88 0 88 0 88 100 c 1,34,35
 88 100 88 100 62 100 c 1,36,37
 62 100 62 100 62 400 c 1,38,39
 62 400 62 400 88 400 c 1,40,41
 88 400 88 400 88 500 c 1,42,43
 88 500 88 500 112 500 c 1,44,45
 112 500 112 500 112 600 c 1,46,47
 112 600 112 600 138 600 c 1,48,49
 138 600 138 600 138 700 c 1,50,51
 138 700 138 700 212 700 c 1,8,9
EndSplineSet
Validated: 1
EndChar

StartChar: seven
Encoding: 55 55 26
Width: 300
GlyphClass: 2
Flags: W
LayerCount: 2
Back
Fore
SplineSet
25 700 m 1,0,1
 25 700 25 700 275 700 c 1,2,3
 275 700 275 700 275 600 c 1,4,5
 275 600 275 600 250 600 c 1,6,7
 250 600 250 600 250 500 c 1,8,9
 250 500 250 500 225 500 c 1,10,11
 225 500 225 500 225 400 c 1,12,13
 225 400 225 400 200 400 c 1,14,15
 200 400 200 400 200 300 c 1,16,17
 200 300 200 300 175 300 c 1,18,19
 175 300 175 300 175 200 c 1,20,21
 175 200 175 200 150 200 c 1,22,23
 150 200 150 200 150 100 c 1,24,25
 150 100 150 100 125 100 c 1,26,27
 125 100 125 100 125 0 c 1,28,29
 125 0 125 0 50 0 c 1,30,31
 50 0 50 0 50 100 c 1,32,33
 50 100 50 100 75 100 c 1,34,35
 75 100 75 100 75 200 c 1,36,37
 75 200 75 200 100 200 c 1,38,39
 100 200 100 200 100 300 c 1,40,41
 100 300 100 300 125 300 c 1,42,43
 125 300 125 300 125 400 c 1,44,45
 125 400 125 400 150 400 c 1,46,47
 150 400 150 400 150 500 c 1,48,49
 150 500 150 500 175 500 c 1,50,51
 175 500 175 500 175 600 c 1,52,53
 175 600 175 600 25 600 c 1,54,55
 25 600 25 600 25 700 c 1,0,1
EndSplineSet
Validated: 1
EndChar

StartChar: eight
Encoding: 56 56 27
Width: 300
GlyphClass: 2
Flags: W
LayerCount: 2
Back
Fore
SplineSet
138 100 m 1,0,1
 138 100 138 100 212 100 c 1,2,3
 212 100 212 100 212 300 c 1,4,5
 212 300 212 300 138 300 c 1,6,7
 138 300 138 300 138 100 c 1,0,1
138 600 m 1,8,9
 138 600 138 600 138 400 c 1,10,11
 138 400 138 400 212 400 c 1,12,13
 212 400 212 400 212 600 c 1,14,15
 212 600 212 600 138 600 c 1,8,9
88 700 m 1,16,17
 88 700 88 700 262 700 c 1,18,19
 262 700 262 700 262 600 c 1,20,21
 262 600 262 600 288 600 c 1,22,23
 288 600 288 600 288 400 c 1,24,25
 288 400 288 400 238 400 c 1,26,27
 238 400 238 400 238 300 c 1,28,29
 238 300 238 300 288 300 c 1,30,31
 288 300 288 300 288 100 c 1,32,33
 288 100 288 100 262 100 c 1,34,35
 262 100 262 100 262 0 c 1,36,37
 262 0 262 0 88 0 c 1,38,39
 88 0 88 0 88 100 c 1,40,41
 88 100 88 100 62 100 c 1,42,43
 62 100 62 100 62 300 c 1,44,45
 62 300 62 300 112 300 c 1,46,47
 112 300 112 300 112 400 c 1,48,49
 112 400 112 400 62 400 c 1,50,51
 62 400 62 400 62 600 c 1,52,53
 62 600 62 600 88 600 c 1,54,55
 88 600 88 600 88 700 c 1,16,17
EndSplineSet
Validated: 1
EndChar

StartChar: nine
Encoding: 57 57 28
Width: 300
GlyphClass: 2
Flags: W
LayerCount: 2
Back
Fore
SplineSet
112 600 m 1,0,1
 112 600 112 600 112 400 c 1,2,3
 112 400 112 400 212 400 c 1,4,5
 212 400 212 400 212 600 c 1,6,7
 212 600 212 600 112 600 c 1,0,1
88 600 m 1,8,9
 88 600 88 600 88 700 c 1,10,11
 88 700 88 700 262 700 c 1,12,13
 262 700 262 700 262 600 c 1,14,15
 262 600 262 600 288 600 c 1,16,17
 288 600 288 600 288 300 c 1,18,19
 288 300 288 300 262 300 c 1,20,21
 262 300 262 300 262 200 c 1,22,23
 262 200 262 200 238 200 c 1,24,25
 238 200 238 200 238 100 c 1,26,27
 238 100 238 100 212 100 c 1,28,29
 212 100 212 100 212 0 c 1,30,31
 212 0 212 0 138 0 c 1,32,33
 138 0 138 0 138 100 c 1,34,35
 138 100 138 100 162 100 c 1,36,37
 162 100 162 100 162 200 c 1,38,39
 162 200 162 200 188 200 c 1,40,41
 188 200 188 200 188 300 c 1,42,43
 188 300 188 300 88 300 c 1,44,45
 88 300 88 300 88 400 c 1,46,47
 88 400 88 400 62 400 c 1,48,49
 62 400 62 400 62 600 c 1,50,51
 62 600 62 600 88 600 c 1,8,9
EndSplineSet
Validated: 1
EndChar

StartChar: colon
Encoding: 58 58 29
Width: 300
GlyphClass: 2
Flags: W
LayerCount: 2
Back
Fore
SplineSet
125 200 m 1,0,1
 125 200 125 200 175 200 c 1,2,3
 175 200 175 200 175 0 c 1,4,5
 175 0 175 0 125 0 c 1,6,7
 125 0 125 0 125 200 c 1,0,1
125 500 m 1,8,9
 125 500 125 500 174 500 c 1,10,11
 174 466 174 466 174.5 400 c 128,-1,12
 175 334 175 334 175 300 c 1,13,14
 175 300 175 300 125 300 c 1,15,16
 125 300 125 300 125 500 c 1,8,9
EndSplineSet
Validated: 1
EndChar

StartChar: semicolon
Encoding: 59 59 30
Width: 300
GlyphClass: 2
Flags: W
LayerCount: 2
Back
Fore
SplineSet
112 100 m 1,0,1
 112 100 112 100 162 100 c 1,2,3
 162 100 162 100 162 -100 c 1,4,5
 162 -100 162 -100 138 -100 c 1,6,7
 138 -100 138 -100 138 -200 c 1,8,9
 138 -200 138 -200 88 -200 c 1,10,11
 88 -200 88 -200 88 -100 c 1,12,13
 88 -100 88 -100 112 -100 c 1,14,15
 112 -100 112 -100 112 100 c 1,0,1
112 500 m 1,16,17
 112 500 112 500 162 500 c 1,18,19
 162 500 162 500 162 300 c 1,20,21
 162 300 162 300 112 300 c 1,22,23
 112 300 112 300 112 500 c 1,16,17
EndSplineSet
Validated: 1
EndChar

StartChar: less
Encoding: 60 60 31
Width: 300
GlyphClass: 2
Flags: W
LayerCount: 2
Back
Fore
SplineSet
212 700 m 1,0,1
 212 700 212 700 288 700 c 1,2,3
 288 700 288 700 288 600 c 1,4,5
 288 600 288 600 238 600 c 1,6,7
 238 600 238 600 238 500 c 1,8,9
 238 500 238 500 188 500 c 1,10,11
 188 500 188 500 188 400 c 1,12,13
 188 400 188 400 138 400 c 1,14,15
 138 400 138 400 138 300 c 1,16,17
 138 300 138 300 188 300 c 1,18,19
 188 300 188 300 188 200 c 1,20,21
 188 200 188 200 238 200 c 1,22,23
 238 200 238 200 238 100 c 1,24,25
 238 100 238 100 288 100 c 1,26,27
 288 100 288 100 288 0 c 1,28,29
 288 0 288 0 212 0 c 1,30,31
 212 0 212 0 212 100 c 1,32,33
 212 100 212 100 162 100 c 1,34,35
 162 100 162 100 162 200 c 1,36,37
 162 200 162 200 112 200 c 1,38,39
 112 200 112 200 112 300 c 1,40,41
 112 300 112 300 62 300 c 1,42,43
 62 300 62 300 62 400 c 1,44,45
 62 400 62 400 112 400 c 1,46,47
 112 400 112 400 112 500 c 1,48,49
 112 500 112 500 162 500 c 1,50,51
 162 500 162 500 162 600 c 1,52,53
 162 600 162 600 212 600 c 1,54,55
 212 600 212 600 212 700 c 1,0,1
EndSplineSet
Validated: 1
EndChar

StartChar: equal
Encoding: 61 61 32
Width: 300
GlyphClass: 2
Flags: W
LayerCount: 2
Back
Fore
SplineSet
50 500 m 1,0,1
 50 500 50 500 250 500 c 1,2,3
 250 500 250 500 250 400 c 1,4,5
 250 400 250 400 50 400 c 1,6,7
 50 400 50 400 50 500 c 1,0,1
50 300 m 1,8,9
 50 300 50 300 250 300 c 1,10,11
 250 300 250 300 250 200 c 1,12,13
 250 200 250 200 50 200 c 1,14,15
 50 200 50 200 50 300 c 1,8,9
EndSplineSet
Validated: 1
EndChar

StartChar: greater
Encoding: 62 62 33
Width: 300
GlyphClass: 2
Flags: W
LayerCount: 2
Back
Fore
SplineSet
62 600 m 1,0,1
 62 600 62 600 62 700 c 1,2,3
 62 700 62 700 138 700 c 1,4,5
 138 700 138 700 138 600 c 1,6,7
 138 600 138 600 188 600 c 1,8,9
 188 600 188 600 188 500 c 1,10,11
 188 500 188 500 238 500 c 1,12,13
 238 500 238 500 238 400 c 1,14,15
 238 400 238 400 288 400 c 1,16,17
 288 400 288 400 288 300 c 1,18,19
 288 300 288 300 238 300 c 1,20,21
 238 300 238 300 238 200 c 1,22,23
 238 200 238 200 188 200 c 1,24,25
 188 200 188 200 188 100 c 1,26,27
 188 100 188 100 138 100 c 1,28,29
 138 100 138 100 138 0 c 1,30,31
 138 0 138 0 62 0 c 1,32,33
 62 0 62 0 62 100 c 1,34,35
 62 100 62 100 112 100 c 1,36,37
 112 100 112 100 112 200 c 1,38,39
 112 200 112 200 162 200 c 1,40,41
 162 200 162 200 162 300 c 1,42,43
 162 300 162 300 212 300 c 1,44,45
 212 300 212 300 212 400 c 1,46,47
 212 400 212 400 162 400 c 1,48,49
 162 400 162 400 162 500 c 1,50,51
 162 500 162 500 112 500 c 1,52,53
 112 500 112 500 112 600 c 1,54,55
 112 600 112 600 62 600 c 1,0,1
EndSplineSet
Validated: 1
EndChar

StartChar: question
Encoding: 63 63 34
Width: 300
GlyphClass: 2
Flags: W
LayerCount: 2
Back
Fore
SplineSet
162 300 m 1,0,1
 162 300 162 300 212 300 c 1,2,3
 212 300 212 300 212 200 c 1,4,5
 212 200 212 200 162 200 c 1,6,7
 162 200 162 200 162 300 c 1,0,1
212 0 m 1,8,9
 212 0 212 0 162 0 c 1,10,11
 162 0 162 0 162 100 c 1,12,13
 162 100 162 100 212 100 c 1,14,15
 212 100 212 100 212 0 c 1,8,9
62 600 m 1,16,17
 62 600 62 600 88 600 c 1,18,19
 88 600 88 600 88 700 c 1,20,21
 88 700 88 700 262 700 c 1,22,23
 262 700 262 700 262 600 c 1,24,25
 262 600 262 600 288 600 c 1,26,27
 288 600 288 600 288 400 c 1,28,29
 288 400 288 400 262 400 c 1,30,31
 262 400 262 400 262 300 c 1,32,33
 262 300 262 300 212 300 c 1,34,35
 212 300 212 300 212 400 c 1,36,37
 212 400 212 400 238 400 c 1,38,39
 238 400 238 400 238 600 c 1,40,41
 238 600 238 600 112 600 c 1,42,43
 112 600 112 600 112 400 c 1,44,45
 112 400 112 400 62 400 c 1,46,47
 62 400 62 400 62 600 c 1,16,17
EndSplineSet
Validated: 5
EndChar

StartChar: at
Encoding: 64 64 35
Width: 300
GlyphClass: 2
Flags: W
LayerCount: 2
Back
Fore
SplineSet
175 400 m 1,0,1
 175 400 175 400 175 200 c 1,2,3
 175 200 175 200 225 200 c 1,4,5
 225 200 225 200 225 400 c 1,6,7
 225 400 225 400 175 400 c 1,0,1
75 600 m 1,8,9
 75 600 75 600 75 700 c 1,10,11
 75 700 75 700 250 700 c 1,12,13
 250 700 250 700 250 600 c 1,14,15
 250 600 250 600 275 600 c 1,16,17
 275 600 275 600 275 100 c 1,18,19
 275 100 275 100 150 100 c 1,20,21
 150 100 150 100 150 200 c 1,22,23
 150 200 150 200 125 200 c 1,24,25
 125 200 125 200 125 400 c 1,26,27
 125 400 125 400 150 400 c 1,28,29
 150 400 150 400 150 500 c 1,30,31
 150 500 150 500 225 500 c 1,32,33
 225 500 225 500 225 600 c 1,34,35
 225 600 225 600 100 600 c 1,36,37
 100 600 100 600 100 500 c 1,38,39
 100 500 100 500 75 500 c 1,40,41
 75 500 75 500 75 100 c 1,42,43
 75 100 75 100 100 100 c 1,44,45
 100 100 100 100 100 0 c 1,46,47
 100 0 100 0 250 0 c 1,48,49
 250 0 250 0 250 -100 c 1,50,51
 250 -100 250 -100 75 -100 c 1,52,53
 75 -100 75 -100 75 0 c 1,54,55
 75 0 75 0 50 0 c 1,56,57
 50 0 50 0 50 100 c 1,58,59
 50 100 50 100 25 100 c 1,60,61
 25 100 25 100 25 500 c 1,62,63
 25 500 25 500 50 500 c 1,64,65
 50 500 50 500 50 600 c 1,66,67
 50 600 50 600 75 600 c 1,8,9
EndSplineSet
Validated: 1
EndChar

StartChar: A
Encoding: 65 65 36
Width: 300
GlyphClass: 2
Flags: W
LayerCount: 2
Back
Fore
SplineSet
75 400 m 1,0,1
 75 400 75 400 75 300 c 1,2,3
 75 300 75 300 225 300 c 1,4,5
 225 300 225 300 225 400 c 1,6,7
 225 400 225 400 200 400 c 1,8,9
 200 400 200 400 200 500 c 1,10,11
 200 500 200 500 175 500 c 1,12,13
 175 500 175 500 175 600 c 1,14,15
 175 600 175 600 125 600 c 1,16,17
 125 600 125 600 125 500 c 1,18,19
 125 500 125 500 100 500 c 1,20,21
 100 500 100 500 100 400 c 1,22,23
 100 400 100 400 75 400 c 1,0,1
75 0 m 1,24,25
 75 0 75 0 25 0 c 1,26,27
 25 0 25 0 25 400 c 1,28,29
 25 400 25 400 50 400 c 1,30,31
 50 400 50 400 50 500 c 1,32,33
 50 500 50 500 75 500 c 1,34,35
 75 500 75 500 75 600 c 1,36,37
 75 600 75 600 100 600 c 1,38,39
 100 600 100 600 100 700 c 1,40,41
 100 700 100 700 200 700 c 1,42,43
 200 700 200 700 200 600 c 1,44,45
 200 600 200 600 225 600 c 1,46,47
 225 600 225 600 225 500 c 1,48,49
 225 500 225 500 250 500 c 1,50,51
 250 500 250 500 250 400 c 1,52,53
 250 400 250 400 275 400 c 1,54,55
 275 400 275 400 275 0 c 1,56,57
 275 0 275 0 225 0 c 1,58,59
 225 0 225 0 225 200 c 1,60,61
 225 200 225 200 75 200 c 1,62,63
 75 200 75 200 75 0 c 1,24,25
EndSplineSet
Validated: 1
EndChar

StartChar: B
Encoding: 66 66 37
Width: 300
GlyphClass: 2
Flags: W
LayerCount: 2
Back
Fore
SplineSet
112 600 m 1,0,1
 112 600 112 600 112 400 c 1,2,3
 112 400 112 400 238 400 c 1,4,5
 238 400 238 400 238 600 c 1,6,7
 238 600 238 600 112 600 c 1,0,1
112 300 m 1,8,9
 112 300 112 300 112 100 c 1,10,11
 112 100 112 100 238 100 c 1,12,13
 238 100 238 100 238 300 c 1,14,15
 238 300 238 300 112 300 c 1,8,9
62 0 m 1,16,17
 62 0 62 0 62 700 c 1,18,19
 62 700 62 700 262 700 c 1,20,21
 262 700 262 700 262 600 c 1,22,23
 262 600 262 600 288 600 c 1,24,25
 288 600 288 600 288 400 c 1,26,27
 288 400 288 400 262 400 c 1,28,29
 262 400 262 400 262 300 c 1,30,31
 262 300 262 300 288 300 c 1,32,33
 288 300 288 300 288 100 c 1,34,35
 288 100 288 100 262 100 c 1,36,37
 262 100 262 100 262 0 c 1,38,39
 262 0 262 0 62 0 c 1,16,17
EndSplineSet
Validated: 1
EndChar

StartChar: C
Encoding: 67 67 38
Width: 300
GlyphClass: 2
Flags: W
LayerCount: 2
Back
Fore
SplineSet
112 700 m 1,0,1
 112 700 112 700 262 700 c 1,2,3
 262 700 262 700 262 600 c 1,4,5
 262 600 262 600 288 600 c 1,6,7
 288 600 288 600 288 500 c 1,8,9
 288 500 288 500 238 500 c 1,10,11
 238 500 238 500 238 600 c 1,12,13
 238 600 238 600 138 600 c 1,14,15
 138 600 138 600 138 500 c 1,16,17
 138 500 138 500 112 500 c 1,18,19
 112 500 112 500 112 200 c 1,20,21
 112 200 112 200 138 200 c 1,22,23
 138 200 138 200 138 100 c 1,24,25
 138 100 138 100 238 100 c 1,26,27
 238 100 238 100 238 200 c 1,28,29
 238 200 238 200 288 200 c 1,30,31
 288 200 288 200 288 100 c 1,32,33
 288 100 288 100 262 100 c 1,34,35
 262 100 262 100 262 0 c 1,36,37
 262 0 262 0 112 0 c 1,38,39
 112 0 112 0 112 100 c 1,40,41
 112 100 112 100 88 100 c 1,42,43
 88 100 88 100 88 200 c 1,44,45
 88 200 88 200 62 200 c 1,46,47
 62 200 62 200 62 500 c 1,48,49
 62 500 62 500 88 500 c 1,50,51
 88 500 88 500 88 600 c 1,52,53
 88 600 88 600 112 600 c 1,54,55
 112 600 112 600 112 700 c 1,0,1
EndSplineSet
Validated: 1
EndChar

StartChar: D
Encoding: 68 68 39
Width: 300
GlyphClass: 2
Flags: W
LayerCount: 2
Back
Fore
SplineSet
112 600 m 1,0,1
 112 600 112 600 112 100 c 1,2,3
 112 100 112 100 212 100 c 1,4,5
 212 100 212 100 212 200 c 1,6,7
 212 200 212 200 238 200 c 1,8,9
 238 200 238 200 238 500 c 1,10,11
 238 500 238 500 212 500 c 1,12,13
 212 500 212 500 212 600 c 1,14,15
 212 600 212 600 112 600 c 1,0,1
62 700 m 1,16,17
 62 700 62 700 238 700 c 1,18,19
 238 700 238 700 238 600 c 1,20,21
 238 600 238 600 262 600 c 1,22,23
 262 600 262 600 262 500 c 1,24,25
 262 500 262 500 288 500 c 1,26,27
 288 500 288 500 288 200 c 1,28,29
 288 200 288 200 262 200 c 1,30,31
 262 200 262 200 262 100 c 1,32,33
 262 100 262 100 238 100 c 1,34,35
 238 100 238 100 238 0 c 1,36,37
 238 0 238 0 62 0 c 1,38,39
 62 0 62 0 62 700 c 1,16,17
EndSplineSet
Validated: 1
EndChar

StartChar: E
Encoding: 69 69 40
Width: 300
GlyphClass: 2
Flags: W
LayerCount: 2
Back
Fore
SplineSet
288 600 m 1,0,1
 288 600 288 600 112 600 c 1,2,3
 112 600 112 600 112 400 c 1,4,5
 112 400 112 400 238 400 c 1,6,7
 238 400 238 400 238 300 c 1,8,9
 238 300 238 300 112 300 c 1,10,11
 112 300 112 300 112 100 c 1,12,13
 112 100 112 100 288 100 c 1,14,15
 288 100 288 100 288 0 c 1,16,17
 288 0 288 0 62 0 c 1,18,19
 62 0 62 0 62 700 c 1,20,21
 62 700 62 700 288 700 c 1,22,23
 288 700 288 700 288 600 c 1,0,1
EndSplineSet
Validated: 1
EndChar

StartChar: F
Encoding: 70 70 41
Width: 300
GlyphClass: 2
Flags: W
LayerCount: 2
Back
Fore
SplineSet
112 0 m 1,0,1
 112 0 112 0 62 0 c 1,2,3
 62 0 62 0 62 700 c 1,4,5
 62 700 62 700 288 700 c 1,6,7
 288 700 288 700 288 600 c 1,8,9
 288 600 288 600 112 600 c 1,10,11
 112 600 112 600 112 400 c 1,12,13
 112 400 112 400 238 400 c 1,14,15
 238 400 238 400 238 300 c 1,16,17
 238 300 238 300 112 300 c 1,18,19
 112 300 112 300 112 0 c 1,0,1
EndSplineSet
Validated: 1
EndChar

StartChar: G
Encoding: 71 71 42
Width: 300
GlyphClass: 2
Flags: W
LayerCount: 2
Back
Fore
SplineSet
238 600 m 1,0,1
 238 600 238 600 112 600 c 1,2,3
 112 600 112 600 112 100 c 1,4,5
 112 100 112 100 238 100 c 1,6,7
 238 100 238 100 238 200 c 1,8,9
 238 200 238 200 162 200 c 1,10,11
 162 200 162 200 162 300 c 1,12,13
 162 300 162 300 288 300 c 1,14,15
 288 300 288 300 288 100 c 1,16,17
 288 100 288 100 262 100 c 1,18,19
 262 100 262 100 262 0 c 1,20,21
 262 0 262 0 88 0 c 1,22,23
 88 0 88 0 88 100 c 1,24,25
 88 100 88 100 62 100 c 1,26,27
 62 100 62 100 62 600 c 1,28,29
 62 600 62 600 88 600 c 1,30,31
 88 600 88 600 88 700 c 1,32,33
 88 700 88 700 262 700 c 1,34,35
 262 700 262 700 262 600 c 1,36,37
 262 600 262 600 288 600 c 1,38,39
 288 600 288 600 288 500 c 1,40,41
 288 500 288 500 238 500 c 1,42,43
 238 500 238 500 238 600 c 1,0,1
EndSplineSet
Validated: 1
EndChar

StartChar: H
Encoding: 72 72 43
Width: 300
GlyphClass: 2
Flags: W
LayerCount: 2
Back
Fore
SplineSet
62 700 m 1,0,1
 62 700 62 700 112 700 c 1,2,3
 112 700 112 700 112 400 c 1,4,5
 112 400 112 400 238 400 c 1,6,7
 238 400 238 400 238 700 c 1,8,9
 238 700 238 700 288 700 c 1,10,11
 288 700 288 700 288 0 c 1,12,13
 288 0 288 0 238 0 c 1,14,15
 238 0 238 0 238 300 c 1,16,17
 238 300 238 300 112 300 c 1,18,19
 112 300 112 300 112 0 c 1,20,21
 112 0 112 0 62 0 c 1,22,23
 62 0 62 0 62 700 c 1,0,1
EndSplineSet
Validated: 1
EndChar

StartChar: I
Encoding: 73 73 44
Width: 300
GlyphClass: 2
Flags: W
LayerCount: 2
Back
Fore
SplineSet
50 700 m 1,0,1
 50 700 50 700 250 700 c 1,2,3
 250 700 250 700 250 600 c 1,4,5
 250 600 250 600 175 600 c 1,6,7
 175 600 175 600 175 100 c 1,8,9
 175 100 175 100 250 100 c 1,10,11
 250 100 250 100 250 0 c 1,12,13
 250 0 250 0 50 0 c 1,14,15
 50 0 50 0 50 100 c 1,16,17
 50 100 50 100 125 100 c 1,18,19
 125 100 125 100 125 600 c 1,20,21
 125 600 125 600 50 600 c 1,22,23
 50 600 50 600 50 700 c 1,0,1
EndSplineSet
Validated: 1
EndChar

StartChar: J
Encoding: 74 74 45
Width: 300
GlyphClass: 2
Flags: W
LayerCount: 2
Back
Fore
SplineSet
238 700 m 1,0,1
 238 700 238 700 288 700 c 1,2,3
 288 700 288 700 288 100 c 1,4,5
 288 100 288 100 262 100 c 1,6,7
 262 100 262 100 262 0 c 1,8,9
 262 0 262 0 88 0 c 1,10,11
 88 0 88 0 88 100 c 1,12,13
 88 100 88 100 62 100 c 1,14,15
 62 100 62 100 62 200 c 1,16,17
 62 200 62 200 112 200 c 1,18,19
 112 200 112 200 112 100 c 1,20,21
 112 100 112 100 238 100 c 1,22,23
 238 100 238 100 238 700 c 1,0,1
EndSplineSet
Validated: 1
EndChar

StartChar: K
Encoding: 75 75 46
Width: 300
GlyphClass: 2
Flags: W
LayerCount: 2
Back
Fore
SplineSet
62 700 m 1,0,1
 62 700 62 700 112 700 c 1,2,3
 112 700 112 700 112 400 c 1,4,5
 112 400 112 400 138 400 c 1,6,7
 138 400 138 400 138 500 c 1,8,9
 138 500 138 500 188 500 c 1,10,11
 188 500 188 500 188 600 c 1,12,13
 188 600 188 600 212 600 c 1,14,15
 212 600 212 600 212 700 c 1,16,17
 212 700 212 700 288 700 c 1,18,19
 288 700 288 700 288 600 c 1,20,21
 288 600 288 600 238 600 c 1,22,23
 238 600 238 600 238 500 c 1,24,25
 238 500 238 500 212 500 c 1,26,27
 212 500 212 500 212 400 c 1,28,29
 212 400 212 400 162 400 c 1,30,31
 162 400 162 400 162 300 c 1,32,33
 162 300 162 300 212 300 c 1,34,35
 212 300 212 300 212 200 c 1,36,37
 212 200 212 200 238 200 c 1,38,39
 238 200 238 200 238 100 c 1,40,41
 238 100 238 100 288 100 c 1,42,43
 288 100 288 100 288 0 c 1,44,45
 288 0 288 0 212 0 c 1,46,47
 212 0 212 0 212 100 c 1,48,49
 212 100 212 100 188 100 c 1,50,51
 188 100 188 100 188 200 c 1,52,53
 188 200 188 200 138 200 c 1,54,55
 138 200 138 200 138 300 c 1,56,57
 138 300 138 300 112 300 c 1,58,59
 112 300 112 300 112 0 c 1,60,61
 112 0 112 0 62 0 c 1,62,63
 62 0 62 0 62 700 c 1,0,1
EndSplineSet
Validated: 1
EndChar

StartChar: L
Encoding: 76 76 47
Width: 300
GlyphClass: 2
Flags: W
LayerCount: 2
Back
Fore
SplineSet
62 700 m 1,0,1
 62 700 62 700 112 700 c 1,2,3
 112 700 112 700 112 100 c 1,4,5
 112 100 112 100 288 100 c 1,6,7
 288 100 288 100 288 0 c 1,8,9
 288 0 288 0 62 0 c 1,10,11
 62 0 62 0 62 700 c 1,0,1
EndSplineSet
Validated: 1
EndChar

StartChar: M
Encoding: 77 77 48
Width: 300
GlyphClass: 2
Flags: W
LayerCount: 2
Back
Fore
SplineSet
75 0 m 1,0,1
 75 0 75 0 25 0 c 1,2,3
 25 0 25 0 25 700 c 1,4,5
 25 700 25 700 100 700 c 1,6,7
 100 700 100 700 100 600 c 1,8,9
 100 600 100 600 125 600 c 1,10,11
 125 600 125 600 125 500 c 1,12,13
 125 500 125 500 175 500 c 1,14,15
 175 500 175 500 175 600 c 1,16,17
 175 600 175 600 200 600 c 1,18,19
 200 600 200 600 200 700 c 1,20,21
 200 700 200 700 275 700 c 1,22,23
 275 700 275 700 275 0 c 1,24,25
 275 0 275 0 225 0 c 1,26,27
 225 0 225 0 225 500 c 1,28,29
 225 500 225 500 200 500 c 1,30,31
 200 500 200 500 200 400 c 1,32,33
 200 400 200 400 175 400 c 1,34,35
 175 400 175 400 175 300 c 1,36,37
 175 300 175 300 125 300 c 1,38,39
 125 300 125 300 125 400 c 1,40,41
 125 400 125 400 100 400 c 1,42,43
 100 400 100 400 100 500 c 1,44,45
 100 500 100 500 75 500 c 1,46,47
 75 500 75 500 75 0 c 1,0,1
EndSplineSet
Validated: 1
EndChar

StartChar: N
Encoding: 78 78 49
Width: 300
GlyphClass: 2
Flags: W
LayerCount: 2
Back
Fore
SplineSet
25 700 m 1,0,1
 25 700 25 700 100 700 c 1,2,3
 100 700 100 700 100 600 c 1,4,5
 100 600 100 600 125 600 c 1,6,7
 125 600 125 600 125 500 c 1,8,9
 125 500 125 500 150 500 c 1,10,11
 150 500 150 500 150 400 c 1,12,13
 150 400 150 400 175 400 c 1,14,15
 175 400 175 400 175 300 c 1,16,17
 175 300 175 300 200 300 c 1,18,19
 200 300 200 300 200 200 c 1,20,21
 200 200 200 200 225 200 c 1,22,23
 225 200 225 200 225 700 c 1,24,25
 225 700 225 700 275 700 c 1,26,27
 275 700 275 700 275 0 c 1,28,29
 275 0 275 0 200 0 c 1,30,31
 200 0 200 0 200 100 c 1,32,33
 200 100 200 100 175 100 c 1,34,35
 175 100 175 100 175 200 c 1,36,37
 175 200 175 200 150 200 c 1,38,39
 150 200 150 200 150 300 c 1,40,41
 150 300 150 300 125 300 c 1,42,43
 125 300 125 300 125 400 c 1,44,45
 125 400 125 400 100 400 c 1,46,47
 100 400 100 400 100 500 c 1,48,49
 100 500 100 500 75 500 c 1,50,51
 75 500 75 500 75 0 c 1,52,53
 75 0 75 0 25 0 c 1,54,55
 25 0 25 0 25 700 c 1,0,1
EndSplineSet
Validated: 1
EndChar

StartChar: O
Encoding: 79 79 50
Width: 300
GlyphClass: 2
Flags: W
LayerCount: 2
Back
Fore
SplineSet
200 100 m 1,0,1
 200 100 200 100 200 200 c 1,2,3
 200 200 200 200 225 200 c 1,4,5
 225 200 225 200 225 500 c 1,6,7
 225 500 225 500 200 500 c 1,8,9
 200 500 200 500 200 600 c 1,10,11
 200 600 200 600 100 600 c 1,12,13
 100 600 100 600 100 500 c 1,14,15
 100 500 100 500 75 500 c 1,16,17
 75 500 75 500 75 200 c 1,18,19
 75 200 75 200 100 200 c 1,20,21
 100 200 100 200 100 100 c 1,22,23
 100 100 100 100 200 100 c 1,0,1
225 0 m 1,24,25
 225 0 225 0 75 0 c 1,26,27
 75 0 75 0 75 100 c 1,28,29
 75 100 75 100 50 100 c 1,30,31
 50 100 50 100 50 200 c 1,32,33
 50 200 50 200 25 200 c 1,34,35
 25 200 25 200 25 500 c 1,36,37
 25 500 25 500 50 500 c 1,38,39
 50 500 50 500 50 600 c 1,40,41
 50 600 50 600 75 600 c 1,42,43
 75 600 75 600 75 700 c 1,44,45
 75 700 75 700 225 700 c 1,46,47
 225 700 225 700 225 600 c 1,48,49
 225 600 225 600 250 600 c 1,50,51
 250 600 250 600 250 500 c 1,52,53
 250 500 250 500 275 500 c 1,54,55
 275 500 275 500 275 200 c 1,56,57
 275 200 275 200 250 200 c 1,58,59
 250 200 250 200 250 100 c 1,60,61
 250 100 250 100 225 100 c 1,62,63
 225 100 225 100 225 0 c 1,24,25
EndSplineSet
Validated: 1
EndChar

StartChar: P
Encoding: 80 80 51
Width: 300
GlyphClass: 2
Flags: W
LayerCount: 2
Back
Fore
SplineSet
112 600 m 1,0,1
 112 600 112 600 112 400 c 1,2,3
 112 400 112 400 238 400 c 1,4,5
 238 400 238 400 238 600 c 1,6,7
 238 600 238 600 112 600 c 1,0,1
62 700 m 1,8,9
 62 700 62 700 262 700 c 1,10,11
 262 700 262 700 262 650 c 1,12,13
 262 650 262 650 288 650 c 1,14,15
 288 650 288 650 288 400 c 1,16,17
 288 400 288 400 262 400 c 1,18,19
 262 400 262 400 262 300 c 1,20,21
 262 300 262 300 112 300 c 1,22,23
 112 300 112 300 112 0 c 1,24,25
 112 0 112 0 62 0 c 1,26,27
 62 0 62 0 62 700 c 1,8,9
EndSplineSet
Validated: 1
EndChar

StartChar: Q
Encoding: 81 81 52
Width: 300
GlyphClass: 2
Flags: W
LayerCount: 2
Back
Fore
SplineSet
75 600 m 1,0,1
 75 600 75 600 75 100 c 1,2,3
 75 100 75 100 150 100 c 1,4,5
 150 100 150 100 150 200 c 1,6,7
 150 200 150 200 200 200 c 1,8,9
 200 200 200 200 200 100 c 1,10,11
 200 100 200 100 225 100 c 1,12,13
 225 100 225 100 225 600 c 1,14,15
 225 600 225 600 75 600 c 1,0,1
50 700 m 1,16,17
 50 700 50 700 250 700 c 1,18,19
 250 700 250 700 250 600 c 1,20,21
 250 600 250 600 275 600 c 1,22,23
 275 600 275 600 275 100 c 1,24,25
 275 100 275 100 250 100 c 1,26,27
 250 100 250 100 250 0 c 1,28,29
 250 0 250 0 225 0 c 1,30,31
 225 0 225 0 225 -100 c 1,32,33
 225 -100 225 -100 275 -100 c 1,34,35
 275 -100 275 -100 275 -200 c 1,36,37
 275 -200 275 -200 200 -200 c 1,38,39
 200 -200 200 -200 200 -100 c 1,40,41
 200 -100 200 -100 175 -100 c 1,42,43
 175 -100 175 -100 175 0 c 1,44,45
 175 0 175 0 50 0 c 1,46,47
 50 0 50 0 50 100 c 1,48,49
 50 100 50 100 25 100 c 1,50,51
 25 100 25 100 25 600 c 1,52,53
 25 600 25 600 50 600 c 1,54,55
 50 600 50 600 50 700 c 1,16,17
EndSplineSet
Validated: 1
EndChar

StartChar: R
Encoding: 82 82 53
Width: 300
GlyphClass: 2
Flags: W
LayerCount: 2
Back
Fore
SplineSet
112 600 m 1,0,1
 112 600 112 600 112 400 c 1,2,3
 112 400 112 400 238 400 c 1,4,5
 238 400 238 400 238 600 c 1,6,7
 238 600 238 600 112 600 c 1,0,1
62 700 m 1,8,9
 62 700 62 700 262 700 c 1,10,11
 262 700 262 700 262 650 c 1,12,13
 262 650 262 650 288 650 c 1,14,15
 288 650 288 650 288 400 c 1,16,17
 288 400 288 400 262 400 c 1,18,19
 262 400 262 400 262 300 c 1,20,21
 262 300 262 300 212 300 c 1,22,23
 212 300 212 300 212 200 c 1,24,25
 212 200 212 200 238 200 c 1,26,27
 238 200 238 200 238 100 c 1,28,29
 238 100 238 100 288 100 c 1,30,31
 288 100 288 100 288 0 c 1,32,33
 288 0 288 0 212 0 c 1,34,35
 212 0 212 0 212 100 c 1,36,37
 212 100 212 100 188 100 c 1,38,39
 188 100 188 100 188 200 c 1,40,41
 188 200 188 200 162 200 c 1,42,43
 162 200 162 200 162 300 c 1,44,45
 162 300 162 300 112 300 c 1,46,47
 112 300 112 300 112 0 c 1,48,49
 112 0 112 0 62 0 c 1,50,51
 62 0 62 0 62 700 c 1,8,9
EndSplineSet
Validated: 1
EndChar

StartChar: S
Encoding: 83 83 54
Width: 300
GlyphClass: 2
Flags: W
LayerCount: 2
Back
Fore
SplineSet
88 600 m 1,0,1
 88 600 88 600 88 700 c 1,2,3
 88 700 88 700 262 700 c 1,4,5
 262 700 262 700 262 600 c 1,6,7
 262 600 262 600 112 600 c 1,8,9
 112 600 112 600 112 400 c 1,10,11
 112 400 112 400 262 400 c 1,12,13
 262 400 262 400 262 300 c 1,14,15
 262 300 262 300 288 300 c 1,16,17
 288 300 288 300 288 100 c 1,18,19
 288 100 288 100 262 100 c 1,20,21
 262 100 262 100 262 0 c 1,22,23
 262 0 262 0 88 0 c 1,24,25
 88 0 88 0 88 100 c 1,26,27
 88 100 88 100 238 100 c 1,28,29
 238 100 238 100 238 300 c 1,30,31
 238 300 238 300 88 300 c 1,32,33
 88 300 88 300 88 400 c 1,34,35
 88 400 88 400 62 400 c 1,36,37
 62 400 62 400 62 600 c 1,38,39
 62 600 62 600 88 600 c 1,0,1
EndSplineSet
Validated: 1
EndChar

StartChar: T
Encoding: 84 84 55
Width: 300
GlyphClass: 2
Flags: W
LayerCount: 2
Back
Fore
SplineSet
25 700 m 1,0,1
 25 700 25 700 275 700 c 1,2,3
 275 700 275 700 275 600 c 1,4,5
 275 600 275 600 175 600 c 1,6,7
 175 600 175 600 175 0 c 1,8,9
 175 0 175 0 125 0 c 1,10,11
 125 0 125 0 125 600 c 1,12,13
 125 600 125 600 25 600 c 1,14,15
 25 600 25 600 25 700 c 1,0,1
EndSplineSet
Validated: 1
EndChar

StartChar: U
Encoding: 85 85 56
Width: 300
GlyphClass: 2
Flags: W
LayerCount: 2
Back
Fore
SplineSet
62 700 m 1,0,1
 62 700 62 700 112 700 c 1,2,3
 112 700 112 700 112 100 c 1,4,5
 112 100 112 100 238 100 c 1,6,7
 238 100 238 100 238 700 c 1,8,9
 238 700 238 700 288 700 c 1,10,11
 288 700 288 700 288 100 c 1,12,13
 288 100 288 100 262 100 c 1,14,15
 262 100 262 100 262 0 c 1,16,17
 262 0 262 0 88 0 c 1,18,19
 88 0 88 0 88 100 c 1,20,21
 88 100 88 100 62 100 c 1,22,23
 62 100 62 100 62 700 c 1,0,1
EndSplineSet
Validated: 1
EndChar

StartChar: V
Encoding: 86 86 57
Width: 300
GlyphClass: 2
Flags: W
LayerCount: 2
Back
Fore
SplineSet
75 700 m 1,0,1
 75 700 75 700 125 700 c 1,2,3
 125 700 125 700 125 500 c 1,4,5
 125 500 125 500 150 500 c 1,6,7
 150 500 150 500 150 300 c 1,8,9
 150 300 150 300 175 300 c 1,10,11
 175 300 175 300 175 200 c 1,12,13
 175 200 175 200 225 200 c 1,14,15
 225 200 225 200 225 300 c 1,16,17
 225 300 225 300 250 300 c 1,18,19
 250 300 250 300 250 500 c 1,20,21
 250 500 250 500 275 500 c 1,22,23
 275 500 275 500 275 700 c 1,24,25
 275 700 275 700 325 700 c 1,26,27
 325 700 325 700 325 500 c 1,28,29
 325 500 325 500 300 500 c 1,30,31
 300 500 300 500 300 300 c 1,32,33
 300 300 300 300 275 300 c 1,34,35
 275 300 275 300 275 200 c 1,36,37
 275 200 275 200 250 200 c 1,38,39
 250 200 250 200 250 100 c 1,40,41
 250 100 250 100 225 100 c 1,42,43
 225 100 225 100 225 0 c 1,44,45
 225 0 225 0 175 0 c 1,46,47
 175 0 175 0 175 100 c 1,48,49
 175 100 175 100 150 100 c 1,50,51
 150 100 150 100 150 200 c 1,52,53
 150 200 150 200 125 200 c 1,54,55
 125 200 125 200 125 300 c 1,56,57
 125 300 125 300 100 300 c 1,58,59
 100 300 100 300 100 500 c 1,60,61
 100 500 100 500 75 500 c 1,62,63
 75 500 75 500 75 700 c 1,0,1
EndSplineSet
Validated: 1
EndChar

StartChar: W
Encoding: 87 87 58
Width: 300
GlyphClass: 2
Flags: W
LayerCount: 2
Back
Fore
SplineSet
25 700 m 1,0,1
 25 700 25 700 75 700 c 1,2,3
 75 700 75 700 75 200 c 1,4,5
 75 200 75 200 100 200 c 1,6,7
 100 200 100 200 100 300 c 1,8,9
 100 300 100 300 125 300 c 1,10,11
 125 300 125 300 125 400 c 1,12,13
 125 400 125 400 175 400 c 1,14,15
 175 400 175 400 175 300 c 1,16,17
 175 300 175 300 200 300 c 1,18,19
 200 300 200 300 200 200 c 1,20,21
 200 200 200 200 225 200 c 1,22,23
 225 200 225 200 225 700 c 1,24,25
 225 700 225 700 275 700 c 1,26,27
 275 700 275 700 275 200 c 1,28,29
 275 200 275 200 250 200 c 1,30,31
 250 200 250 200 250 0 c 1,32,33
 250 0 250 0 200 0 c 1,34,35
 200 0 200 0 200 100 c 1,36,37
 200 100 200 100 175 100 c 1,38,39
 175 100 175 100 175 200 c 1,40,41
 175 200 175 200 125 200 c 1,42,43
 125 200 125 200 125 100 c 1,44,45
 125 100 125 100 100 100 c 1,46,47
 100 100 100 100 100 0 c 1,48,49
 100 0 100 0 50 0 c 1,50,51
 50 0 50 0 50 200 c 1,52,53
 50 200 50 200 25 200 c 1,54,55
 25 200 25 200 25 700 c 1,0,1
EndSplineSet
Validated: 1
EndChar

StartChar: X
Encoding: 88 88 59
Width: 300
GlyphClass: 2
Flags: W
LayerCount: 2
Back
Fore
SplineSet
50 700 m 1,0,1
 50 700 50 700 100 700 c 1,2,3
 100 700 100 700 100 600 c 1,4,5
 100 600 100 600 125 600 c 1,6,7
 125 600 125 600 125 500 c 1,8,9
 125 500 125 500 175 500 c 1,10,11
 175 500 175 500 175 600 c 1,12,13
 175 600 175 600 200 600 c 1,14,15
 200 600 200 600 200 700 c 1,16,17
 200 700 200 700 250 700 c 1,18,19
 250 700 250 700 250 600 c 1,20,21
 250 600 250 600 225 600 c 1,22,23
 225 600 225 600 225 500 c 1,24,25
 225 500 225 500 200 500 c 1,26,27
 200 500 200 500 200 400 c 1,28,29
 200 400 200 400 175 400 c 1,30,31
 175 400 175 400 175 300 c 1,32,33
 175 300 175 300 200 300 c 1,34,35
 200 300 200 300 200 200 c 1,36,37
 200 200 200 200 225 200 c 1,38,39
 225 200 225 200 225 100 c 1,40,41
 225 100 225 100 250 100 c 1,42,43
 250 100 250 100 250 0 c 1,44,45
 250 0 250 0 200 0 c 1,46,47
 200 0 200 0 200 100 c 1,48,49
 200 100 200 100 175 100 c 1,50,51
 175 100 175 100 175 200 c 1,52,53
 175 200 175 200 125 200 c 1,54,55
 125 200 125 200 125 100 c 1,56,57
 125 100 125 100 100 100 c 1,58,59
 100 100 100 100 100 0 c 1,60,61
 100 0 100 0 50 0 c 1,62,63
 50 0 50 0 50 100 c 1,64,65
 50 100 50 100 75 100 c 1,66,67
 75 100 75 100 75 200 c 1,68,69
 75 200 75 200 100 200 c 1,70,71
 100 200 100 200 100 300 c 1,72,73
 100 300 100 300 125 300 c 1,74,75
 125 300 125 300 125 400 c 1,76,77
 125 400 125 400 100 400 c 1,78,79
 100 400 100 400 100 500 c 1,80,81
 100 500 100 500 75 500 c 1,82,83
 75 500 75 500 75 600 c 1,84,85
 75 600 75 600 50 600 c 1,86,87
 50 600 50 600 50 700 c 1,0,1
EndSplineSet
Validated: 1
EndChar

StartChar: Y
Encoding: 89 89 60
Width: 300
GlyphClass: 2
Flags: W
LayerCount: 2
Back
Fore
SplineSet
25 700 m 1,0,1
 25 700 25 700 75 700 c 1,2,3
 75 700 75 700 75 600 c 1,4,5
 75 600 75 600 100 600 c 1,6,7
 100 600 100 600 100 500 c 1,8,9
 100 500 100 500 125 500 c 1,10,11
 125 500 125 500 125 400 c 1,12,13
 125 400 125 400 175 400 c 1,14,15
 175 400 175 400 175 500 c 1,16,17
 175 500 175 500 200 500 c 1,18,19
 200 500 200 500 200 600 c 1,20,21
 200 600 200 600 225 600 c 1,22,23
 225 600 225 600 225 700 c 1,24,25
 225 700 225 700 275 700 c 1,26,27
 275 700 275 700 275 600 c 1,28,29
 275 600 275 600 250 600 c 1,30,31
 250 600 250 600 250 500 c 1,32,33
 250 500 250 500 225 500 c 1,34,35
 225 500 225 500 225 400 c 1,36,37
 225 400 225 400 200 400 c 1,38,39
 200 400 200 400 200 300 c 1,40,41
 200 300 200 300 175 300 c 1,42,43
 175 300 175 300 175 0 c 1,44,45
 175 0 175 0 125 0 c 1,46,47
 125 0 125 0 125 300 c 1,48,49
 125 300 125 300 100 300 c 1,50,51
 100 300 100 300 100 400 c 1,52,53
 100 400 100 400 75 400 c 1,54,55
 75 400 75 400 75 500 c 1,56,57
 75 500 75 500 50 500 c 1,58,59
 50 500 50 500 50 600 c 1,60,61
 50 600 50 600 25 600 c 1,62,63
 25 600 25 600 25 700 c 1,0,1
EndSplineSet
Validated: 1
EndChar

StartChar: Z
Encoding: 90 90 61
Width: 300
GlyphClass: 2
Flags: W
LayerCount: 2
Back
Fore
SplineSet
50 700 m 1,0,1
 50 700 50 700 250 700 c 1,2,3
 250 700 250 700 250 600 c 1,4,5
 250 600 250 600 225 600 c 1,6,7
 225 600 225 600 225 500 c 1,8,9
 225 500 225 500 200 500 c 1,10,11
 200 500 200 500 200 400 c 1,12,13
 200 400 200 400 175 400 c 1,14,15
 175 400 175 400 175 300 c 1,16,17
 175 300 175 300 150 300 c 1,18,19
 150 300 150 300 150 200 c 1,20,21
 150 200 150 200 125 200 c 1,22,23
 125 200 125 200 125 100 c 1,24,25
 125 100 125 100 250 100 c 1,26,27
 250 100 250 100 250 0 c 1,28,29
 250 0 250 0 50 0 c 1,30,31
 50 0 50 0 50 100 c 1,32,33
 50 100 50 100 75 100 c 1,34,35
 75 100 75 100 75 200 c 1,36,37
 75 200 75 200 100 200 c 1,38,39
 100 200 100 200 100 300 c 1,40,41
 100 300 100 300 125 300 c 1,42,43
 125 300 125 300 125 400 c 1,44,45
 125 400 125 400 150 400 c 1,46,47
 150 400 150 400 150 500 c 1,48,49
 150 500 150 500 175 500 c 1,50,51
 175 500 175 500 175 600 c 1,52,53
 175 600 175 600 50 600 c 1,54,55
 50 600 50 600 50 700 c 1,0,1
EndSplineSet
Validated: 1
EndChar

StartChar: bracketleft
Encoding: 91 91 62
Width: 300
GlyphClass: 2
Flags: W
LayerCount: 2
Back
Fore
SplineSet
200 600 m 1,0,1
 200 600 200 600 150 600 c 1,2,3
 150 600 150 600 150 100 c 1,4,5
 150 100 150 100 200 100 c 1,6,7
 200 100 200 100 200 0 c 1,8,9
 200 0 200 0 100 0 c 1,10,11
 100 0 100 0 100 700 c 1,12,13
 100 700 100 700 200 700 c 1,14,15
 200 700 200 700 200 600 c 1,0,1
EndSplineSet
Validated: 1
EndChar

StartChar: backslash
Encoding: 92 92 63
Width: 300
GlyphClass: 2
Flags: W
LayerCount: 2
Back
Fore
SplineSet
50 600 m 1,0,1
 50 600 50 600 50 700 c 1,2,3
 50 700 50 700 100 700 c 1,4,5
 100 700 100 700 100 600 c 1,6,7
 100 600 100 600 125 600 c 1,8,9
 125 600 125 600 125 500 c 1,10,11
 125 500 125 500 150 500 c 1,12,13
 150 500 150 500 150 400 c 1,14,15
 150 400 150 400 175 400 c 1,16,17
 175 400 175 400 175 300 c 1,18,19
 175 300 175 300 200 300 c 1,20,21
 200 300 200 300 200 200 c 1,22,23
 200 200 200 200 225 200 c 1,24,25
 225 200 225 200 225 100 c 1,26,27
 225 100 225 100 250 100 c 1,28,29
 250 100 250 100 250 0 c 1,30,31
 250 0 250 0 200 0 c 1,32,33
 200 0 200 0 200 100 c 1,34,35
 200 100 200 100 175 100 c 1,36,37
 175 100 175 100 175 200 c 1,38,39
 175 200 175 200 150 200 c 1,40,41
 150 200 150 200 150 300 c 1,42,43
 150 300 150 300 125 300 c 1,44,45
 125 300 125 300 125 400 c 1,46,47
 125 400 125 400 100 400 c 1,48,49
 100 400 100 400 100 500 c 1,50,51
 100 500 100 500 75 500 c 1,52,53
 75 500 75 500 75 600 c 1,54,55
 75 600 75 600 50 600 c 1,0,1
EndSplineSet
Validated: 1
EndChar

StartChar: bracketright
Encoding: 93 93 64
Width: 300
GlyphClass: 2
Flags: W
LayerCount: 2
Back
Fore
SplineSet
100 700 m 1,0,1
 100 700 100 700 200 700 c 1,2,3
 200 700 200 700 200 0 c 1,4,5
 200 0 200 0 100 0 c 1,6,7
 100 0 100 0 100 100 c 1,8,9
 100 100 100 100 150 100 c 1,10,11
 150 100 150 100 150 600 c 1,12,13
 150 600 150 600 100 600 c 1,14,15
 100 600 100 600 100 700 c 1,0,1
EndSplineSet
Validated: 1
EndChar

StartChar: asciicircum
Encoding: 94 94 65
Width: 300
GlyphClass: 2
Flags: W
LayerCount: 2
Back
Fore
SplineSet
88 400 m 1,0,1
 88 400 88 400 88 500 c 1,2,3
 88 500 88 500 112 500 c 1,4,5
 112 500 112 500 112 600 c 1,6,7
 112 600 112 600 138 600 c 1,8,9
 138 600 138 600 138 700 c 1,10,11
 138 700 138 700 212 700 c 1,12,13
 212 700 212 700 212 600 c 1,14,15
 212 600 212 600 238 600 c 1,16,17
 238 600 238 600 238 500 c 1,18,19
 238 500 238 500 262 500 c 1,20,21
 262 500 262 500 262 400 c 1,22,23
 262 400 262 400 212 400 c 1,24,25
 212 400 212 400 212 500 c 1,26,27
 212 500 212 500 188 500 c 1,28,29
 188 500 188 500 188 600 c 1,30,31
 188 600 188 600 162 600 c 1,32,33
 162 600 162 600 162 500 c 1,34,35
 162 500 162 500 138 500 c 1,36,37
 138 500 138 500 138 400 c 1,38,39
 138 400 138 400 88 400 c 1,0,1
EndSplineSet
Validated: 1
EndChar

StartChar: underscore
Encoding: 95 95 66
Width: 300
GlyphClass: 2
Flags: W
LayerCount: 2
Back
Fore
SplineSet
25 -100 m 1,0,1
 25 -100 25 -100 25 0 c 1,2,3
 25 0 25 0 275 0 c 1,4,5
 275 0 275 0 275 -100 c 1,6,7
 275 -100 275 -100 25 -100 c 1,0,1
EndSplineSet
Validated: 1
EndChar

StartChar: grave
Encoding: 96 96 67
Width: 300
GlyphClass: 2
Flags: W
LayerCount: 2
Back
Fore
SplineSet
50 700 m 1,0,1
 50 700 50 700 100 700 c 1,2,3
 100 700 100 700 100 600 c 1,4,5
 100 600 100 600 125 600 c 1,6,7
 125 600 125 600 125 500 c 1,8,9
 125 500 125 500 150 500 c 1,10,11
 150 500 150 500 150 400 c 1,12,13
 150 400 150 400 100 400 c 1,14,15
 100 400 100 400 100 500 c 1,16,17
 100 500 100 500 75 500 c 1,18,19
 75 500 75 500 75 600 c 1,20,21
 75 600 75 600 50 600 c 1,22,23
 50 600 50 600 50 700 c 1,0,1
EndSplineSet
Validated: 1
EndChar

StartChar: a
Encoding: 97 97 68
Width: 300
GlyphClass: 2
Flags: W
LayerCount: 2
Back
Fore
SplineSet
75 200 m 1,0,1
 75 200 75 200 75 100 c 1,2,3
 75 100 75 100 200 100 c 1,4,5
 200 100 200 100 200 200 c 1,6,7
 200 200 200 200 75 200 c 1,0,1
50 500 m 1,8,9
 50 500 50 500 225 500 c 1,10,11
 225 500 225 500 225 400 c 1,12,13
 225 400 225 400 250 400 c 1,14,15
 250 400 250 400 250 100 c 1,16,17
 250 100 250 100 274 100 c 1,18,19
 274 84 274 84 274.5 50 c 128,-1,20
 275 16 275 16 275 0 c 1,21,22
 275 0 275 0 50 0 c 1,23,24
 50 0 50 0 50 100 c 1,25,26
 50 100 50 100 25 100 c 1,27,28
 25 100 25 100 25 200 c 1,29,30
 25 200 25 200 50 200 c 1,31,32
 50 200 50 200 50 300 c 1,33,34
 50 300 50 300 200 300 c 1,35,36
 200 300 200 300 200 400 c 1,37,38
 200 400 200 400 50 400 c 1,39,40
 50 400 50 400 50 500 c 1,8,9
EndSplineSet
Validated: 1
EndChar

StartChar: b
Encoding: 98 98 69
Width: 300
GlyphClass: 2
Flags: W
LayerCount: 2
Back
Fore
SplineSet
238 400 m 1,0,1
 238 400 238 400 138 400 c 1,2,3
 138 400 138 400 138 300 c 1,4,5
 138 300 138 300 112 300 c 1,6,7
 112 300 112 300 112 100 c 1,8,9
 112 100 112 100 238 100 c 1,10,11
 238 100 238 100 238 400 c 1,0,1
62 700 m 1,12,13
 62 700 62 700 112 700 c 1,14,15
 112 700 112 700 112 400 c 1,16,17
 112 400 112 400 138 400 c 1,18,19
 138 400 138 400 138 500 c 1,20,21
 138 500 138 500 262 500 c 1,22,23
 262 500 262 500 262 400 c 1,24,25
 262 400 262 400 288 400 c 1,26,27
 288 400 288 400 288 100 c 1,28,29
 288 100 288 100 262 100 c 1,30,31
 262 100 262 100 262 0 c 1,32,33
 262 0 262 0 62 0 c 1,34,35
 62 0 62 0 62 700 c 1,12,13
EndSplineSet
Validated: 5
EndChar

StartChar: c
Encoding: 99 99 70
Width: 300
GlyphClass: 2
Flags: W
LayerCount: 2
Back
Fore
SplineSet
112 500 m 1,0,1
 112 500 112 500 288 500 c 1,2,3
 288 500 288 500 288 400 c 1,4,5
 288 400 288 400 138 400 c 1,6,7
 138 400 138 400 138 300 c 1,8,9
 138 300 138 300 112 300 c 1,10,11
 112 300 112 300 112 200 c 1,12,13
 112 200 112 200 138 200 c 1,14,15
 138 200 138 200 138 100 c 1,16,17
 138 100 138 100 288 100 c 1,18,19
 288 100 288 100 288 0 c 1,20,21
 288 0 288 0 112 0 c 1,22,23
 112 0 112 0 112 100 c 1,24,25
 112 100 112 100 88 100 c 1,26,27
 88 100 88 100 88 200 c 1,28,29
 88 200 88 200 62 200 c 1,30,31
 62 200 62 200 62 300 c 1,32,33
 62 300 62 300 88 300 c 1,34,35
 88 300 88 300 88 400 c 1,36,37
 88 400 88 400 112 400 c 1,38,39
 112 400 112 400 112 500 c 1,0,1
EndSplineSet
Validated: 1
EndChar

StartChar: d
Encoding: 100 100 71
Width: 300
GlyphClass: 2
Flags: W
LayerCount: 2
Back
Fore
SplineSet
112 100 m 1,0,1
 112 100 112 100 238 100 c 1,2,3
 238 100 238 100 238 300 c 1,4,5
 238 300 238 300 212 300 c 1,6,7
 212 300 212 300 212 400 c 1,8,9
 212 400 212 400 112 400 c 1,10,11
 112 400 112 400 112 100 c 1,0,1
238 700 m 1,12,13
 238 700 238 700 288 700 c 1,14,15
 288 700 288 700 288 0 c 1,16,17
 288 0 288 0 88 0 c 1,18,19
 88 0 88 0 88 100 c 1,20,21
 88 100 88 100 62 100 c 1,22,23
 62 100 62 100 62 400 c 1,24,25
 62 400 62 400 88 400 c 1,26,27
 88 400 88 400 88 500 c 1,28,29
 88 500 88 500 212 500 c 1,30,31
 212 500 212 500 212 400 c 1,32,33
 212 400 212 400 238 400 c 1,34,35
 238 400 238 400 238 700 c 1,12,13
EndSplineSet
Validated: 5
EndChar

StartChar: e
Encoding: 101 101 72
Width: 300
GlyphClass: 2
Flags: W
LayerCount: 2
Back
Fore
SplineSet
112 400 m 1,0,1
 112 400 112 400 112 300 c 1,2,3
 112 300 112 300 238 300 c 1,4,5
 238 300 238 300 238 400 c 1,6,7
 238 400 238 400 112 400 c 1,0,1
88 400 m 1,8,9
 88 400 88 400 88 500 c 1,10,11
 88 500 88 500 262 500 c 1,12,13
 262 500 262 500 262 400 c 1,14,15
 262 400 262 400 288 400 c 1,16,17
 288 400 288 400 288 200 c 1,18,19
 288 200 288 200 112 200 c 1,20,21
 112 200 112 200 112 100 c 1,22,23
 112 100 112 100 262 100 c 1,24,25
 262 100 262 100 262 0 c 1,26,27
 262 0 262 0 88 0 c 1,28,29
 88 0 88 0 88 100 c 1,30,31
 88 100 88 100 62 100 c 1,32,33
 62 100 62 100 62 400 c 1,34,35
 62 400 62 400 88 400 c 1,8,9
EndSplineSet
Validated: 1
EndChar

StartChar: f
Encoding: 102 102 73
Width: 300
GlyphClass: 2
Flags: W
LayerCount: 2
Back
Fore
SplineSet
138 600 m 1,0,1
 138 600 138 600 138 700 c 1,2,3
 138 700 138 700 288 700 c 1,4,5
 288 700 288 700 288 600 c 1,6,7
 288 600 288 600 162 600 c 1,8,9
 162 600 162 600 162 400 c 1,10,11
 162 400 162 400 238 400 c 1,12,13
 238 400 238 400 238 300 c 1,14,15
 238 300 238 300 162 300 c 1,16,17
 162 300 162 300 162 0 c 1,18,19
 162 0 162 0 112 0 c 1,20,21
 112 0 112 0 112 300 c 1,22,23
 112 300 112 300 62 300 c 1,24,25
 62 300 62 300 62 400 c 1,26,27
 62 400 62 400 112 400 c 1,28,29
 112 400 112 400 112 600 c 1,30,31
 112 600 112 600 138 600 c 1,0,1
EndSplineSet
Validated: 1
EndChar

StartChar: g
Encoding: 103 103 74
Width: 300
GlyphClass: 2
Flags: W
LayerCount: 2
Back
Fore
SplineSet
112 400 m 1,0,1
 112 400 112 400 112 100 c 1,2,3
 112 100 112 100 212 100 c 1,4,5
 212 100 212 100 212 200 c 1,6,7
 212 200 212 200 238 200 c 1,8,9
 238 200 238 200 238 300 c 1,10,11
 238 300 238 300 212 300 c 1,12,13
 212 300 212 300 212 400 c 1,14,15
 212 400 212 400 112 400 c 1,0,1
88 400 m 1,16,17
 88 400 88 400 88 498 c 1,18,19
 109 498 109 498 150 499 c 128,-1,20
 191 500 191 500 212 500 c 1,21,22
 212 500 212 500 212 400 c 1,23,24
 212 400 212 400 238 400 c 1,25,26
 238 400 238 400 238 500 c 1,27,28
 238 500 238 500 288 500 c 1,29,30
 288 500 288 500 288 -100 c 1,31,32
 288 -100 288 -100 262 -100 c 1,33,34
 262 -100 262 -100 262 -200 c 1,35,36
 262 -200 262 -200 88 -200 c 1,37,38
 88 -200 88 -200 88 -100 c 1,39,40
 88 -100 88 -100 238 -100 c 1,41,42
 238 -100 238 -100 238 100 c 1,43,44
 238 100 238 100 212 100 c 1,45,46
 212 100 212 100 212 0 c 1,47,48
 212 0 212 0 88 0 c 1,49,50
 88 0 88 0 88 100 c 1,51,52
 88 100 88 100 62 100 c 1,53,54
 62 100 62 100 62 400 c 1,55,56
 62 400 62 400 88 400 c 1,16,17
EndSplineSet
Validated: 5
EndChar

StartChar: h
Encoding: 104 104 75
Width: 300
GlyphClass: 2
Flags: W
LayerCount: 2
Back
Fore
SplineSet
62 700 m 1,0,1
 62 700 62 700 112 700 c 1,2,3
 112 700 112 700 112 400 c 1,4,5
 112 400 112 400 138 400 c 1,6,7
 138 400 138 400 138 500 c 1,8,9
 138 500 138 500 262 500 c 1,10,11
 262 500 262 500 262 400 c 1,12,13
 262 400 262 400 288 400 c 1,14,15
 288 400 288 400 288 0 c 1,16,17
 288 0 288 0 238 0 c 1,18,19
 238 0 238 0 238 400 c 1,20,21
 238 400 238 400 138 400 c 1,22,23
 138 400 138 400 138 300 c 1,24,25
 138 300 138 300 112 300 c 1,26,27
 112 300 112 300 112 0 c 1,28,29
 112 0 112 0 62 0 c 1,30,31
 62 0 62 0 62 700 c 1,0,1
EndSplineSet
Validated: 5
EndChar

StartChar: i
Encoding: 105 105 76
Width: 300
GlyphClass: 2
Flags: W
LayerCount: 2
Back
Fore
SplineSet
100 500 m 1,0,1
 100 500 100 500 175 500 c 1,2,3
 175 434 175 434 174.5 300 c 128,-1,4
 174 166 174 166 174 100 c 1,5,6
 174 100 174 100 225 100 c 1,7,8
 225 100 225 100 225 0 c 1,9,10
 225 0 225 0 75 0 c 1,11,12
 75 0 75 0 75 100 c 1,13,14
 75 100 75 100 125 100 c 1,15,16
 125 100 125 100 125 400 c 1,17,18
 125 400 125 400 100 400 c 1,19,20
 100 400 100 400 100 500 c 1,0,1
100 700 m 1,21,22
 100 700 100 700 175 700 c 1,23,24
 175 700 175 700 175 600 c 1,25,26
 175 600 175 600 100 600 c 1,27,28
 100 600 100 600 100 700 c 1,21,22
EndSplineSet
Validated: 1
EndChar

StartChar: j
Encoding: 106 106 77
Width: 300
GlyphClass: 2
Flags: W
LayerCount: 2
Back
Fore
SplineSet
212 400 m 1,0,1
 212 400 212 400 212 500 c 1,2,3
 212 500 212 500 288 500 c 1,4,5
 288 500 288 500 288 -100 c 1,6,7
 288 -100 288 -100 262 -100 c 1,8,9
 262 -100 262 -100 262 -200 c 1,10,11
 262 -200 262 -200 88 -200 c 1,12,13
 88 -200 88 -200 88 -100 c 1,14,15
 88 -100 88 -100 62 -100 c 1,16,17
 62 -100 62 -100 62 0 c 1,18,19
 62 0 62 0 112 0 c 1,20,21
 112 0 112 0 112 -100 c 1,22,23
 112 -100 112 -100 238 -100 c 1,24,25
 238 -100 238 -100 238 400 c 1,26,27
 238 400 238 400 212 400 c 1,0,1
212 700 m 1,28,29
 212 700 212 700 287 700 c 1,30,31
 287 684 287 684 287.5 650 c 128,-1,32
 288 616 288 616 288 600 c 1,33,34
 288 600 288 600 212 600 c 1,35,36
 212 600 212 600 212 700 c 1,28,29
EndSplineSet
Validated: 1
EndChar

StartChar: k
Encoding: 107 107 78
Width: 300
GlyphClass: 2
Flags: W
LayerCount: 2
Back
Fore
SplineSet
50 700 m 1,0,1
 50 700 50 700 100 700 c 1,2,3
 100 700 100 700 100 300 c 1,4,5
 100 300 100 300 150 300 c 1,6,7
 150 300 150 300 150 400 c 1,8,9
 150 400 150 400 175 400 c 1,10,11
 175 400 175 400 175 500 c 1,12,13
 175 500 175 500 250 500 c 1,14,15
 250 500 250 500 250 400 c 1,16,17
 250 400 250 400 200 400 c 1,18,19
 200 400 200 400 200 300 c 1,20,21
 200 300 200 300 175 300 c 1,22,23
 175 300 175 300 175 200 c 1,24,25
 175 200 175 200 200 200 c 1,26,27
 200 200 200 200 200 100 c 1,28,29
 200 100 200 100 250 100 c 1,30,31
 250 100 250 100 250 0 c 1,32,33
 250 0 250 0 175 0 c 1,34,35
 175 0 175 0 175 100 c 1,36,37
 175 100 175 100 150 100 c 1,38,39
 150 100 150 100 150 200 c 1,40,41
 150 200 150 200 100 200 c 1,42,43
 100 200 100 200 100 0 c 1,44,45
 100 0 100 0 50 0 c 1,46,47
 50 0 50 0 50 700 c 1,0,1
EndSplineSet
Validated: 1
EndChar

StartChar: l
Encoding: 108 108 79
Width: 300
GlyphClass: 2
Flags: W
LayerCount: 2
Back
Fore
SplineSet
75 750 m 1,0,1
 75 750 75 750 175 750 c 1,2,3
 175 750 175 750 175 100 c 1,4,5
 175 100 175 100 250 100 c 1,6,7
 250 100 250 100 250 0 c 1,8,9
 250 0 250 0 50 0 c 1,10,11
 50 0 50 0 50 100 c 1,12,13
 50 100 50 100 125 100 c 1,14,15
 125 100 125 100 125 650 c 1,16,17
 125 650 125 650 75 650 c 1,18,19
 75 650 75 650 75 750 c 1,0,1
EndSplineSet
Validated: 1
EndChar

StartChar: m
Encoding: 109 109 80
Width: 300
GlyphClass: 2
Flags: W
LayerCount: 2
Back
Fore
SplineSet
25 0 m 1,0,1
 25 0 25 0 25 500 c 1,2,3
 25 500 25 500 250 500 c 1,4,5
 250 500 250 500 250 400 c 1,6,7
 250 400 250 400 275 400 c 1,8,9
 275 400 275 400 275 0 c 1,10,11
 275 0 275 0 225 0 c 1,12,13
 225 0 225 0 225 400 c 1,14,15
 225 400 225 400 175 400 c 1,16,17
 175 400 175 400 175 0 c 1,18,19
 175 0 175 0 125 0 c 1,20,21
 125 0 125 0 125 400 c 1,22,23
 125 400 125 400 75 400 c 1,24,25
 75 400 75 400 75 0 c 1,26,27
 75 0 75 0 25 0 c 1,0,1
EndSplineSet
Validated: 1
EndChar

StartChar: n
Encoding: 110 110 81
Width: 300
GlyphClass: 2
Flags: W
LayerCount: 2
Back
Fore
SplineSet
62 0 m 1,0,1
 62 0 62 0 62 500 c 1,2,3
 62 500 62 500 112 500 c 1,4,5
 112 500 112 500 112 400 c 1,6,7
 112 400 112 400 138 400 c 1,8,9
 138 400 138 400 138 500 c 1,10,11
 138 500 138 500 262 500 c 1,12,13
 262 500 262 500 262 400 c 1,14,15
 262 400 262 400 288 400 c 1,16,17
 288 400 288 400 288 0 c 1,18,19
 288 0 288 0 238 0 c 1,20,21
 238 0 238 0 238 400 c 1,22,23
 238 400 238 400 138 400 c 1,24,25
 138 400 138 400 138 300 c 1,26,27
 138 300 138 300 112 300 c 1,28,29
 112 300 112 300 112 0 c 1,30,31
 112 0 112 0 62 0 c 1,0,1
EndSplineSet
Validated: 5
EndChar

StartChar: o
Encoding: 111 111 82
Width: 300
GlyphClass: 2
Flags: W
LayerCount: 2
Back
Fore
SplineSet
112 400 m 1,0,1
 112 400 112 400 112 100 c 1,2,3
 112 100 112 100 238 100 c 1,4,5
 238 100 238 100 238 400 c 1,6,7
 238 400 238 400 112 400 c 1,0,1
88 500 m 1,8,9
 88 500 88 500 262 500 c 1,10,11
 262 500 262 500 262 400 c 1,12,13
 262 400 262 400 288 400 c 1,14,15
 288 400 288 400 288 100 c 1,16,17
 288 100 288 100 262 100 c 1,18,19
 262 100 262 100 262 0 c 1,20,21
 262 0 262 0 88 0 c 1,22,23
 88 0 88 0 88 100 c 1,24,25
 88 100 88 100 62 100 c 1,26,27
 62 100 62 100 62 400 c 1,28,29
 62 400 62 400 88 400 c 1,30,31
 88 400 88 400 88 500 c 1,8,9
EndSplineSet
Validated: 1
EndChar

StartChar: p
Encoding: 112 112 83
Width: 300
GlyphClass: 2
Flags: W
LayerCount: 2
Back
Fore
SplineSet
138 300 m 1,0,1
 138 300 138 300 112 300 c 1,2,3
 112 300 112 300 112 200 c 1,4,5
 112 200 112 200 138 200 c 1,6,7
 138 200 138 200 138 100 c 1,8,9
 138 100 138 100 238 100 c 1,10,11
 238 100 238 100 238 400 c 1,12,13
 238 400 238 400 138 400 c 1,14,15
 138 400 138 400 138 300 c 1,0,1
62 500 m 1,16,17
 62 500 62 500 112 500 c 1,18,19
 112 500 112 500 112 400 c 1,20,21
 112 400 112 400 138 400 c 1,22,23
 138 400 138 400 138 500 c 1,24,25
 138 500 138 500 262 500 c 1,26,27
 262 500 262 500 262 400 c 1,28,29
 262 400 262 400 288 400 c 1,30,31
 288 400 288 400 288 100 c 1,32,33
 288 100 288 100 262 100 c 1,34,35
 262 100 262 100 262 0 c 1,36,37
 262 0 262 0 138 0 c 1,38,39
 138 0 138 0 138 100 c 1,40,41
 138 100 138 100 112 100 c 1,42,43
 112 100 112 100 112 -200 c 1,44,45
 112 -200 112 -200 62 -200 c 1,46,47
 62 -200 62 -200 62 500 c 1,16,17
EndSplineSet
Validated: 5
EndChar

StartChar: q
Encoding: 113 113 84
Width: 300
GlyphClass: 2
Flags: W
LayerCount: 2
Back
Fore
SplineSet
112 400 m 1,0,1
 112 400 112 400 112 100 c 1,2,3
 112 100 112 100 212 100 c 1,4,5
 212 100 212 100 212 200 c 1,6,7
 212 200 212 200 238 200 c 1,8,9
 238 200 238 200 238 300 c 1,10,11
 238 300 238 300 212 300 c 1,12,13
 212 300 212 300 212 400 c 1,14,15
 212 400 212 400 112 400 c 1,0,1
88 500 m 1,16,17
 88 500 88 500 212 500 c 1,18,19
 212 500 212 500 212 400 c 1,20,21
 212 400 212 400 238 400 c 1,22,23
 238 400 238 400 238 500 c 1,24,25
 238 500 238 500 288 500 c 1,26,27
 288 500 288 500 288 -200 c 1,28,29
 288 -200 288 -200 238 -200 c 1,30,31
 238 -200 238 -200 238 100 c 1,32,33
 238 100 238 100 212 100 c 1,34,35
 212 100 212 100 212 0 c 1,36,37
 212 0 212 0 88 0 c 1,38,39
 88 0 88 0 88 100 c 1,40,41
 88 100 88 100 62 100 c 1,42,43
 62 100 62 100 62 400 c 1,44,45
 62 400 62 400 88 400 c 1,46,47
 88 400 88 400 88 500 c 1,16,17
EndSplineSet
Validated: 5
EndChar

StartChar: r
Encoding: 114 114 85
Width: 300
GlyphClass: 2
Flags: W
LayerCount: 2
Back
Fore
SplineSet
62 0 m 1,0,1
 62 0 62 0 62 500 c 1,2,3
 62 500 62 500 112 500 c 1,4,5
 112 500 112 500 112 400 c 1,6,7
 112 400 112 400 162 400 c 1,8,9
 162 400 162 400 162 500 c 1,10,11
 162 500 162 500 288 500 c 1,12,13
 288 500 288 500 288 400 c 1,14,15
 288 400 288 400 162 400 c 1,16,17
 162 400 162 400 162 300 c 1,18,19
 162 300 162 300 112 300 c 1,20,21
 112 300 112 300 112 0 c 1,22,23
 112 0 112 0 62 0 c 1,0,1
EndSplineSet
Validated: 5
EndChar

StartChar: s
Encoding: 115 115 86
Width: 300
GlyphClass: 2
Flags: W
LayerCount: 2
Back
Fore
SplineSet
262 400 m 1,0,1
 262 400 262 400 112 400 c 1,2,3
 112 400 112 400 112 300 c 1,4,5
 112 300 112 300 262 300 c 1,6,7
 262 300 262 300 262 200 c 1,8,9
 262 200 262 200 288 200 c 1,10,11
 288 200 288 200 288 100 c 1,12,13
 288 100 288 100 262 100 c 1,14,15
 262 100 262 100 262 0 c 1,16,17
 262 0 262 0 88 0 c 1,18,19
 88 0 88 0 88 100 c 1,20,21
 88 100 88 100 238 100 c 1,22,23
 238 100 238 100 238 200 c 1,24,25
 238 200 238 200 88 200 c 1,26,27
 88 200 88 200 88 300 c 1,28,29
 88 300 88 300 62 300 c 1,30,31
 62 300 62 300 62 400 c 1,32,33
 62 400 62 400 88 400 c 1,34,35
 88 400 88 400 88 500 c 1,36,37
 88 500 88 500 262 500 c 1,38,39
 262 500 262 500 262 400 c 1,0,1
EndSplineSet
Validated: 1
EndChar

StartChar: t
Encoding: 116 116 87
Width: 300
GlyphClass: 2
Flags: W
LayerCount: 2
Back
Fore
SplineSet
112 700 m 1,0,1
 112 700 112 700 162 700 c 1,2,3
 162 700 162 700 162 500 c 1,4,5
 162 500 162 500 238 500 c 1,6,7
 238 500 238 500 238 400 c 1,8,9
 238 400 238 400 162 400 c 1,10,11
 162 400 162 400 162 100 c 1,12,13
 162 100 162 100 288 100 c 1,14,15
 288 100 288 100 288 0 c 1,16,17
 288 0 288 0 138 0 c 1,18,19
 138 0 138 0 138 100 c 1,20,21
 138 100 138 100 112 100 c 1,22,23
 112 100 112 100 112 400 c 1,24,25
 112 400 112 400 62 400 c 1,26,27
 62 400 62 400 62 500 c 1,28,29
 62 500 62 500 112 500 c 1,30,31
 112 500 112 500 112 700 c 1,0,1
EndSplineSet
Validated: 1
EndChar

StartChar: u
Encoding: 117 117 88
Width: 300
GlyphClass: 2
Flags: W
LayerCount: 2
Back
Fore
SplineSet
62 500 m 1,0,1
 62 500 62 500 112 500 c 1,2,3
 112 500 112 500 112 100 c 1,4,5
 112 100 112 100 212 100 c 1,6,7
 212 100 212 100 212 200 c 1,8,9
 212 200 212 200 238 200 c 1,10,11
 238 200 238 200 238 500 c 1,12,13
 238 500 238 500 288 500 c 1,14,15
 288 500 288 500 288 0 c 1,16,17
 288 0 288 0 238 0 c 1,18,19
 238 0 238 0 238 100 c 1,20,21
 238 100 238 100 212 100 c 1,22,23
 212 100 212 100 212 0 c 1,24,25
 212 0 212 0 88 0 c 1,26,27
 88 0 88 0 88 100 c 1,28,29
 88 100 88 100 62 100 c 1,30,31
 62 100 62 100 62 500 c 1,0,1
EndSplineSet
Validated: 5
EndChar

StartChar: v
Encoding: 118 118 89
Width: 300
GlyphClass: 2
Flags: W
LayerCount: 2
Back
Fore
SplineSet
25 500 m 1,0,1
 25 500 25 500 75 500 c 1,2,3
 75 500 75 500 75 400 c 1,4,5
 75 400 75 400 100 400 c 1,6,7
 100 400 100 400 100 300 c 1,8,9
 100 300 100 300 125 300 c 1,10,11
 125 300 125 300 125 200 c 1,12,13
 125 200 125 200 175 200 c 1,14,15
 175 200 175 200 175 300 c 1,16,17
 175 300 175 300 200 300 c 1,18,19
 200 300 200 300 200 400 c 1,20,21
 200 400 200 400 225 400 c 1,22,23
 225 400 225 400 225 500 c 1,24,25
 225 500 225 500 275 500 c 1,26,27
 275 500 275 500 275 400 c 1,28,29
 275 400 275 400 250 400 c 1,30,31
 250 400 250 400 250 300 c 1,32,33
 250 300 250 300 225 300 c 1,34,35
 225 300 225 300 225 200 c 1,36,37
 225 200 225 200 200 200 c 1,38,39
 200 200 200 200 200 100 c 1,40,41
 200 100 200 100 175 100 c 1,42,43
 175 100 175 100 175 0 c 1,44,45
 175 0 175 0 125 0 c 1,46,47
 125 0 125 0 125 100 c 1,48,49
 125 100 125 100 100 100 c 1,50,51
 100 100 100 100 100 200 c 1,52,53
 100 200 100 200 75 200 c 1,54,55
 75 200 75 200 75 300 c 1,56,57
 75 300 75 300 50 300 c 1,58,59
 50 300 50 300 50 400 c 1,60,61
 50 400 50 400 25 400 c 1,62,63
 25 400 25 400 25 500 c 1,0,1
EndSplineSet
Validated: 1
EndChar

StartChar: w
Encoding: 119 119 90
Width: 300
GlyphClass: 2
Flags: W
LayerCount: 2
Back
Fore
SplineSet
225 500 m 1,0,1
 225 500 225 500 275 500 c 1,2,3
 275 500 275 500 275 200 c 1,4,5
 275 200 275 200 250 200 c 1,6,7
 250 200 250 200 250 100 c 1,8,9
 250 100 250 100 225 100 c 1,10,11
 225 100 225 100 225 0 c 1,12,13
 225 0 225 0 175 0 c 1,14,15
 175 0 175 0 175 100 c 1,16,17
 175 100 175 100 125 100 c 1,18,19
 125 100 125 100 125 0 c 1,20,21
 125 0 125 0 75 0 c 1,22,23
 75 0 75 0 75 100 c 1,24,25
 75 100 75 100 50 100 c 1,26,27
 50 100 50 100 50 200 c 1,28,29
 50 200 50 200 25 200 c 1,30,31
 25 200 25 200 25 500 c 1,32,33
 25 500 25 500 75 500 c 1,34,35
 75 500 75 500 75 200 c 1,36,37
 75 200 75 200 100 200 c 1,38,39
 100 200 100 200 100 100 c 1,40,41
 100 100 100 100 125 100 c 1,42,43
 125 100 125 100 125 400 c 1,44,45
 125 400 125 400 175 400 c 1,46,47
 175 400 175 400 175 100 c 1,48,49
 175 100 175 100 200 100 c 1,50,51
 200 100 200 100 200 200 c 1,52,53
 200 200 200 200 225 200 c 1,54,55
 225 200 225 200 225 500 c 1,0,1
EndSplineSet
Validated: 5
EndChar

StartChar: x
Encoding: 120 120 91
Width: 300
GlyphClass: 2
Flags: W
LayerCount: 2
Back
Fore
SplineSet
25 500 m 1,0,1
 25 500 25 500 100 500 c 1,2,3
 100 500 100 500 100 400 c 1,4,5
 100 400 100 400 125 400 c 1,6,7
 125 400 125 400 125 300 c 1,8,9
 125 300 125 300 175 300 c 1,10,11
 175 300 175 300 175 400 c 1,12,13
 175 400 175 400 200 400 c 1,14,15
 200 400 200 400 200 500 c 1,16,17
 200 500 200 500 275 500 c 1,18,19
 275 500 275 500 275 400 c 1,20,21
 275 400 275 400 225 400 c 1,22,23
 225 400 225 400 225 300 c 1,24,25
 225 300 225 300 200 300 c 1,26,27
 200 300 200 300 200 200 c 1,28,29
 200 200 200 200 225 200 c 1,30,31
 225 200 225 200 225 100 c 1,32,33
 225 100 225 100 275 100 c 1,34,35
 275 100 275 100 275 0 c 1,36,37
 275 0 275 0 200 0 c 1,38,39
 200 0 200 0 200 100 c 1,40,41
 200 100 200 100 175 100 c 1,42,43
 175 100 175 100 175 200 c 1,44,45
 175 200 175 200 125 200 c 1,46,47
 125 200 125 200 125 100 c 1,48,49
 125 100 125 100 100 100 c 1,50,51
 100 100 100 100 100 0 c 1,52,53
 100 0 100 0 25 0 c 1,54,55
 25 0 25 0 25 100 c 1,56,57
 25 100 25 100 75 100 c 1,58,59
 75 100 75 100 75 200 c 1,60,61
 75 200 75 200 100 200 c 1,62,63
 100 200 100 200 100 300 c 1,64,65
 100 300 100 300 75 300 c 1,66,67
 75 300 75 300 75 400 c 1,68,69
 75 400 75 400 25 400 c 1,70,71
 25 400 25 400 25 500 c 1,0,1
EndSplineSet
Validated: 1
EndChar

StartChar: y
Encoding: 121 121 92
Width: 300
GlyphClass: 2
Flags: W
LayerCount: 2
Back
Fore
SplineSet
62 500 m 1,0,1
 62 500 62 500 112 500 c 1,2,3
 112 500 112 500 112 400 c 1,4,5
 112 400 112 400 138 400 c 1,6,7
 138 400 138 400 138 300 c 1,8,9
 138 300 138 300 162 300 c 1,10,11
 162 300 162 300 162 200 c 1,12,13
 162 200 162 200 188 200 c 1,14,15
 188 200 188 200 188 300 c 1,16,17
 188 300 188 300 212 300 c 1,18,19
 212 300 212 300 212 400 c 1,20,21
 212 400 212 400 238 400 c 1,22,23
 238 400 238 400 238 500 c 1,24,25
 238 500 238 500 288 500 c 1,26,27
 288 500 288 500 288 400 c 1,28,29
 288 400 288 400 262 400 c 1,30,31
 262 400 262 400 262 300 c 1,32,33
 262 300 262 300 238 300 c 1,34,35
 238 300 238 300 238 200 c 1,36,37
 238 200 238 200 212 200 c 1,38,39
 212 200 212 200 212 100 c 1,40,41
 212 100 212 100 188 100 c 1,42,43
 188 100 188 100 188 0 c 1,44,45
 188 0 188 0 162 0 c 1,46,47
 162 0 162 0 162 -100 c 1,48,49
 162 -100 162 -100 138 -100 c 1,50,51
 138 -100 138 -100 138 -200 c 1,52,53
 138 -200 138 -200 62 -200 c 1,54,55
 62 -200 62 -200 62 -100 c 1,56,57
 62 -100 62 -100 112 -100 c 1,58,59
 112 -100 112 -100 112 0 c 1,60,61
 112 0 112 0 138 0 c 1,62,63
 138 0 138 0 138 200 c 1,64,65
 138 200 138 200 112 200 c 1,66,67
 112 200 112 200 112 300 c 1,68,69
 112 300 112 300 88 300 c 1,70,71
 88 300 88 300 88 400 c 1,72,73
 88 400 88 400 62 400 c 1,74,75
 62 400 62 400 62 500 c 1,0,1
EndSplineSet
Validated: 1
EndChar

StartChar: z
Encoding: 122 122 93
Width: 300
GlyphClass: 2
Flags: W
LayerCount: 2
Back
Fore
SplineSet
50 500 m 1,0,1
 50 500 50 500 250 500 c 1,2,3
 250 500 250 500 250 400 c 1,4,5
 250 400 250 400 200 400 c 1,6,7
 200 400 200 400 200 300 c 1,8,9
 200 300 200 300 175 300 c 1,10,11
 175 300 175 300 175 200 c 1,12,13
 175 200 175 200 150 200 c 1,14,15
 150 200 150 200 150 100 c 1,16,17
 150 100 150 100 250 100 c 1,18,19
 250 100 250 100 250 0 c 1,20,21
 250 0 250 0 50 0 c 1,22,23
 50 0 50 0 50 100 c 1,24,25
 50 100 50 100 100 100 c 1,26,27
 100 100 100 100 100 200 c 1,28,29
 100 200 100 200 125 200 c 1,30,31
 125 200 125 200 125 300 c 1,32,33
 125 300 125 300 150 300 c 1,34,35
 150 300 150 300 150 400 c 1,36,37
 150 400 150 400 50 400 c 1,38,39
 50 400 50 400 50 500 c 1,0,1
EndSplineSet
Validated: 1
EndChar

StartChar: braceleft
Encoding: 123 123 94
Width: 300
GlyphClass: 2
Flags: W
LayerCount: 2
Back
Fore
SplineSet
225 700 m 1,0,1
 225 700 225 700 225 600 c 1,2,3
 225 600 225 600 175 600 c 1,4,5
 175 600 175 600 175 400 c 1,6,7
 175 400 175 400 150 400 c 1,8,9
 150 400 150 400 150 300 c 1,10,11
 150 300 150 300 175 300 c 1,12,13
 175 300 175 300 175 100 c 1,14,15
 175 100 175 100 225 100 c 1,16,17
 225 100 225 100 225 0 c 1,18,19
 225 0 225 0 150 0 c 1,20,21
 150 0 150 0 150 100 c 1,22,23
 150 100 150 100 125 100 c 1,24,25
 125 100 125 100 125 300 c 1,26,27
 125 300 125 300 75 300 c 1,28,29
 75 300 75 300 75 400 c 1,30,31
 75 400 75 400 125 400 c 1,32,33
 125 400 125 400 125 600 c 1,34,35
 125 600 125 600 150 600 c 1,36,37
 150 600 150 600 150 700 c 1,38,39
 150 700 150 700 225 700 c 1,0,1
EndSplineSet
Validated: 1
EndChar

StartChar: bar
Encoding: 124 124 95
Width: 300
GlyphClass: 2
Flags: W
LayerCount: 2
Back
Fore
SplineSet
125 700 m 1,0,1
 125 700 125 700 175 700 c 1,2,3
 175 700 175 700 175 0 c 1,4,5
 175 0 175 0 125 0 c 1,6,7
 125 0 125 0 125 700 c 1,0,1
EndSplineSet
Validated: 1
EndChar

StartChar: braceright
Encoding: 125 125 96
Width: 300
GlyphClass: 2
Flags: W
LayerCount: 2
Back
Fore
SplineSet
75 700 m 1,0,1
 75 700 75 700 150 700 c 1,2,3
 150 700 150 700 150 600 c 1,4,5
 150 600 150 600 175 600 c 1,6,7
 175 600 175 600 175 400 c 1,8,9
 175 400 175 400 225 400 c 1,10,11
 225 400 225 400 225 300 c 1,12,13
 225 300 225 300 175 300 c 1,14,15
 175 300 175 300 175 100 c 1,16,17
 175 100 175 100 150 100 c 1,18,19
 150 100 150 100 150 0 c 1,20,21
 150 0 150 0 75 0 c 1,22,23
 75 0 75 0 75 100 c 1,24,25
 75 100 75 100 125 100 c 1,26,27
 125 100 125 100 125 300 c 1,28,29
 125 300 125 300 150 300 c 1,30,31
 150 300 150 300 150 400 c 1,32,33
 150 400 150 400 125 400 c 1,34,35
 125 400 125 400 125 600 c 1,36,37
 125 600 125 600 75 600 c 1,38,39
 75 600 75 600 75 700 c 1,0,1
EndSplineSet
Validated: 1
EndChar

StartChar: asciitilde
Encoding: 126 126 97
Width: 300
GlyphClass: 2
Flags: W
LayerCount: 2
Back
Fore
SplineSet
62 600 m 1,0,1
 62 600 62 600 88 600 c 1,2,3
 88 600 88 600 88 700 c 1,4,5
 88 700 88 700 188 700 c 1,6,7
 188 700 188 700 188 600 c 1,8,9
 188 600 188 600 238 600 c 1,10,11
 238 600 238 600 238 700 c 1,12,13
 238 700 238 700 288 700 c 1,14,15
 288 700 288 700 288 600 c 1,16,17
 288 600 288 600 262 600 c 1,18,19
 262 600 262 600 262 500 c 1,20,21
 262 500 262 500 162 500 c 1,22,23
 162 500 162 500 162 600 c 1,24,25
 162 600 162 600 112 600 c 1,26,27
 112 600 112 600 112 500 c 1,28,29
 104 500 104 500 87 500.5 c 128,-1,30
 70 501 70 501 62 501 c 1,31,32
 62 501 62 501 62 600 c 1,0,1
EndSplineSet
Validated: 1
EndChar

StartChar: exclamdown
Encoding: 161 161 111
Width: 300
GlyphClass: 2
Flags: W
LayerCount: 2
Back
Fore
SplineSet
125 500 m 1,0,1
 125 500 125 500 175 500 c 1,2,3
 175 500 175 500 175 0 c 1,4,5
 175 0 175 0 125 0 c 1,6,7
 125 0 125 0 125 500 c 1,0,1
175 600 m 1,8,9
 175 600 175 600 125 600 c 1,10,11
 125 600 125 600 125 700 c 1,12,13
 125 700 125 700 175 700 c 1,14,15
 175 700 175 700 175 600 c 1,8,9
EndSplineSet
Validated: 1
EndChar

StartChar: cent
Encoding: 162 162 112
Width: 300
GlyphClass: 2
Flags: W
LayerCount: 2
Back
Fore
SplineSet
112 500 m 1,0,1
 112 500 112 500 288 500 c 1,2,3
 288 500 288 500 288 400 c 1,4,5
 288 400 288 400 138 400 c 1,6,7
 138 400 138 400 138 300 c 1,8,9
 138 300 138 300 112 300 c 1,10,11
 112 300 112 300 112 200 c 1,12,13
 112 200 112 200 138 200 c 1,14,15
 138 200 138 200 138 100 c 1,16,17
 138 100 138 100 288 100 c 1,18,19
 288 100 288 100 288 0 c 1,20,21
 288 0 288 0 112 0 c 1,22,23
 112 0 112 0 112 100 c 1,24,25
 112 100 112 100 88 100 c 1,26,27
 88 100 88 100 88 200 c 1,28,29
 88 200 88 200 62 200 c 1,30,31
 62 200 62 200 62 300 c 1,32,33
 62 300 62 300 88 300 c 1,34,35
 88 300 88 300 88 400 c 1,36,37
 88 400 88 400 112 400 c 1,38,39
 112 400 112 400 112 500 c 1,0,1
EndSplineSet
Validated: 1
EndChar

StartChar: sterling
Encoding: 163 163 113
Width: 300
GlyphClass: 2
Flags: W
LayerCount: 2
Back
Fore
SplineSet
62 0 m 1,0,1
 62 0 62 0 62 100 c 1,2,3
 62 100 62 100 88 100 c 1,4,5
 88 100 88 100 88 200 c 1,6,7
 88 200 88 200 112 200 c 1,8,9
 112 200 112 200 112 300 c 1,10,11
 112 300 112 300 62 300 c 1,12,13
 62 300 62 300 62 400 c 1,14,15
 62 400 62 400 112 400 c 1,16,17
 112 400 112 400 112 600 c 1,18,19
 112 600 112 600 138 600 c 1,20,21
 138 600 138 600 138 700 c 1,22,23
 138 700 138 700 238 700 c 1,24,25
 238 700 238 700 238 600 c 1,26,27
 238 600 238 600 262 600 c 1,28,29
 262 600 262 600 262 500 c 1,30,31
 262 500 262 500 212 500 c 1,32,33
 212 500 212 500 212 600 c 1,34,35
 212 600 212 600 162 600 c 1,36,37
 162 600 162 600 162 400 c 1,38,39
 162 400 162 400 212 400 c 1,40,41
 212 400 212 400 212 300 c 1,42,43
 212 300 212 300 162 300 c 1,44,45
 162 300 162 300 162 200 c 1,46,47
 162 200 162 200 138 200 c 1,48,49
 138 200 138 200 138 100 c 1,50,51
 138 100 138 100 288 100 c 1,52,53
 288 100 288 100 288 0 c 1,54,55
 288 0 288 0 62 0 c 1,0,1
EndSplineSet
Validated: 1
EndChar

StartChar: currency
Encoding: 164 164 114
Width: 300
GlyphClass: 2
Flags: W
LayerCount: 2
Back
Fore
SplineSet
100 300 m 1,0,1
 100 300 100 300 200 300 c 1,2,3
 200 300 200 300 200 500 c 1,4,5
 200 500 200 500 100 500 c 1,6,7
 100 500 100 500 100 300 c 1,0,1
0 700 m 1,8,9
 0 700 0 700 0 800 c 1,10,11
 0 800 0 800 50 800 c 1,12,13
 50 800 50 800 50 700 c 1,14,15
 50 700 50 700 75 700 c 1,16,17
 75 700 75 700 75 600 c 1,18,19
 75 600 75 600 225 600 c 1,20,21
 225 600 225 600 225 700 c 1,22,23
 225 700 225 700 250 700 c 1,24,25
 250 700 250 700 250 800 c 1,26,27
 250 800 250 800 300 800 c 1,28,29
 300 800 300 800 300 700 c 1,30,31
 300 700 300 700 275 700 c 1,32,33
 275 700 275 700 275 600 c 1,34,35
 275 600 275 600 250 600 c 1,36,37
 250 600 250 600 250 200 c 1,38,39
 250 200 250 200 275 200 c 1,40,41
 275 200 275 200 275 100 c 1,42,43
 275 100 275 100 300 100 c 1,44,45
 300 100 300 100 300 0 c 1,46,47
 300 0 300 0 250 0 c 1,48,49
 250 0 250 0 250 100 c 1,50,51
 250 100 250 100 225 100 c 1,52,53
 225 100 225 100 225 200 c 1,54,55
 225 200 225 200 75 200 c 1,56,57
 75 200 75 200 75 100 c 1,58,59
 75 100 75 100 50 100 c 1,60,61
 50 100 50 100 50 0 c 1,62,63
 50 0 50 0 0 0 c 1,64,65
 0 0 0 0 0 100 c 1,66,67
 0 100 0 100 25 100 c 1,68,69
 25 100 25 100 25 200 c 1,70,71
 25 200 25 200 50 200 c 1,72,73
 50 200 50 200 50 600 c 1,74,75
 50 600 50 600 25 600 c 1,76,77
 25 600 25 600 25 700 c 1,78,79
 25 700 25 700 0 700 c 1,8,9
EndSplineSet
Validated: 1
EndChar

StartChar: yen
Encoding: 165 165 115
Width: 300
GlyphClass: 2
Flags: W
LayerCount: 2
Back
Fore
SplineSet
50 600 m 1,0,1
 50 600 50 600 50 700 c 1,2,3
 50 700 50 700 100 700 c 1,4,5
 100 700 100 700 100 600 c 1,6,7
 100 600 100 600 125 600 c 1,8,9
 125 600 125 600 125 500 c 1,10,11
 125 500 125 500 175 500 c 1,12,13
 175 500 175 500 175 600 c 1,14,15
 175 600 175 600 200 600 c 1,16,17
 200 600 200 600 200 700 c 1,18,19
 200 700 200 700 250 700 c 1,20,21
 250 700 250 700 250 600 c 1,22,23
 250 600 250 600 225 600 c 1,24,25
 225 600 225 600 225 500 c 1,26,27
 225 500 225 500 200 500 c 1,28,29
 200 500 200 500 200 400 c 1,30,31
 200 400 200 400 175 400 c 1,32,33
 175 400 175 400 175 300 c 1,34,35
 175 300 175 300 275 300 c 1,36,37
 275 300 275 300 275 200 c 1,38,39
 275 200 275 200 175 200 c 1,40,41
 175 200 175 200 175 0 c 1,42,43
 175 0 175 0 125 0 c 1,44,45
 125 0 125 0 125 200 c 1,46,47
 125 200 125 200 25 200 c 1,48,49
 25 200 25 200 25 300 c 1,50,51
 25 300 25 300 125 300 c 1,52,53
 125 300 125 300 125 400 c 1,54,55
 125 400 125 400 100 400 c 1,56,57
 100 400 100 400 100 500 c 1,58,59
 100 500 100 500 75 500 c 1,60,61
 75 500 75 500 75 600 c 1,62,63
 75 600 75 600 50 600 c 1,0,1
EndSplineSet
Validated: 1
EndChar

StartChar: brokenbar
Encoding: 166 166 116
Width: 300
GlyphClass: 2
Flags: W
LayerCount: 2
Back
Fore
SplineSet
125 700 m 1,0,1
 125 700 125 700 175 700 c 1,2,3
 175 700 175 700 175 0 c 1,4,5
 175 0 175 0 125 0 c 1,6,7
 125 0 125 0 125 700 c 1,0,1
EndSplineSet
Validated: 1
EndChar

StartChar: section
Encoding: 167 167 117
Width: 300
GlyphClass: 2
Flags: W
LayerCount: 2
Back
Fore
SplineSet
175 400 m 1,0,1
 175 400 175 400 125 400 c 1,2,3
 125 400 125 400 125 300 c 1,4,5
 125 300 125 300 175 300 c 1,6,7
 175 300 175 300 175 400 c 1,0,1
225 500 m 1,8,9
 225 500 225 500 225 600 c 1,10,11
 225 600 225 600 150 600 c 1,12,13
 150 600 150 600 150 500 c 1,14,15
 150 500 150 500 200 500 c 1,16,17
 200 500 200 500 200 400 c 1,18,19
 200 400 200 400 225 400 c 1,20,21
 225 400 225 400 225 300 c 1,22,23
 225 300 225 300 200 300 c 1,24,25
 200 300 200 300 200 100 c 1,26,27
 200 100 200 100 175 100 c 1,28,29
 175 100 175 100 175 0 c 1,30,31
 175 0 175 0 50 0 c 1,32,33
 50 0 50 0 50 100 c 1,34,35
 50 100 50 100 25 100 c 1,36,37
 25 100 25 100 25 200 c 1,38,39
 25 200 25 200 75 200 c 1,40,41
 75 200 75 200 75 100 c 1,42,43
 75 100 75 100 150 100 c 1,44,45
 150 100 150 100 150 200 c 1,46,47
 150 200 150 200 100 200 c 1,48,49
 100 200 100 200 100 300 c 1,50,51
 100 300 100 300 75 300 c 1,52,53
 75 300 75 300 75 400 c 1,54,55
 75 400 75 400 100 400 c 1,56,57
 100 400 100 400 100 600 c 1,58,59
 100 600 100 600 125 600 c 1,60,61
 125 600 125 600 125 700 c 1,62,63
 125 700 125 700 250 700 c 1,64,65
 250 700 250 700 250 600 c 1,66,67
 250 600 250 600 275 600 c 1,68,69
 275 600 275 600 275 500 c 1,70,71
 275 500 275 500 225 500 c 1,8,9
EndSplineSet
Validated: 1
EndChar

StartChar: copyright
Encoding: 169 169 118
Width: 300
GlyphClass: 2
Flags: W
LayerCount: 2
Back
Fore
SplineSet
100 400 m 1,0,1
 100 400 100 400 100 500 c 1,2,3
 100 500 100 500 200 500 c 1,4,5
 200 500 200 500 200 400 c 1,6,7
 200 400 200 400 125 400 c 1,8,9
 125 400 125 400 125 300 c 1,10,11
 125 300 125 300 200 300 c 1,12,13
 200 300 200 300 200 200 c 1,14,15
 200 200 200 200 100 200 c 1,16,17
 100 200 100 200 100 300 c 1,18,19
 100 300 100 300 75 300 c 1,20,21
 75 300 75 300 75 400 c 1,22,23
 75 400 75 400 100 400 c 1,0,1
75 500 m 1,24,25
 75 500 75 500 50 500 c 1,26,27
 50 500 50 500 50 200 c 1,28,29
 50 200 50 200 75 200 c 1,30,31
 75 200 75 200 75 100 c 1,32,33
 75 100 75 100 225 100 c 1,34,35
 225 100 225 100 225 200 c 1,36,37
 225 200 225 200 250 200 c 1,38,39
 250 200 250 200 250 500 c 1,40,41
 250 500 250 500 225 500 c 1,42,43
 225 500 225 500 225 600 c 1,44,45
 225 600 225 600 75 600 c 1,46,47
 75 600 75 600 75 500 c 1,24,25
50 600 m 1,48,49
 50 600 50 600 50 700 c 1,50,51
 50 700 50 700 250 700 c 1,52,53
 250 700 250 700 250 600 c 1,54,55
 250 600 250 600 275 600 c 1,56,57
 275 600 275 600 275 500 c 1,58,59
 275 500 275 500 300 500 c 1,60,61
 300 500 300 500 300 200 c 1,62,63
 300 200 300 200 275 200 c 1,64,65
 275 200 275 200 275 100 c 1,66,67
 275 100 275 100 250 100 c 1,68,69
 250 100 250 100 250 0 c 1,70,71
 250 0 250 0 50 0 c 1,72,73
 50 0 50 0 50 100 c 1,74,75
 50 100 50 100 25 100 c 1,76,77
 25 100 25 100 25 200 c 1,78,79
 25 200 25 200 0 200 c 1,80,81
 0 200 0 200 0 500 c 1,82,83
 0 500 0 500 25 500 c 1,84,85
 25 500 25 500 25 600 c 1,86,87
 25 600 25 600 50 600 c 1,48,49
EndSplineSet
Validated: 1
EndChar

StartChar: guillemotleft
Encoding: 171 171 120
Width: 300
GlyphClass: 2
Flags: W
LayerCount: 2
Back
Fore
SplineSet
225 0 m 1,0,1
 225 0 225 0 225 100 c 1,2,3
 225 100 225 100 175 100 c 1,4,5
 175 100 175 100 175 200 c 1,6,7
 175 200 175 200 150 200 c 1,8,9
 150 200 150 200 150 300 c 1,10,11
 150 300 150 300 175 300 c 1,12,13
 175 300 175 300 175 400 c 1,14,15
 175 400 175 400 225 400 c 1,16,17
 225 400 225 400 225 500 c 1,18,19
 225 500 225 500 300 500 c 1,20,21
 300 500 300 500 300 400 c 1,22,23
 300 400 300 400 250 400 c 1,24,25
 250 400 250 400 250 300 c 1,26,27
 250 300 250 300 200 300 c 1,28,29
 200 300 200 300 200 200 c 1,30,31
 200 200 200 200 250 200 c 1,32,33
 250 200 250 200 250 100 c 1,34,35
 250 100 250 100 300 100 c 1,36,37
 300 100 300 100 300 0 c 1,38,39
 300 0 300 0 225 0 c 1,0,1
150 0 m 1,40,41
 150 0 150 0 75 0 c 1,42,43
 75 0 75 0 75 100 c 1,44,45
 75 100 75 100 25 100 c 1,46,47
 25 100 25 100 25 200 c 1,48,49
 25 200 25 200 0 200 c 1,50,51
 0 200 0 200 0 300 c 1,52,53
 0 300 0 300 25 300 c 1,54,55
 25 300 25 300 25 400 c 1,56,57
 25 400 25 400 75 400 c 1,58,59
 75 400 75 400 75 500 c 1,60,61
 75 500 75 500 150 500 c 1,62,63
 150 500 150 500 150 400 c 1,64,65
 150 400 150 400 100 400 c 1,66,67
 100 400 100 400 100 300 c 1,68,69
 100 300 100 300 50 300 c 1,70,71
 50 300 50 300 50 200 c 1,72,73
 50 200 50 200 100 200 c 1,74,75
 100 200 100 200 100 100 c 1,76,77
 100 100 100 100 150 100 c 1,78,79
 150 100 150 100 150 0 c 1,40,41
EndSplineSet
Validated: 1
EndChar

StartChar: logicalnot
Encoding: 172 172 121
Width: 300
GlyphClass: 2
Flags: W
LayerCount: 2
Back
Fore
SplineSet
25 -100 m 1,0,1
 25 -100 25 -100 25 0 c 1,2,3
 25 0 25 0 275 0 c 1,4,5
 275 0 275 0 275 -100 c 1,6,7
 275 -100 275 -100 25 -100 c 1,0,1
EndSplineSet
Validated: 1
EndChar

StartChar: registered
Encoding: 174 174 123
Width: 300
GlyphClass: 2
Flags: W
LayerCount: 2
Back
Fore
SplineSet
100 200 m 1,0,1
 100 200 100 200 100 500 c 1,2,3
 100 500 100 500 200 500 c 1,4,5
 200 500 200 500 200 400 c 1,6,7
 200 400 200 400 175 400 c 1,8,9
 175 400 175 400 175 300 c 1,10,11
 175 300 175 300 225 300 c 1,12,13
 225 300 225 300 225 200 c 1,14,15
 225 200 225 200 175 200 c 1,16,17
 175 200 175 200 175 300 c 1,18,19
 175 300 175 300 150 300 c 1,20,21
 150 300 150 300 150 200 c 1,22,23
 150 200 150 200 100 200 c 1,0,1
75 500 m 1,24,25
 75 500 75 500 50 500 c 1,26,27
 50 500 50 500 50 200 c 1,28,29
 50 200 50 200 75 200 c 1,30,31
 75 200 75 200 75 100 c 1,32,33
 75 100 75 100 225 100 c 1,34,35
 225 100 225 100 225 200 c 1,36,37
 225 200 225 200 250 200 c 1,38,39
 250 200 250 200 250 500 c 1,40,41
 250 500 250 500 225 500 c 1,42,43
 225 500 225 500 225 600 c 1,44,45
 225 600 225 600 75 600 c 1,46,47
 75 600 75 600 75 500 c 1,24,25
50 600 m 1,48,49
 50 600 50 600 50 700 c 1,50,51
 50 700 50 700 250 700 c 1,52,53
 250 700 250 700 250 600 c 1,54,55
 250 600 250 600 275 600 c 1,56,57
 275 600 275 600 275 500 c 1,58,59
 275 500 275 500 300 500 c 1,60,61
 300 500 300 500 300 200 c 1,62,63
 300 200 300 200 275 200 c 1,64,65
 275 200 275 200 275 100 c 1,66,67
 275 100 275 100 250 100 c 1,68,69
 250 100 250 100 250 0 c 1,70,71
 250 0 250 0 50 0 c 1,72,73
 50 0 50 0 50 100 c 1,74,75
 50 100 50 100 25 100 c 1,76,77
 25 100 25 100 25 200 c 1,78,79
 25 200 25 200 0 200 c 1,80,81
 0 200 0 200 0 500 c 1,82,83
 0 500 0 500 25 500 c 1,84,85
 25 500 25 500 25 600 c 1,86,87
 25 600 25 600 50 600 c 1,48,49
EndSplineSet
Validated: 5
EndChar

StartChar: degree
Encoding: 176 176 124
Width: 300
GlyphClass: 2
Flags: W
LayerCount: 2
Back
Fore
SplineSet
125 600 m 1,0,1
 125 600 125 600 125 500 c 1,2,3
 125 500 125 500 175 500 c 1,4,5
 175 500 175 500 175 600 c 1,6,7
 175 600 175 600 125 600 c 1,0,1
100 600 m 1,8,9
 100 600 100 600 100 700 c 1,10,11
 100 700 100 700 200 700 c 1,12,13
 200 700 200 700 200 600 c 1,14,15
 200 600 200 600 225 600 c 1,16,17
 225 600 225 600 225 500 c 1,18,19
 225 500 225 500 200 500 c 1,20,21
 200 500 200 500 200 400 c 1,22,23
 200 400 200 400 100 400 c 1,24,25
 100 400 100 400 100 500 c 1,26,27
 100 500 100 500 75 500 c 1,28,29
 75 500 75 500 75 600 c 1,30,31
 75 600 75 600 100 600 c 1,8,9
EndSplineSet
Validated: 1
EndChar

StartChar: plusminus
Encoding: 177 177 125
Width: 300
GlyphClass: 2
Flags: W
LayerCount: 2
Back
Fore
SplineSet
50 200 m 1,0,1
 50 200 50 200 250 200 c 1,2,3
 250 200 250 200 250 101 c 1,4,5
 216 101 216 101 150 100.5 c 128,-1,6
 84 100 84 100 50 100 c 1,7,8
 50 100 50 100 50 200 c 1,0,1
50 550 m 1,9,10
 50 550 50 550 125 550 c 1,11,12
 125 550 125 550 125 700 c 1,13,14
 125 700 125 700 175 700 c 1,15,16
 175 700 175 700 175 550 c 1,17,18
 188 550 188 550 213 550.5 c 128,-1,19
 238 551 238 551 250 551 c 1,20,21
 250 551 250 551 250 450 c 1,22,23
 250 450 250 450 175 450 c 1,24,25
 175 450 175 450 175 300 c 1,26,27
 175 300 175 300 125 300 c 1,28,29
 125 300 125 300 125 451 c 1,30,31
 125 451 125 451 50 451 c 1,32,33
 50 451 50 451 50 550 c 1,9,10
EndSplineSet
Validated: 1
EndChar

StartChar: uni00B2
Encoding: 178 178 126
Width: 300
GlyphClass: 2
Flags: W
LayerCount: 2
Back
Fore
SplineSet
100 700 m 1,0,1
 100 700 100 700 100 800 c 1,2,3
 100 800 100 800 200 800 c 1,4,5
 200 800 200 800 200 700 c 1,6,7
 200 700 200 700 225 700 c 1,8,9
 225 700 225 700 225 600 c 1,10,11
 225 600 225 600 200 600 c 1,12,13
 200 600 200 600 200 500 c 1,14,15
 200 500 200 500 150 500 c 1,16,17
 150 500 150 500 150 400 c 1,18,19
 150 400 150 400 225 400 c 1,20,21
 225 400 225 400 225 300 c 1,22,23
 225 300 225 300 75 300 c 1,24,25
 75 300 75 300 75 400 c 1,26,27
 75 400 75 400 100 400 c 1,28,29
 100 400 100 400 100 500 c 1,30,31
 100 500 100 500 150 500 c 1,32,33
 150 500 150 500 150 600 c 1,34,35
 150 600 150 600 175 600 c 1,36,37
 175 600 175 600 175 700 c 1,38,39
 175 700 175 700 125 700 c 1,40,41
 125 700 125 700 125 600 c 1,42,43
 125 600 125 600 75 600 c 1,44,45
 75 600 75 600 75 700 c 1,46,47
 75 700 75 700 100 700 c 1,0,1
EndSplineSet
Validated: 5
EndChar

StartChar: uni00B3
Encoding: 179 179 127
Width: 300
GlyphClass: 2
Flags: W
LayerCount: 2
Back
Fore
SplineSet
75 700 m 1,0,1
 75 700 75 700 75 800 c 1,2,3
 75 800 75 800 225 800 c 1,4,5
 225 800 225 800 225 600 c 1,6,7
 225 600 225 600 200 600 c 1,8,9
 200 600 200 600 200 500 c 1,10,11
 200 500 200 500 225 500 c 1,12,13
 225 500 225 500 225 400 c 1,14,15
 225 400 225 400 200 400 c 1,16,17
 200 400 200 400 200 300 c 1,18,19
 200 300 200 300 75 300 c 1,20,21
 75 300 75 300 75 400 c 1,22,23
 75 400 75 400 175 400 c 1,24,25
 175 400 175 400 175 500 c 1,26,27
 175 500 175 500 125 500 c 1,28,29
 125 500 125 500 125 600 c 1,30,31
 125 600 125 600 175 600 c 1,32,33
 175 600 175 600 175 700 c 1,34,35
 175 700 175 700 75 700 c 1,0,1
EndSplineSet
Validated: 1
EndChar

StartChar: acute
Encoding: 180 180 128
Width: 300
GlyphClass: 2
Flags: W
LayerCount: 2
Back
Fore
SplineSet
100 600 m 1,0,1
 100 600 100 600 100 700 c 1,2,3
 100 700 100 700 150 700 c 1,4,5
 150 700 150 700 150 600 c 1,6,7
 150 600 150 600 125 600 c 1,8,9
 125 600 125 600 125 500 c 1,10,11
 125 500 125 500 100 500 c 1,12,13
 100 500 100 500 100 400 c 1,14,15
 100 400 100 400 50 400 c 1,16,17
 50 400 50 400 50 500 c 1,18,19
 50 500 50 500 75 500 c 1,20,21
 75 500 75 500 75 600 c 1,22,23
 75 600 75 600 100 600 c 1,0,1
EndSplineSet
Validated: 1
EndChar

StartChar: mu
Encoding: 181 181 129
Width: 300
GlyphClass: 2
Flags: W
LayerCount: 2
Back
Fore
SplineSet
62 -200 m 1,0,1
 62 -200 62 -200 62 500 c 1,2,3
 62 500 62 500 112 500 c 1,4,5
 112 500 112 500 112 200 c 1,6,7
 112 200 112 200 138 200 c 1,8,9
 138 200 138 200 138 100 c 1,10,11
 138 100 138 100 212 100 c 1,12,13
 212 100 212 100 212 200 c 1,14,15
 212 200 212 200 238 200 c 1,16,17
 238 200 238 200 238 500 c 1,18,19
 238 500 238 500 288 500 c 1,20,21
 288 500 288 500 288 0 c 1,22,23
 288 0 288 0 238 0 c 1,24,25
 238 0 238 0 238 100 c 1,26,27
 238 100 238 100 212 100 c 1,28,29
 212 100 212 100 212 0 c 1,30,31
 212 0 212 0 138 0 c 1,32,33
 138 0 138 0 138 100 c 1,34,35
 138 100 138 100 112 100 c 1,36,37
 112 100 112 100 112 -200 c 1,38,39
 112 -200 112 -200 62 -200 c 1,0,1
EndSplineSet
Validated: 5
EndChar

StartChar: periodcentered
Encoding: 183 183 131
Width: 300
GlyphClass: 2
Flags: W
LayerCount: 2
Back
Fore
SplineSet
100 600 m 1,0,1
 100 600 100 600 100 700 c 1,2,3
 100 700 100 700 150 700 c 1,4,5
 150 700 150 700 150 600 c 1,6,7
 150 600 150 600 125 600 c 1,8,9
 125 600 125 600 125 500 c 1,10,11
 125 500 125 500 100 500 c 1,12,13
 100 500 100 500 100 400 c 1,14,15
 100 400 100 400 50 400 c 1,16,17
 50 400 50 400 50 500 c 1,18,19
 50 500 50 500 75 500 c 1,20,21
 75 500 75 500 75 600 c 1,22,23
 75 600 75 600 100 600 c 1,0,1
EndSplineSet
Validated: 1
EndChar

StartChar: uni00B9
Encoding: 185 185 132
Width: 300
GlyphClass: 2
Flags: W
LayerCount: 2
Back
Fore
SplineSet
162 700 m 1,0,1
 162 700 162 700 162 800 c 1,2,3
 162 800 162 800 212 800 c 1,4,5
 212 800 212 800 212 400 c 1,6,7
 212 400 212 400 162 400 c 1,8,9
 162 400 162 400 162 600 c 1,10,11
 162 600 162 600 138 600 c 1,12,13
 138 600 138 600 138 700 c 1,14,15
 138 700 138 700 162 700 c 1,0,1
EndSplineSet
Validated: 1
EndChar

StartChar: guillemotright
Encoding: 187 187 133
Width: 300
GlyphClass: 2
Flags: W
LayerCount: 2
Back
Fore
SplineSet
150 400 m 1,0,1
 150 400 150 400 150 500 c 1,2,3
 150 500 150 500 225 500 c 1,4,5
 225 500 225 500 225 400 c 1,6,7
 225 400 225 400 275 400 c 1,8,9
 275 400 275 400 275 300 c 1,10,11
 275 300 275 300 300 300 c 1,12,13
 300 300 300 300 300 200 c 1,14,15
 300 200 300 200 275 200 c 1,16,17
 275 200 275 200 275 100 c 1,18,19
 275 100 275 100 225 100 c 1,20,21
 225 100 225 100 225 0 c 1,22,23
 225 0 225 0 150 0 c 1,24,25
 150 0 150 0 150 100 c 1,26,27
 150 100 150 100 200 100 c 1,28,29
 200 100 200 100 200 200 c 1,30,31
 200 200 200 200 225 200 c 1,32,33
 225 200 225 200 225 300 c 1,34,35
 225 300 225 300 200 300 c 1,36,37
 200 300 200 300 200 400 c 1,38,39
 200 400 200 400 150 400 c 1,0,1
0 400 m 1,40,41
 0 400 0 400 0 500 c 1,42,43
 0 500 0 500 75 500 c 1,44,45
 75 500 75 500 75 400 c 1,46,47
 75 400 75 400 125 400 c 1,48,49
 125 400 125 400 125 300 c 1,50,51
 125 300 125 300 150 300 c 1,52,53
 150 300 150 300 150 200 c 1,54,55
 150 200 150 200 125 200 c 1,56,57
 125 200 125 200 125 100 c 1,58,59
 125 100 125 100 75 100 c 1,60,61
 75 100 75 100 75 0 c 1,62,63
 75 0 75 0 0 0 c 1,64,65
 0 0 0 0 0 100 c 1,66,67
 0 100 0 100 50 100 c 1,68,69
 50 100 50 100 50 200 c 1,70,71
 50 200 50 200 75 200 c 1,72,73
 75 200 75 200 75 300 c 1,74,75
 75 300 75 300 50 300 c 1,76,77
 50 300 50 300 50 400 c 1,78,79
 50 400 50 400 0 400 c 1,40,41
EndSplineSet
Validated: 1
EndChar

StartChar: onequarter
Encoding: 188 188 134
Width: 300
GlyphClass: 2
Flags: W
LayerCount: 2
Back
Fore
SplineSet
175 200 m 1,0,1
 175 200 175 200 175 300 c 1,2,3
 175 300 175 300 225 300 c 1,4,5
 225 300 225 300 225 200 c 1,6,7
 225 200 225 200 200 200 c 1,8,9
 200 200 200 200 200 100 c 1,10,11
 200 100 200 100 175 100 c 1,12,13
 175 100 175 100 175 0 c 1,14,15
 175 0 175 0 225 0 c 1,16,17
 225 0 225 0 225 100 c 1,18,19
 225 100 225 100 275 100 c 1,20,21
 275 100 275 100 275 -200 c 1,22,23
 275 -200 275 -200 225 -200 c 1,24,25
 225 -200 225 -200 225 -100 c 1,26,27
 225 -100 225 -100 125 -100 c 1,28,29
 125 -100 125 -100 125 100 c 1,30,31
 125 100 125 100 150 100 c 1,32,33
 150 100 150 100 150 200 c 1,34,35
 150 200 150 200 175 200 c 1,0,1
50 600 m 1,36,37
 50 600 50 600 50 700 c 1,38,39
 50 700 50 700 100 700 c 1,40,41
 100 700 100 700 100 200 c 1,42,43
 100 200 100 200 50 200 c 1,44,45
 50 200 50 200 50 500 c 1,46,47
 50 500 50 500 25 500 c 1,48,49
 25 500 25 500 25 600 c 1,50,51
 25 600 25 600 50 600 c 1,36,37
EndSplineSet
Validated: 1
EndChar

StartChar: onehalf
Encoding: 189 189 135
Width: 300
GlyphClass: 2
Flags: W
LayerCount: 2
Back
Fore
SplineSet
125 100 m 1,0,1
 125 100 125 100 125 200 c 1,2,3
 125 200 125 200 150 200 c 1,4,5
 150 200 150 200 150 300 c 1,6,7
 150 300 150 300 250 300 c 1,8,9
 250 300 250 300 250 200 c 1,10,11
 250 200 250 200 275 200 c 1,12,13
 275 200 275 200 275 100 c 1,14,15
 275 100 275 100 250 100 c 1,16,17
 250 100 250 100 250 0 c 1,18,19
 250 0 250 0 200 0 c 1,20,21
 200 0 200 0 200 -100 c 1,22,23
 200 -100 200 -100 275 -100 c 1,24,25
 275 -100 275 -100 275 -200 c 1,26,27
 275 -200 275 -200 125 -200 c 1,28,29
 125 -200 125 -200 125 -100 c 1,30,31
 125 -100 125 -100 150 -100 c 1,32,33
 150 -100 150 -100 150 0 c 1,34,35
 150 0 150 0 200 0 c 1,36,37
 200 0 200 0 200 100 c 1,38,39
 200 100 200 100 225 100 c 1,40,41
 225 100 225 100 225 200 c 1,42,43
 225 200 225 200 175 200 c 1,44,45
 175 200 175 200 175 100 c 1,46,47
 175 100 175 100 125 100 c 1,0,1
50 600 m 1,48,49
 50 600 50 600 50 700 c 1,50,51
 50 700 50 700 100 700 c 1,52,53
 100 700 100 700 100 200 c 1,54,55
 100 200 100 200 50 200 c 1,56,57
 50 200 50 200 50 500 c 1,58,59
 50 500 50 500 25 500 c 1,60,61
 25 500 25 500 25 600 c 1,62,63
 25 600 25 600 50 600 c 1,48,49
EndSplineSet
Validated: 5
EndChar

StartChar: threequarters
Encoding: 190 190 136
Width: 300
GlyphClass: 2
Flags: W
LayerCount: 2
Back
Fore
SplineSet
212 200 m 1,0,1
 212 200 212 200 212 300 c 1,2,3
 212 300 212 300 262 300 c 1,4,5
 262 300 262 300 262 200 c 1,6,7
 262 200 262 200 238 200 c 1,8,9
 238 200 238 200 238 100 c 1,10,11
 238 100 238 100 212 100 c 1,12,13
 212 100 212 100 212 0 c 1,14,15
 212 0 212 0 262 0 c 1,16,17
 262 0 262 0 262 100 c 1,18,19
 262 100 262 100 312 100 c 1,20,21
 312 100 312 100 312 -200 c 1,22,23
 312 -200 312 -200 262 -200 c 1,24,25
 262 -200 262 -200 262 -100 c 1,26,27
 262 -100 262 -100 162 -100 c 1,28,29
 162 -100 162 -100 162 100 c 1,30,31
 162 100 162 100 188 100 c 1,32,33
 188 100 188 100 188 200 c 1,34,35
 188 200 188 200 212 200 c 1,0,1
38 600 m 1,36,37
 38 600 38 600 38 700 c 1,38,39
 38 700 38 700 162 700 c 1,40,41
 162 700 162 700 162 500 c 1,42,43
 162 500 162 500 138 500 c 1,44,45
 138 500 138 500 138 400 c 1,46,47
 138 400 138 400 162 400 c 1,48,49
 162 400 162 400 162 300 c 1,50,51
 162 300 162 300 138 300 c 1,52,53
 138 300 138 300 138 200 c 1,54,55
 138 200 138 200 38 200 c 1,56,57
 38 200 38 200 38 300 c 1,58,59
 38 300 38 300 112 300 c 1,60,61
 112 300 112 300 112 400 c 1,62,63
 112 400 112 400 62 400 c 1,64,65
 62 400 62 400 62 500 c 1,66,67
 62 500 62 500 112 500 c 1,68,69
 112 500 112 500 112 600 c 1,70,71
 112 600 112 600 38 600 c 1,36,37
EndSplineSet
Validated: 1
EndChar

StartChar: questiondown
Encoding: 191 191 137
Width: 300
GlyphClass: 2
Flags: W
LayerCount: 2
Back
Fore
SplineSet
138 600 m 1,0,1
 138 600 138 600 138 700 c 1,2,3
 138 700 138 700 188 700 c 1,4,5
 188 700 188 700 188 600 c 1,6,7
 188 600 188 600 138 600 c 1,0,1
88 0 m 1,8,9
 88 0 88 0 88 100 c 1,10,11
 88 100 88 100 62 100 c 1,12,13
 62 100 62 100 62 300 c 1,14,15
 62 300 62 300 88 300 c 1,16,17
 88 300 88 300 88 400 c 1,18,19
 88 400 88 400 138 400 c 1,20,21
 138 400 138 400 138 500 c 1,22,23
 138 500 138 500 188 500 c 1,24,25
 188 500 188 500 188 400 c 1,26,27
 188 400 188 400 138 400 c 1,28,29
 138 400 138 400 138 300 c 1,30,31
 138 300 138 300 112 300 c 1,32,33
 112 300 112 300 112 100 c 1,34,35
 112 100 112 100 238 100 c 1,36,37
 238 100 238 100 238 300 c 1,38,39
 238 300 238 300 288 300 c 1,40,41
 288 300 288 300 288 100 c 1,42,43
 288 100 288 100 262 100 c 1,44,45
 262 100 262 100 262 0 c 1,46,47
 262 0 262 0 88 0 c 1,8,9
EndSplineSet
Validated: 5
EndChar

StartChar: Agrave
Encoding: 192 192 138
Width: 300
GlyphClass: 2
Flags: W
LayerCount: 2
Back
Fore
SplineSet
175 700 m 1,0,1
 175 700 175 700 175 800 c 1,2,3
 175 800 175 800 225 800 c 1,4,5
 225 800 225 800 225 700 c 1,6,7
 225 700 225 700 175 700 c 1,0,1
75 700 m 1,8,9
 75 700 75 700 75 800 c 1,10,11
 75 800 75 800 125 800 c 1,12,13
 125 800 125 800 125 700 c 1,14,15
 125 700 125 700 75 700 c 1,8,9
75 300 m 1,16,17
 75 300 75 300 225 300 c 1,18,19
 225 300 225 300 225 400 c 1,20,21
 225 400 225 400 200 400 c 1,22,23
 200 400 200 400 200 500 c 1,24,25
 200 500 200 500 100 500 c 1,26,27
 100 500 100 500 100 400 c 1,28,29
 100 400 100 400 75 400 c 1,30,31
 75 400 75 400 75 300 c 1,16,17
25 0 m 1,32,33
 25 0 25 0 25 400 c 1,34,35
 25 400 25 400 50 400 c 1,36,37
 50 400 50 400 50 500 c 1,38,39
 50 500 50 500 75 500 c 1,40,41
 75 500 75 500 75 600 c 1,42,43
 75 600 75 600 225 600 c 1,44,45
 225 600 225 600 225 500 c 1,46,47
 225 500 225 500 250 500 c 1,48,49
 250 500 250 500 250 400 c 1,50,51
 250 400 250 400 275 400 c 1,52,53
 275 400 275 400 275 0 c 1,54,55
 275 0 275 0 225 0 c 1,56,57
 225 0 225 0 225 200 c 1,58,59
 225 200 225 200 75 200 c 1,60,61
 75 200 75 200 75 0 c 1,62,63
 75 0 75 0 25 0 c 1,32,33
EndSplineSet
Validated: 1
EndChar

StartChar: Aacute
Encoding: 193 193 139
Width: 300
GlyphClass: 2
Flags: W
LayerCount: 2
Back
Fore
SplineSet
175 700 m 1,0,1
 175 700 175 700 175 800 c 1,2,3
 175 800 175 800 225 800 c 1,4,5
 225 800 225 800 225 700 c 1,6,7
 225 700 225 700 175 700 c 1,0,1
75 700 m 1,8,9
 75 700 75 700 75 800 c 1,10,11
 75 800 75 800 125 800 c 1,12,13
 125 800 125 800 125 700 c 1,14,15
 125 700 125 700 75 700 c 1,8,9
75 300 m 1,16,17
 75 300 75 300 225 300 c 1,18,19
 225 300 225 300 225 400 c 1,20,21
 225 400 225 400 200 400 c 1,22,23
 200 400 200 400 200 500 c 1,24,25
 200 500 200 500 100 500 c 1,26,27
 100 500 100 500 100 400 c 1,28,29
 100 400 100 400 75 400 c 1,30,31
 75 400 75 400 75 300 c 1,16,17
25 0 m 1,32,33
 25 0 25 0 25 400 c 1,34,35
 25 400 25 400 50 400 c 1,36,37
 50 400 50 400 50 500 c 1,38,39
 50 500 50 500 75 500 c 1,40,41
 75 500 75 500 75 600 c 1,42,43
 75 600 75 600 225 600 c 1,44,45
 225 600 225 600 225 500 c 1,46,47
 225 500 225 500 250 500 c 1,48,49
 250 500 250 500 250 400 c 1,50,51
 250 400 250 400 275 400 c 1,52,53
 275 400 275 400 275 0 c 1,54,55
 275 0 275 0 225 0 c 1,56,57
 225 0 225 0 225 200 c 1,58,59
 225 200 225 200 75 200 c 1,60,61
 75 200 75 200 75 0 c 1,62,63
 75 0 75 0 25 0 c 1,32,33
EndSplineSet
Validated: 1
EndChar

StartChar: Acircumflex
Encoding: 194 194 140
Width: 300
GlyphClass: 2
Flags: W
LayerCount: 2
Back
Fore
SplineSet
125 600 m 1,0,1
 125 600 125 600 175 600 c 1,2,3
 175 600 175 600 175 700 c 1,4,5
 175 700 175 700 125 700 c 1,6,7
 125 700 125 700 125 600 c 1,0,1
75 300 m 1,8,9
 75 300 75 300 225 300 c 1,10,11
 225 300 225 300 225 400 c 1,12,13
 225 400 225 400 200 400 c 1,14,15
 200 400 200 400 200 500 c 1,16,17
 200 500 200 500 100 500 c 1,18,19
 100 500 100 500 100 400 c 1,20,21
 100 400 100 400 75 400 c 1,22,23
 75 400 75 400 75 300 c 1,8,9
225 500 m 1,24,25
 225 500 225 500 250 500 c 1,26,27
 250 500 250 500 250 400 c 1,28,29
 250 400 250 400 275 400 c 1,30,31
 275 400 275 400 275 0 c 1,32,33
 275 0 275 0 225 0 c 1,34,35
 225 0 225 0 225 200 c 1,36,37
 225 200 225 200 75 200 c 1,38,39
 75 200 75 200 75 0 c 1,40,41
 75 0 75 0 25 0 c 1,42,43
 25 0 25 0 25 400 c 1,44,45
 25 400 25 400 50 400 c 1,46,47
 50 400 50 400 50 500 c 1,48,49
 50 500 50 500 75 500 c 1,50,51
 75 500 75 500 75 800 c 1,52,53
 75 800 75 800 225 800 c 1,54,55
 225 800 225 800 225 500 c 1,24,25
EndSplineSet
Validated: 1
EndChar

StartChar: Atilde
Encoding: 195 195 141
Width: 300
GlyphClass: 2
Flags: W
LayerCount: 2
Back
Fore
SplineSet
75 700 m 1,0,1
 75 700 75 700 75 800 c 1,2,3
 75 800 75 800 225 800 c 1,4,5
 225 800 225 800 225 700 c 1,6,7
 225 700 225 700 75 700 c 1,0,1
75 300 m 1,8,9
 75 300 75 300 225 300 c 1,10,11
 225 300 225 300 225 400 c 1,12,13
 225 400 225 400 200 400 c 1,14,15
 200 400 200 400 200 500 c 1,16,17
 200 500 200 500 100 500 c 1,18,19
 100 500 100 500 100 400 c 1,20,21
 100 400 100 400 75 400 c 1,22,23
 75 400 75 400 75 300 c 1,8,9
25 0 m 1,24,25
 25 0 25 0 25 400 c 1,26,27
 25 400 25 400 50 400 c 1,28,29
 50 400 50 400 50 500 c 1,30,31
 50 500 50 500 75 500 c 1,32,33
 75 500 75 500 75 600 c 1,34,35
 75 600 75 600 225 600 c 1,36,37
 225 600 225 600 225 500 c 1,38,39
 225 500 225 500 250 500 c 1,40,41
 250 500 250 500 250 400 c 1,42,43
 250 400 250 400 275 400 c 1,44,45
 275 400 275 400 275 0 c 1,46,47
 275 0 275 0 225 0 c 1,48,49
 225 0 225 0 225 200 c 1,50,51
 225 200 225 200 75 200 c 1,52,53
 75 200 75 200 75 0 c 1,54,55
 75 0 75 0 25 0 c 1,24,25
EndSplineSet
Validated: 1
EndChar

StartChar: Adieresis
Encoding: 196 196 142
Width: 300
GlyphClass: 2
Flags: W
LayerCount: 2
Back
Fore
SplineSet
175 700 m 1,0,1
 175 700 175 700 175 800 c 1,2,3
 175 800 175 800 225 800 c 1,4,5
 225 800 225 800 225 700 c 1,6,7
 225 700 225 700 175 700 c 1,0,1
75 700 m 1,8,9
 75 700 75 700 75 800 c 1,10,11
 75 800 75 800 125 800 c 1,12,13
 125 800 125 800 125 700 c 1,14,15
 125 700 125 700 75 700 c 1,8,9
75 300 m 1,16,17
 75 300 75 300 225 300 c 1,18,19
 225 300 225 300 225 400 c 1,20,21
 225 400 225 400 200 400 c 1,22,23
 200 400 200 400 200 500 c 1,24,25
 200 500 200 500 100 500 c 1,26,27
 100 500 100 500 100 400 c 1,28,29
 100 400 100 400 75 400 c 1,30,31
 75 400 75 400 75 300 c 1,16,17
25 0 m 1,32,33
 25 0 25 0 25 400 c 1,34,35
 25 400 25 400 50 400 c 1,36,37
 50 400 50 400 50 500 c 1,38,39
 50 500 50 500 75 500 c 1,40,41
 75 500 75 500 75 600 c 1,42,43
 75 600 75 600 225 600 c 1,44,45
 225 600 225 600 225 500 c 1,46,47
 225 500 225 500 250 500 c 1,48,49
 250 500 250 500 250 400 c 1,50,51
 250 400 250 400 275 400 c 1,52,53
 275 400 275 400 275 0 c 1,54,55
 275 0 275 0 225 0 c 1,56,57
 225 0 225 0 225 200 c 1,58,59
 225 200 225 200 75 200 c 1,60,61
 75 200 75 200 75 0 c 1,62,63
 75 0 75 0 25 0 c 1,32,33
EndSplineSet
Validated: 1
EndChar

StartChar: Aring
Encoding: 197 197 143
Width: 300
GlyphClass: 2
Flags: W
LayerCount: 2
Back
Fore
SplineSet
175 600 m 1,0,1
 175 600 175 600 175 700 c 1,2,3
 175 700 175 700 125 700 c 1,4,5
 125 700 125 700 125 600 c 1,6,7
 125 600 125 600 175 600 c 1,0,1
75 300 m 1,8,9
 75 300 75 300 225 300 c 1,10,11
 225 300 225 300 225 400 c 1,12,13
 225 400 225 400 200 400 c 1,14,15
 200 400 200 400 200 500 c 1,16,17
 200 500 200 500 100 500 c 1,18,19
 100 500 100 500 100 400 c 1,20,21
 100 400 100 400 75 400 c 1,22,23
 75 400 75 400 75 300 c 1,8,9
225 500 m 1,24,25
 225 500 225 500 250 500 c 1,26,27
 250 500 250 500 250 400 c 1,28,29
 250 400 250 400 275 400 c 1,30,31
 275 400 275 400 275 0 c 1,32,33
 275 0 275 0 225 0 c 1,34,35
 225 0 225 0 225 200 c 1,36,37
 225 200 225 200 75 200 c 1,38,39
 75 200 75 200 75 0 c 1,40,41
 75 0 75 0 25 0 c 1,42,43
 25 0 25 0 25 400 c 1,44,45
 25 400 25 400 50 400 c 1,46,47
 50 400 50 400 50 500 c 1,48,49
 50 500 50 500 75 500 c 1,50,51
 75 500 75 500 75 700 c 1,52,53
 75 700 75 700 100 700 c 1,54,55
 100 700 100 700 100 800 c 1,56,57
 100 800 100 800 200 800 c 1,58,59
 200 800 200 800 200 700 c 1,60,61
 200 700 200 700 225 700 c 1,62,63
 225 700 225 700 225 500 c 1,24,25
EndSplineSet
Validated: 1
EndChar

StartChar: AE
Encoding: 198 198 144
Width: 300
GlyphClass: 2
Flags: W
LayerCount: 2
Back
Fore
SplineSet
125 600 m 1,0,1
 125 600 125 600 125 500 c 1,2,3
 125 500 125 500 100 500 c 1,4,5
 100 500 100 500 100 400 c 1,6,7
 100 400 100 400 75 400 c 1,8,9
 75 400 75 400 75 300 c 1,10,11
 75 300 75 300 150 300 c 1,12,13
 150 300 150 300 150 600 c 1,14,15
 150 600 150 600 125 600 c 1,0,1
75 200 m 1,16,17
 75 200 75 200 75 0 c 1,18,19
 75 0 75 0 25 0 c 1,20,21
 25 0 25 0 25 400 c 1,22,23
 25 400 25 400 50 400 c 1,24,25
 50 400 50 400 50 500 c 1,26,27
 50 500 50 500 75 500 c 1,28,29
 75 500 75 500 75 600 c 1,30,31
 75 600 75 600 100 600 c 1,32,33
 100 600 100 600 100 700 c 1,34,35
 100 700 100 700 275 700 c 1,36,37
 275 700 275 700 275 600 c 1,38,39
 275 600 275 600 200 600 c 1,40,41
 200 600 200 600 200 400 c 1,42,43
 200 400 200 400 275 400 c 1,44,45
 275 400 275 400 275 300 c 1,46,47
 275 300 275 300 200 300 c 1,48,49
 200 300 200 300 200 100 c 1,50,51
 200 100 200 100 275 100 c 1,52,53
 275 100 275 100 275 0 c 1,54,55
 275 0 275 0 150 0 c 1,56,57
 150 0 150 0 150 200 c 1,58,59
 150 200 150 200 75 200 c 1,16,17
EndSplineSet
Validated: 1
EndChar

StartChar: Ccedilla
Encoding: 199 199 145
Width: 300
GlyphClass: 2
Flags: W
LayerCount: 2
Back
Fore
SplineSet
112 700 m 1,0,1
 112 700 112 700 262 700 c 1,2,3
 262 700 262 700 262 600 c 1,4,5
 262 600 262 600 288 600 c 1,6,7
 288 600 288 600 288 500 c 1,8,9
 288 500 288 500 238 500 c 1,10,11
 238 500 238 500 238 600 c 1,12,13
 238 600 238 600 138 600 c 1,14,15
 138 600 138 600 138 500 c 1,16,17
 138 500 138 500 112 500 c 1,18,19
 112 500 112 500 112 200 c 1,20,21
 112 200 112 200 138 200 c 1,22,23
 138 200 138 200 138 100 c 1,24,25
 138 100 138 100 238 100 c 1,26,27
 238 100 238 100 238 200 c 1,28,29
 238 200 238 200 288 200 c 1,30,31
 288 200 288 200 288 100 c 1,32,33
 288 100 288 100 262 100 c 1,34,35
 262 100 262 100 262 0 c 1,36,37
 262 0 262 0 112 0 c 1,38,39
 112 0 112 0 112 100 c 1,40,41
 112 100 112 100 88 100 c 1,42,43
 88 100 88 100 88 200 c 1,44,45
 88 200 88 200 62 200 c 1,46,47
 62 200 62 200 62 500 c 1,48,49
 62 500 62 500 88 500 c 1,50,51
 88 500 88 500 88 600 c 1,52,53
 88 600 88 600 112 600 c 1,54,55
 112 600 112 600 112 700 c 1,0,1
EndSplineSet
Validated: 1
EndChar

StartChar: Egrave
Encoding: 200 200 146
Width: 300
GlyphClass: 2
Flags: W
LayerCount: 2
Back
Fore
SplineSet
212 700 m 1,0,1
 212 700 212 700 212 800 c 1,2,3
 212 800 212 800 262 800 c 1,4,5
 262 800 262 800 262 700 c 1,6,7
 262 700 262 700 212 700 c 1,0,1
88 700 m 1,8,9
 88 700 88 700 88 800 c 1,10,11
 88 800 88 800 138 800 c 1,12,13
 138 800 138 800 138 700 c 1,14,15
 138 700 138 700 88 700 c 1,8,9
288 500 m 1,16,17
 288 500 288 500 112 500 c 1,18,19
 112 500 112 500 112 400 c 1,20,21
 112 400 112 400 238 400 c 1,22,23
 238 400 238 400 238 300 c 1,24,25
 238 300 238 300 112 300 c 1,26,27
 112 300 112 300 112 100 c 1,28,29
 112 100 112 100 288 100 c 1,30,31
 288 100 288 100 288 0 c 1,32,33
 288 0 288 0 62 0 c 1,34,35
 62 0 62 0 62 600 c 1,36,37
 62 600 62 600 288 600 c 1,38,39
 288 600 288 600 288 500 c 1,16,17
EndSplineSet
Validated: 1
EndChar

StartChar: Eacute
Encoding: 201 201 147
Width: 300
GlyphClass: 2
Flags: W
LayerCount: 2
Back
Fore
SplineSet
212 700 m 1,0,1
 212 700 212 700 212 800 c 1,2,3
 212 800 212 800 262 800 c 1,4,5
 262 800 262 800 262 700 c 1,6,7
 262 700 262 700 212 700 c 1,0,1
88 700 m 1,8,9
 88 700 88 700 88 800 c 1,10,11
 88 800 88 800 138 800 c 1,12,13
 138 800 138 800 138 700 c 1,14,15
 138 700 138 700 88 700 c 1,8,9
288 500 m 1,16,17
 288 500 288 500 112 500 c 1,18,19
 112 500 112 500 112 400 c 1,20,21
 112 400 112 400 238 400 c 1,22,23
 238 400 238 400 238 300 c 1,24,25
 238 300 238 300 112 300 c 1,26,27
 112 300 112 300 112 100 c 1,28,29
 112 100 112 100 288 100 c 1,30,31
 288 100 288 100 288 0 c 1,32,33
 288 0 288 0 62 0 c 1,34,35
 62 0 62 0 62 600 c 1,36,37
 62 600 62 600 288 600 c 1,38,39
 288 600 288 600 288 500 c 1,16,17
EndSplineSet
Validated: 1
EndChar

StartChar: Ecircumflex
Encoding: 202 202 148
Width: 300
GlyphClass: 2
Flags: W
LayerCount: 2
Back
Fore
SplineSet
212 700 m 1,0,1
 212 700 212 700 212 800 c 1,2,3
 212 800 212 800 262 800 c 1,4,5
 262 800 262 800 262 700 c 1,6,7
 262 700 262 700 212 700 c 1,0,1
88 700 m 1,8,9
 88 700 88 700 88 800 c 1,10,11
 88 800 88 800 138 800 c 1,12,13
 138 800 138 800 138 700 c 1,14,15
 138 700 138 700 88 700 c 1,8,9
288 500 m 1,16,17
 288 500 288 500 112 500 c 1,18,19
 112 500 112 500 112 400 c 1,20,21
 112 400 112 400 238 400 c 1,22,23
 238 400 238 400 238 300 c 1,24,25
 238 300 238 300 112 300 c 1,26,27
 112 300 112 300 112 100 c 1,28,29
 112 100 112 100 288 100 c 1,30,31
 288 100 288 100 288 0 c 1,32,33
 288 0 288 0 62 0 c 1,34,35
 62 0 62 0 62 600 c 1,36,37
 62 600 62 600 288 600 c 1,38,39
 288 600 288 600 288 500 c 1,16,17
EndSplineSet
Validated: 1
EndChar

StartChar: Edieresis
Encoding: 203 203 149
Width: 300
GlyphClass: 2
Flags: W
LayerCount: 2
Back
Fore
SplineSet
212 700 m 1,0,1
 212 700 212 700 212 800 c 1,2,3
 212 800 212 800 262 800 c 1,4,5
 262 800 262 800 262 700 c 1,6,7
 262 700 262 700 212 700 c 1,0,1
88 700 m 1,8,9
 88 700 88 700 88 800 c 1,10,11
 88 800 88 800 138 800 c 1,12,13
 138 800 138 800 138 700 c 1,14,15
 138 700 138 700 88 700 c 1,8,9
288 500 m 1,16,17
 288 500 288 500 112 500 c 1,18,19
 112 500 112 500 112 400 c 1,20,21
 112 400 112 400 238 400 c 1,22,23
 238 400 238 400 238 300 c 1,24,25
 238 300 238 300 112 300 c 1,26,27
 112 300 112 300 112 100 c 1,28,29
 112 100 112 100 288 100 c 1,30,31
 288 100 288 100 288 0 c 1,32,33
 288 0 288 0 62 0 c 1,34,35
 62 0 62 0 62 600 c 1,36,37
 62 600 62 600 288 600 c 1,38,39
 288 600 288 600 288 500 c 1,16,17
EndSplineSet
Validated: 1
EndChar

StartChar: Igrave
Encoding: 204 204 150
Width: 300
GlyphClass: 2
Flags: W
LayerCount: 2
Back
Fore
SplineSet
50 700 m 1,0,1
 50 700 50 700 250 700 c 1,2,3
 250 700 250 700 250 600 c 1,4,5
 250 600 250 600 175 600 c 1,6,7
 175 600 175 600 175 100 c 1,8,9
 175 100 175 100 250 100 c 1,10,11
 250 100 250 100 250 0 c 1,12,13
 250 0 250 0 50 0 c 1,14,15
 50 0 50 0 50 100 c 1,16,17
 50 100 50 100 125 100 c 1,18,19
 125 100 125 100 125 600 c 1,20,21
 125 600 125 600 50 600 c 1,22,23
 50 600 50 600 50 700 c 1,0,1
EndSplineSet
Validated: 1
EndChar

StartChar: Iacute
Encoding: 205 205 151
Width: 300
GlyphClass: 2
Flags: W
LayerCount: 2
Back
Fore
SplineSet
50 700 m 1,0,1
 50 700 50 700 250 700 c 1,2,3
 250 700 250 700 250 600 c 1,4,5
 250 600 250 600 175 600 c 1,6,7
 175 600 175 600 175 100 c 1,8,9
 175 100 175 100 250 100 c 1,10,11
 250 100 250 100 250 0 c 1,12,13
 250 0 250 0 50 0 c 1,14,15
 50 0 50 0 50 100 c 1,16,17
 50 100 50 100 125 100 c 1,18,19
 125 100 125 100 125 600 c 1,20,21
 125 600 125 600 50 600 c 1,22,23
 50 600 50 600 50 700 c 1,0,1
EndSplineSet
Validated: 1
EndChar

StartChar: Icircumflex
Encoding: 206 206 152
Width: 300
GlyphClass: 2
Flags: W
LayerCount: 2
Back
Fore
SplineSet
50 700 m 1,0,1
 50 700 50 700 250 700 c 1,2,3
 250 700 250 700 250 600 c 1,4,5
 250 600 250 600 175 600 c 1,6,7
 175 600 175 600 175 100 c 1,8,9
 175 100 175 100 250 100 c 1,10,11
 250 100 250 100 250 0 c 1,12,13
 250 0 250 0 50 0 c 1,14,15
 50 0 50 0 50 100 c 1,16,17
 50 100 50 100 125 100 c 1,18,19
 125 100 125 100 125 600 c 1,20,21
 125 600 125 600 50 600 c 1,22,23
 50 600 50 600 50 700 c 1,0,1
EndSplineSet
Validated: 1
EndChar

StartChar: Idieresis
Encoding: 207 207 153
Width: 300
GlyphClass: 2
Flags: W
LayerCount: 2
Back
Fore
SplineSet
50 700 m 1,0,1
 50 700 50 700 250 700 c 1,2,3
 250 700 250 700 250 600 c 1,4,5
 250 600 250 600 175 600 c 1,6,7
 175 600 175 600 175 100 c 1,8,9
 175 100 175 100 250 100 c 1,10,11
 250 100 250 100 250 0 c 1,12,13
 250 0 250 0 50 0 c 1,14,15
 50 0 50 0 50 100 c 1,16,17
 50 100 50 100 125 100 c 1,18,19
 125 100 125 100 125 600 c 1,20,21
 125 600 125 600 50 600 c 1,22,23
 50 600 50 600 50 700 c 1,0,1
EndSplineSet
Validated: 1
EndChar

StartChar: Eth
Encoding: 208 208 154
Width: 300
GlyphClass: 2
Flags: W
LayerCount: 2
Back
Fore
SplineSet
112 600 m 1,0,1
 112 600 112 600 112 100 c 1,2,3
 112 100 112 100 212 100 c 1,4,5
 212 100 212 100 212 200 c 1,6,7
 212 200 212 200 238 200 c 1,8,9
 238 200 238 200 238 500 c 1,10,11
 238 500 238 500 212 500 c 1,12,13
 212 500 212 500 212 600 c 1,14,15
 212 600 212 600 112 600 c 1,0,1
62 700 m 1,16,17
 62 700 62 700 238 700 c 1,18,19
 238 700 238 700 238 600 c 1,20,21
 238 600 238 600 262 600 c 1,22,23
 262 600 262 600 262 500 c 1,24,25
 262 500 262 500 288 500 c 1,26,27
 288 500 288 500 288 200 c 1,28,29
 288 200 288 200 262 200 c 1,30,31
 262 200 262 200 262 100 c 1,32,33
 262 100 262 100 238 100 c 1,34,35
 238 100 238 100 238 0 c 1,36,37
 238 0 238 0 62 0 c 1,38,39
 62 0 62 0 62 700 c 1,16,17
EndSplineSet
Validated: 1
EndChar

StartChar: Ntilde
Encoding: 209 209 155
Width: 300
GlyphClass: 2
Flags: W
LayerCount: 2
Back
Fore
SplineSet
75 700 m 1,0,1
 75 700 75 700 75 800 c 1,2,3
 75 800 75 800 225 800 c 1,4,5
 225 800 225 800 225 700 c 1,6,7
 225 700 225 700 75 700 c 1,0,1
25 0 m 1,8,9
 25 0 25 0 25 600 c 1,10,11
 25 600 25 600 125 600 c 1,12,13
 125 600 125 600 125 500 c 1,14,15
 125 500 125 500 150 500 c 1,16,17
 150 500 150 500 150 400 c 1,18,19
 150 400 150 400 175 400 c 1,20,21
 175 400 175 400 175 200 c 1,22,23
 175 200 175 200 200 200 c 1,24,25
 200 200 200 200 200 100 c 1,26,27
 200 100 200 100 225 100 c 1,28,29
 225 100 225 100 225 600 c 1,30,31
 225 600 225 600 275 600 c 1,32,33
 275 600 275 600 275 0 c 1,34,35
 275 0 275 0 175 0 c 1,36,37
 175 0 175 0 175 100 c 1,38,39
 175 100 175 100 150 100 c 1,40,41
 150 100 150 100 150 200 c 1,42,43
 150 200 150 200 125 200 c 1,44,45
 125 200 125 200 125 400 c 1,46,47
 125 400 125 400 100 400 c 1,48,49
 100 400 100 400 100 500 c 1,50,51
 100 500 100 500 75 500 c 1,52,53
 75 500 75 500 75 0 c 1,54,55
 75 0 75 0 25 0 c 1,8,9
EndSplineSet
Validated: 1
EndChar

StartChar: Ograve
Encoding: 210 210 156
Width: 300
GlyphClass: 2
Flags: W
LayerCount: 2
Back
Fore
SplineSet
100 500 m 1,0,1
 100 500 100 500 100 400 c 1,2,3
 100 400 100 400 75 400 c 1,4,5
 75 400 75 400 75 200 c 1,6,7
 75 200 75 200 100 200 c 1,8,9
 100 200 100 200 100 100 c 1,10,11
 100 100 100 100 200 100 c 1,12,13
 200 100 200 100 200 200 c 1,14,15
 200 200 200 200 225 200 c 1,16,17
 225 200 225 200 225 400 c 1,18,19
 225 400 225 400 200 400 c 1,20,21
 200 400 200 400 200 500 c 1,22,23
 200 500 200 500 100 500 c 1,0,1
225 500 m 1,24,25
 225 500 225 500 250 500 c 1,26,27
 250 500 250 500 250 400 c 1,28,29
 250 400 250 400 275 400 c 1,30,31
 275 400 275 400 275 200 c 1,32,33
 275 200 275 200 250 200 c 1,34,35
 250 200 250 200 250 100 c 1,36,37
 250 100 250 100 225 100 c 1,38,39
 225 100 225 100 225 0 c 1,40,41
 225 0 225 0 75 0 c 1,42,43
 75 0 75 0 75 100 c 1,44,45
 75 100 75 100 50 100 c 1,46,47
 50 100 50 100 50 200 c 1,48,49
 50 200 50 200 25 200 c 1,50,51
 25 200 25 200 25 400 c 1,52,53
 25 400 25 400 50 400 c 1,54,55
 50 400 50 400 50 500 c 1,56,57
 50 500 50 500 75 500 c 1,58,59
 75 500 75 500 75 600 c 1,60,61
 75 600 75 600 125 600 c 1,62,63
 125 600 125 600 125 700 c 1,64,65
 125 700 125 700 100 700 c 1,66,67
 100 700 100 700 100 800 c 1,68,69
 100 800 100 800 150 800 c 1,70,71
 150 800 150 800 150 700 c 1,72,73
 150 700 150 700 175 700 c 1,74,75
 175 700 175 700 175 600 c 1,76,77
 175 600 175 600 225 600 c 1,78,79
 225 600 225 600 225 500 c 1,24,25
EndSplineSet
Validated: 1
EndChar

StartChar: Oacute
Encoding: 211 211 157
Width: 300
GlyphClass: 2
Flags: W
LayerCount: 2
Back
Fore
SplineSet
100 500 m 1,0,1
 100 500 100 500 100 400 c 1,2,3
 100 400 100 400 75 400 c 1,4,5
 75 400 75 400 75 200 c 1,6,7
 75 200 75 200 100 200 c 1,8,9
 100 200 100 200 100 100 c 1,10,11
 100 100 100 100 200 100 c 1,12,13
 200 100 200 100 200 200 c 1,14,15
 200 200 200 200 225 200 c 1,16,17
 225 200 225 200 225 400 c 1,18,19
 225 400 225 400 200 400 c 1,20,21
 200 400 200 400 200 500 c 1,22,23
 200 500 200 500 100 500 c 1,0,1
225 500 m 1,24,25
 225 500 225 500 250 500 c 1,26,27
 250 500 250 500 250 400 c 1,28,29
 250 400 250 400 275 400 c 1,30,31
 275 400 275 400 275 200 c 1,32,33
 275 200 275 200 250 200 c 1,34,35
 250 200 250 200 250 100 c 1,36,37
 250 100 250 100 225 100 c 1,38,39
 225 100 225 100 225 0 c 1,40,41
 225 0 225 0 75 0 c 1,42,43
 75 0 75 0 75 100 c 1,44,45
 75 100 75 100 50 100 c 1,46,47
 50 100 50 100 50 200 c 1,48,49
 50 200 50 200 25 200 c 1,50,51
 25 200 25 200 25 400 c 1,52,53
 25 400 25 400 50 400 c 1,54,55
 50 400 50 400 50 500 c 1,56,57
 50 500 50 500 75 500 c 1,58,59
 75 500 75 500 75 600 c 1,60,61
 75 600 75 600 125 600 c 1,62,63
 125 600 125 600 125 700 c 1,64,65
 125 700 125 700 150 700 c 1,66,67
 150 700 150 700 150 800 c 1,68,69
 150 800 150 800 200 800 c 1,70,71
 200 800 200 800 200 700 c 1,72,73
 200 700 200 700 175 700 c 1,74,75
 175 700 175 700 175 600 c 1,76,77
 175 600 175 600 225 600 c 1,78,79
 225 600 225 600 225 500 c 1,24,25
EndSplineSet
Validated: 1
EndChar

StartChar: Ocircumflex
Encoding: 212 212 158
Width: 300
GlyphClass: 2
Flags: W
LayerCount: 2
Back
Fore
SplineSet
100 500 m 1,0,1
 100 500 100 500 100 400 c 1,2,3
 100 400 100 400 75 400 c 1,4,5
 75 400 75 400 75 200 c 1,6,7
 75 200 75 200 100 200 c 1,8,9
 100 200 100 200 100 100 c 1,10,11
 100 100 100 100 200 100 c 1,12,13
 200 100 200 100 200 200 c 1,14,15
 200 200 200 200 225 200 c 1,16,17
 225 200 225 200 225 400 c 1,18,19
 225 400 225 400 200 400 c 1,20,21
 200 400 200 400 200 500 c 1,22,23
 200 500 200 500 100 500 c 1,0,1
75 600 m 1,24,25
 75 600 75 600 225 600 c 1,26,27
 225 600 225 600 225 500 c 1,28,29
 225 500 225 500 250 500 c 1,30,31
 250 500 250 500 250 400 c 1,32,33
 250 400 250 400 275 400 c 1,34,35
 275 400 275 400 275 200 c 1,36,37
 275 200 275 200 250 200 c 1,38,39
 250 200 250 200 250 100 c 1,40,41
 250 100 250 100 225 100 c 1,42,43
 225 100 225 100 225 0 c 1,44,45
 225 0 225 0 75 0 c 1,46,47
 75 0 75 0 75 100 c 1,48,49
 75 100 75 100 50 100 c 1,50,51
 50 100 50 100 50 200 c 1,52,53
 50 200 50 200 25 200 c 1,54,55
 25 200 25 200 25 400 c 1,56,57
 25 400 25 400 50 400 c 1,58,59
 50 400 50 400 50 500 c 1,60,61
 50 500 50 500 75 500 c 1,62,63
 75 500 75 500 75 600 c 1,24,25
125 700 m 1,64,65
 125 700 125 700 125 800 c 1,66,67
 125 800 125 800 175 800 c 1,68,69
 175 800 175 800 175 700 c 1,70,71
 175 700 175 700 125 700 c 1,64,65
EndSplineSet
Validated: 1
EndChar

StartChar: Otilde
Encoding: 213 213 159
Width: 300
GlyphClass: 2
Flags: W
LayerCount: 2
Back
Fore
SplineSet
100 500 m 1,0,1
 100 500 100 500 100 400 c 1,2,3
 100 400 100 400 75 400 c 1,4,5
 75 400 75 400 75 200 c 1,6,7
 75 200 75 200 100 200 c 1,8,9
 100 200 100 200 100 100 c 1,10,11
 100 100 100 100 200 100 c 1,12,13
 200 100 200 100 200 200 c 1,14,15
 200 200 200 200 225 200 c 1,16,17
 225 200 225 200 225 400 c 1,18,19
 225 400 225 400 200 400 c 1,20,21
 200 400 200 400 200 500 c 1,22,23
 200 500 200 500 100 500 c 1,0,1
75 600 m 1,24,25
 75 600 75 600 225 600 c 1,26,27
 225 600 225 600 225 500 c 1,28,29
 225 500 225 500 250 500 c 1,30,31
 250 500 250 500 250 400 c 1,32,33
 250 400 250 400 275 400 c 1,34,35
 275 400 275 400 275 200 c 1,36,37
 275 200 275 200 250 200 c 1,38,39
 250 200 250 200 250 100 c 1,40,41
 250 100 250 100 225 100 c 1,42,43
 225 100 225 100 225 0 c 1,44,45
 225 0 225 0 75 0 c 1,46,47
 75 0 75 0 75 100 c 1,48,49
 75 100 75 100 50 100 c 1,50,51
 50 100 50 100 50 200 c 1,52,53
 50 200 50 200 25 200 c 1,54,55
 25 200 25 200 25 400 c 1,56,57
 25 400 25 400 50 400 c 1,58,59
 50 400 50 400 50 500 c 1,60,61
 50 500 50 500 75 500 c 1,62,63
 75 500 75 500 75 600 c 1,24,25
75 700 m 1,64,65
 75 700 75 700 75 800 c 1,66,67
 75 800 75 800 225 800 c 1,68,69
 225 800 225 800 225 700 c 1,70,71
 225 700 225 700 75 700 c 1,64,65
EndSplineSet
Validated: 1
EndChar

StartChar: Odieresis
Encoding: 214 214 160
Width: 300
GlyphClass: 2
Flags: W
LayerCount: 2
Back
Fore
SplineSet
100 500 m 1,0,1
 100 500 100 500 100 400 c 1,2,3
 100 400 100 400 75 400 c 1,4,5
 75 400 75 400 75 200 c 1,6,7
 75 200 75 200 100 200 c 1,8,9
 100 200 100 200 100 100 c 1,10,11
 100 100 100 100 200 100 c 1,12,13
 200 100 200 100 200 200 c 1,14,15
 200 200 200 200 225 200 c 1,16,17
 225 200 225 200 225 400 c 1,18,19
 225 400 225 400 200 400 c 1,20,21
 200 400 200 400 200 500 c 1,22,23
 200 500 200 500 100 500 c 1,0,1
75 600 m 1,24,25
 75 600 75 600 225 600 c 1,26,27
 225 600 225 600 225 500 c 1,28,29
 225 500 225 500 250 500 c 1,30,31
 250 500 250 500 250 400 c 1,32,33
 250 400 250 400 275 400 c 1,34,35
 275 400 275 400 275 200 c 1,36,37
 275 200 275 200 250 200 c 1,38,39
 250 200 250 200 250 100 c 1,40,41
 250 100 250 100 225 100 c 1,42,43
 225 100 225 100 225 0 c 1,44,45
 225 0 225 0 75 0 c 1,46,47
 75 0 75 0 75 100 c 1,48,49
 75 100 75 100 50 100 c 1,50,51
 50 100 50 100 50 200 c 1,52,53
 50 200 50 200 25 200 c 1,54,55
 25 200 25 200 25 400 c 1,56,57
 25 400 25 400 50 400 c 1,58,59
 50 400 50 400 50 500 c 1,60,61
 50 500 50 500 75 500 c 1,62,63
 75 500 75 500 75 600 c 1,24,25
175 700 m 1,64,65
 175 700 175 700 175 800 c 1,66,67
 175 800 175 800 225 800 c 1,68,69
 225 800 225 800 225 700 c 1,70,71
 225 700 225 700 175 700 c 1,64,65
75 700 m 1,72,73
 75 700 75 700 75 800 c 1,74,75
 75 800 75 800 125 800 c 1,76,77
 125 800 125 800 125 700 c 1,78,79
 125 700 125 700 75 700 c 1,72,73
EndSplineSet
Validated: 1
EndChar

StartChar: multiply
Encoding: 215 215 161
Width: 300
GlyphClass: 2
Flags: W
LayerCount: 2
Back
Fore
SplineSet
75 200 m 1,0,1
 75 200 75 200 75 300 c 1,2,3
 75 300 75 300 125 300 c 1,4,5
 125 300 125 300 125 400 c 1,6,7
 125 400 125 400 75 400 c 1,8,9
 75 400 75 400 75 500 c 1,10,11
 75 500 75 500 125 500 c 1,12,13
 125 500 125 500 125 400 c 1,14,15
 125 400 125 400 175 400 c 1,16,17
 175 400 175 400 175 500 c 1,18,19
 175 500 175 500 225 500 c 1,20,21
 225 500 225 500 225 400 c 1,22,23
 225 400 225 400 175 400 c 1,24,25
 175 400 175 400 175 300 c 1,26,27
 175 300 175 300 225 300 c 1,28,29
 225 300 225 300 225 200 c 1,30,31
 225 200 225 200 175 200 c 1,32,33
 175 200 175 200 175 300 c 1,34,35
 175 300 175 300 125 300 c 1,36,37
 125 300 125 300 125 200 c 1,38,39
 125 200 125 200 75 200 c 1,0,1
EndSplineSet
Validated: 5
EndChar

StartChar: Oslash
Encoding: 216 216 162
Width: 300
GlyphClass: 2
Flags: W
LayerCount: 2
Back
Fore
SplineSet
200 100 m 1,0,1
 200 100 200 100 200 200 c 1,2,3
 200 200 200 200 225 200 c 1,4,5
 225 200 225 200 225 500 c 1,6,7
 225 500 225 500 200 500 c 1,8,9
 200 500 200 500 200 600 c 1,10,11
 200 600 200 600 100 600 c 1,12,13
 100 600 100 600 100 500 c 1,14,15
 100 500 100 500 75 500 c 1,16,17
 75 500 75 500 75 200 c 1,18,19
 75 200 75 200 100 200 c 1,20,21
 100 200 100 200 100 100 c 1,22,23
 100 100 100 100 200 100 c 1,0,1
225 0 m 1,24,25
 225 0 225 0 75 0 c 1,26,27
 75 0 75 0 75 100 c 1,28,29
 75 100 75 100 50 100 c 1,30,31
 50 100 50 100 50 200 c 1,32,33
 50 200 50 200 25 200 c 1,34,35
 25 200 25 200 25 500 c 1,36,37
 25 500 25 500 50 500 c 1,38,39
 50 500 50 500 50 600 c 1,40,41
 50 600 50 600 75 600 c 1,42,43
 75 600 75 600 75 700 c 1,44,45
 75 700 75 700 225 700 c 1,46,47
 225 700 225 700 225 600 c 1,48,49
 225 600 225 600 250 600 c 1,50,51
 250 600 250 600 250 500 c 1,52,53
 250 500 250 500 275 500 c 1,54,55
 275 500 275 500 275 200 c 1,56,57
 275 200 275 200 250 200 c 1,58,59
 250 200 250 200 250 100 c 1,60,61
 250 100 250 100 225 100 c 1,62,63
 225 100 225 100 225 0 c 1,24,25
EndSplineSet
Validated: 1
EndChar

StartChar: Ugrave
Encoding: 217 217 163
Width: 300
GlyphClass: 2
Flags: W
LayerCount: 2
Back
Fore
SplineSet
162 600 m 1,0,1
 162 600 162 600 162 700 c 1,2,3
 162 700 162 700 138 700 c 1,4,5
 138 700 138 700 138 800 c 1,6,7
 138 800 138 800 188 800 c 1,8,9
 188 800 188 800 188 700 c 1,10,11
 188 700 188 700 212 700 c 1,12,13
 212 700 212 700 212 600 c 1,14,15
 212 600 212 600 162 600 c 1,0,1
62 600 m 1,16,17
 62 600 62 600 112 600 c 1,18,19
 112 600 112 600 112 100 c 1,20,21
 112 100 112 100 238 100 c 1,22,23
 238 100 238 100 238 600 c 1,24,25
 238 600 238 600 288 600 c 1,26,27
 288 600 288 600 288 100 c 1,28,29
 288 100 288 100 262 100 c 1,30,31
 262 100 262 100 262 0 c 1,32,33
 262 0 262 0 88 0 c 1,34,35
 88 0 88 0 88 100 c 1,36,37
 88 100 88 100 62 100 c 1,38,39
 62 100 62 100 62 600 c 1,16,17
EndSplineSet
Validated: 1
EndChar

StartChar: Uacute
Encoding: 218 218 164
Width: 300
GlyphClass: 2
Flags: W
LayerCount: 2
Back
Fore
SplineSet
62 600 m 1,0,1
 62 600 62 600 112 600 c 1,2,3
 112 600 112 600 112 100 c 1,4,5
 112 100 112 100 238 100 c 1,6,7
 238 100 238 100 238 600 c 1,8,9
 238 600 238 600 288 600 c 1,10,11
 288 600 288 600 288 100 c 1,12,13
 288 100 288 100 262 100 c 1,14,15
 262 100 262 100 262 0 c 1,16,17
 262 0 262 0 88 0 c 1,18,19
 88 0 88 0 88 100 c 1,20,21
 88 100 88 100 62 100 c 1,22,23
 62 100 62 100 62 600 c 1,0,1
EndSplineSet
Validated: 1
EndChar

StartChar: Ucircumflex
Encoding: 219 219 165
Width: 300
GlyphClass: 2
Flags: W
LayerCount: 2
Back
Fore
SplineSet
212 800 m 1,0,1
 212 800 212 800 262 800 c 1,2,3
 262 800 262 800 262 700 c 1,4,5
 262 700 262 700 212 700 c 1,6,7
 212 700 212 700 212 800 c 1,0,1
88 700 m 1,8,9
 88 700 88 700 88 800 c 1,10,11
 88 800 88 800 138 800 c 1,12,13
 138 800 138 800 138 700 c 1,14,15
 138 700 138 700 88 700 c 1,8,9
62 600 m 1,16,17
 62 600 62 600 112 600 c 1,18,19
 112 600 112 600 112 100 c 1,20,21
 112 100 112 100 238 100 c 1,22,23
 238 100 238 100 238 600 c 1,24,25
 238 600 238 600 288 600 c 1,26,27
 288 600 288 600 288 100 c 1,28,29
 288 100 288 100 262 100 c 1,30,31
 262 100 262 100 262 0 c 1,32,33
 262 0 262 0 88 0 c 1,34,35
 88 0 88 0 88 100 c 1,36,37
 88 100 88 100 62 100 c 1,38,39
 62 100 62 100 62 600 c 1,16,17
EndSplineSet
Validated: 1
EndChar

StartChar: Udieresis
Encoding: 220 220 166
Width: 300
GlyphClass: 2
Flags: W
LayerCount: 2
Back
Fore
SplineSet
212 800 m 1,0,1
 212 800 212 800 262 800 c 1,2,3
 262 800 262 800 262 700 c 1,4,5
 262 700 262 700 212 700 c 1,6,7
 212 700 212 700 212 800 c 1,0,1
88 700 m 1,8,9
 88 700 88 700 88 800 c 1,10,11
 88 800 88 800 138 800 c 1,12,13
 138 800 138 800 138 700 c 1,14,15
 138 700 138 700 88 700 c 1,8,9
62 600 m 1,16,17
 62 600 62 600 112 600 c 1,18,19
 112 600 112 600 112 100 c 1,20,21
 112 100 112 100 238 100 c 1,22,23
 238 100 238 100 238 600 c 1,24,25
 238 600 238 600 288 600 c 1,26,27
 288 600 288 600 288 100 c 1,28,29
 288 100 288 100 262 100 c 1,30,31
 262 100 262 100 262 0 c 1,32,33
 262 0 262 0 88 0 c 1,34,35
 88 0 88 0 88 100 c 1,36,37
 88 100 88 100 62 100 c 1,38,39
 62 100 62 100 62 600 c 1,16,17
EndSplineSet
Validated: 1
EndChar

StartChar: germandbls
Encoding: 223 223 167
Width: 300
GlyphClass: 2
Flags: W
LayerCount: 2
Back
Fore
SplineSet
112 600 m 1,0,1
 112 600 112 600 112 700 c 1,2,3
 112 700 112 700 238 700 c 1,4,5
 238 700 238 700 238 600 c 1,6,7
 238 600 238 600 262 600 c 1,8,9
 262 600 262 600 262 400 c 1,10,11
 262 400 262 400 238 400 c 1,12,13
 238 400 238 400 238 300 c 1,14,15
 238 300 238 300 288 300 c 1,16,17
 288 300 288 300 288 100 c 1,18,19
 288 100 288 100 262 100 c 1,20,21
 262 100 262 100 262 0 c 1,22,23
 262 0 262 0 138 0 c 1,24,25
 138 0 138 0 138 100 c 1,26,27
 138 100 138 100 238 100 c 1,28,29
 238 100 238 100 238 300 c 1,30,31
 238 300 238 300 162 300 c 1,32,33
 162 300 162 300 162 400 c 1,34,35
 162 400 162 400 212 400 c 1,36,37
 212 400 212 400 212 600 c 1,38,39
 212 600 212 600 138 600 c 1,40,41
 138 600 138 600 138 500 c 1,42,43
 138 500 138 500 112 500 c 1,44,45
 112 500 112 500 112 0 c 1,46,47
 112 0 112 0 62 0 c 1,48,49
 62 0 62 0 62 500 c 1,50,51
 62 500 62 500 88 500 c 1,52,53
 88 500 88 500 88 600 c 1,54,55
 88 600 88 600 112 600 c 1,0,1
EndSplineSet
Validated: 5
EndChar

StartChar: agrave
Encoding: 224 224 168
Width: 300
GlyphClass: 2
Flags: W
LayerCount: 2
Back
Fore
SplineSet
125 600 m 1,0,1
 125 600 125 600 125 700 c 1,2,3
 125 700 125 700 100 700 c 1,4,5
 100 700 100 700 100 800 c 1,6,7
 100 800 100 800 150 800 c 1,8,9
 150 800 150 800 150 700 c 1,10,11
 150 700 150 700 175 700 c 1,12,13
 175 700 175 700 175 600 c 1,14,15
 175 600 175 600 125 600 c 1,0,1
75 200 m 1,16,17
 75 200 75 200 75 100 c 1,18,19
 75 100 75 100 200 100 c 1,20,21
 200 100 200 100 200 200 c 1,22,23
 200 200 200 200 75 200 c 1,16,17
50 500 m 1,24,25
 50 500 50 500 225 500 c 1,26,27
 225 500 225 500 225 400 c 1,28,29
 225 400 225 400 250 400 c 1,30,31
 250 400 250 400 250 100 c 1,32,33
 250 100 250 100 274 100 c 1,34,35
 274 84 274 84 274.5 50 c 128,-1,36
 275 16 275 16 275 0 c 1,37,38
 275 0 275 0 50 0 c 1,39,40
 50 0 50 0 50 100 c 1,41,42
 50 100 50 100 25 100 c 1,43,44
 25 100 25 100 25 200 c 1,45,46
 25 200 25 200 50 200 c 1,47,48
 50 200 50 200 50 300 c 1,49,50
 50 300 50 300 200 300 c 1,51,52
 200 300 200 300 200 400 c 1,53,54
 200 400 200 400 50 400 c 1,55,56
 50 400 50 400 50 500 c 1,24,25
EndSplineSet
Validated: 1
EndChar

StartChar: aacute
Encoding: 225 225 169
Width: 300
GlyphClass: 2
Flags: W
LayerCount: 2
Back
Fore
SplineSet
100 600 m 1,0,1
 100 600 100 600 100 700 c 1,2,3
 100 700 100 700 125 700 c 1,4,5
 125 700 125 700 125 800 c 1,6,7
 125 800 125 800 175 800 c 1,8,9
 175 800 175 800 175 700 c 1,10,11
 175 700 175 700 150 700 c 1,12,13
 150 700 150 700 150 600 c 1,14,15
 150 600 150 600 100 600 c 1,0,1
75 200 m 1,16,17
 75 200 75 200 75 100 c 1,18,19
 75 100 75 100 200 100 c 1,20,21
 200 100 200 100 200 200 c 1,22,23
 200 200 200 200 75 200 c 1,16,17
50 500 m 1,24,25
 50 500 50 500 225 500 c 1,26,27
 225 500 225 500 225 400 c 1,28,29
 225 400 225 400 250 400 c 1,30,31
 250 400 250 400 250 100 c 1,32,33
 250 100 250 100 274 100 c 1,34,35
 274 84 274 84 274.5 50 c 128,-1,36
 275 16 275 16 275 0 c 1,37,38
 275 0 275 0 50 0 c 1,39,40
 50 0 50 0 50 100 c 1,41,42
 50 100 50 100 25 100 c 1,43,44
 25 100 25 100 25 200 c 1,45,46
 25 200 25 200 50 200 c 1,47,48
 50 200 50 200 50 300 c 1,49,50
 50 300 50 300 200 300 c 1,51,52
 200 300 200 300 200 400 c 1,53,54
 200 400 200 400 50 400 c 1,55,56
 50 400 50 400 50 500 c 1,24,25
EndSplineSet
Validated: 1
EndChar

StartChar: acircumflex
Encoding: 226 226 170
Width: 300
GlyphClass: 2
Flags: W
LayerCount: 2
Back
Fore
SplineSet
75 600 m 1,0,1
 75 600 75 600 75 700 c 1,2,3
 75 700 75 700 100 700 c 1,4,5
 100 700 100 700 100 800 c 1,6,7
 100 800 100 800 175 800 c 1,8,9
 175 800 175 800 175 700 c 1,10,11
 175 700 175 700 200 700 c 1,12,13
 200 700 200 700 200 600 c 1,14,15
 200 600 200 600 150 600 c 1,16,17
 150 600 150 600 150 700 c 1,18,19
 150 700 150 700 125 700 c 1,20,21
 125 700 125 700 125 600 c 1,22,23
 125 600 125 600 75 600 c 1,0,1
75 200 m 1,24,25
 75 200 75 200 75 100 c 1,26,27
 75 100 75 100 200 100 c 1,28,29
 200 100 200 100 200 200 c 1,30,31
 200 200 200 200 75 200 c 1,24,25
50 500 m 1,32,33
 50 500 50 500 225 500 c 1,34,35
 225 500 225 500 225 400 c 1,36,37
 225 400 225 400 250 400 c 1,38,39
 250 400 250 400 250 100 c 1,40,41
 250 100 250 100 274 100 c 1,42,43
 274 84 274 84 274.5 50 c 128,-1,44
 275 16 275 16 275 0 c 1,45,46
 275 0 275 0 50 0 c 1,47,48
 50 0 50 0 50 100 c 1,49,50
 50 100 50 100 25 100 c 1,51,52
 25 100 25 100 25 200 c 1,53,54
 25 200 25 200 50 200 c 1,55,56
 50 200 50 200 50 300 c 1,57,58
 50 300 50 300 200 300 c 1,59,60
 200 300 200 300 200 400 c 1,61,62
 200 400 200 400 50 400 c 1,63,64
 50 400 50 400 50 500 c 1,32,33
EndSplineSet
Validated: 1
EndChar

StartChar: atilde
Encoding: 227 227 171
Width: 300
GlyphClass: 2
Flags: W
LayerCount: 2
Back
Fore
SplineSet
50 600 m 1,0,1
 50 600 50 600 50 700 c 1,2,3
 50 700 50 700 75 700 c 1,4,5
 75 700 75 700 75 800 c 1,6,7
 75 800 75 800 150 800 c 1,8,9
 150 800 150 800 150 700 c 1,10,11
 150 700 150 700 175 700 c 1,12,13
 175 700 175 700 175 800 c 1,14,15
 175 800 175 800 225 800 c 1,16,17
 225 800 225 800 225 700 c 1,18,19
 225 700 225 700 200 700 c 1,20,21
 200 700 200 700 200 600 c 1,22,23
 200 600 200 600 125 600 c 1,24,25
 125 600 125 600 125 700 c 1,26,27
 125 700 125 700 100 700 c 1,28,29
 100 700 100 700 100 600 c 1,30,31
 100 600 100 600 50 600 c 1,0,1
75 200 m 1,32,33
 75 200 75 200 75 100 c 1,34,35
 75 100 75 100 200 100 c 1,36,37
 200 100 200 100 200 200 c 1,38,39
 200 200 200 200 75 200 c 1,32,33
50 500 m 1,40,41
 50 500 50 500 225 500 c 1,42,43
 225 500 225 500 225 400 c 1,44,45
 225 400 225 400 250 400 c 1,46,47
 250 400 250 400 250 100 c 1,48,49
 250 100 250 100 274 100 c 1,50,51
 274 84 274 84 274.5 50 c 128,-1,52
 275 16 275 16 275 0 c 1,53,54
 275 0 275 0 50 0 c 1,55,56
 50 0 50 0 50 100 c 1,57,58
 50 100 50 100 25 100 c 1,59,60
 25 100 25 100 25 200 c 1,61,62
 25 200 25 200 50 200 c 1,63,64
 50 200 50 200 50 300 c 1,65,66
 50 300 50 300 200 300 c 1,67,68
 200 300 200 300 200 400 c 1,69,70
 200 400 200 400 50 400 c 1,71,72
 50 400 50 400 50 500 c 1,40,41
EndSplineSet
Validated: 1
EndChar

StartChar: adieresis
Encoding: 228 228 172
Width: 300
GlyphClass: 2
Flags: W
LayerCount: 2
Back
Fore
SplineSet
175 600 m 1,0,1
 175 600 175 600 175 700 c 1,2,3
 175 700 175 700 225 700 c 1,4,5
 225 700 225 700 225 600 c 1,6,7
 225 600 225 600 175 600 c 1,0,1
75 600 m 1,8,9
 75 600 75 600 75 700 c 1,10,11
 75 700 75 700 125 700 c 1,12,13
 125 700 125 700 125 600 c 1,14,15
 125 600 125 600 75 600 c 1,8,9
75 200 m 1,16,17
 75 200 75 200 75 100 c 1,18,19
 75 100 75 100 200 100 c 1,20,21
 200 100 200 100 200 200 c 1,22,23
 200 200 200 200 75 200 c 1,16,17
50 500 m 1,24,25
 50 500 50 500 225 500 c 1,26,27
 225 500 225 500 225 400 c 1,28,29
 225 400 225 400 250 400 c 1,30,31
 250 400 250 400 250 100 c 1,32,33
 250 100 250 100 274 100 c 1,34,35
 274 84 274 84 274.5 50 c 128,-1,36
 275 16 275 16 275 0 c 1,37,38
 275 0 275 0 50 0 c 1,39,40
 50 0 50 0 50 100 c 1,41,42
 50 100 50 100 25 100 c 1,43,44
 25 100 25 100 25 200 c 1,45,46
 25 200 25 200 50 200 c 1,47,48
 50 200 50 200 50 300 c 1,49,50
 50 300 50 300 200 300 c 1,51,52
 200 300 200 300 200 400 c 1,53,54
 200 400 200 400 50 400 c 1,55,56
 50 400 50 400 50 500 c 1,24,25
EndSplineSet
Validated: 1
EndChar

StartChar: aring
Encoding: 229 229 173
Width: 300
GlyphClass: 2
Flags: W
LayerCount: 2
Back
Fore
SplineSet
175 600 m 1,0,1
 175 600 175 600 175 700 c 1,2,3
 175 700 175 700 225 700 c 1,4,5
 225 700 225 700 225 600 c 1,6,7
 225 600 225 600 175 600 c 1,0,1
75 600 m 1,8,9
 75 600 75 600 75 700 c 1,10,11
 75 700 75 700 125 700 c 1,12,13
 125 700 125 700 125 600 c 1,14,15
 125 600 125 600 75 600 c 1,8,9
75 200 m 1,16,17
 75 200 75 200 75 100 c 1,18,19
 75 100 75 100 200 100 c 1,20,21
 200 100 200 100 200 200 c 1,22,23
 200 200 200 200 75 200 c 1,16,17
50 500 m 1,24,25
 50 500 50 500 225 500 c 1,26,27
 225 500 225 500 225 400 c 1,28,29
 225 400 225 400 250 400 c 1,30,31
 250 400 250 400 250 100 c 1,32,33
 250 100 250 100 274 100 c 1,34,35
 274 84 274 84 274.5 50 c 128,-1,36
 275 16 275 16 275 0 c 1,37,38
 275 0 275 0 50 0 c 1,39,40
 50 0 50 0 50 100 c 1,41,42
 50 100 50 100 25 100 c 1,43,44
 25 100 25 100 25 200 c 1,45,46
 25 200 25 200 50 200 c 1,47,48
 50 200 50 200 50 300 c 1,49,50
 50 300 50 300 200 300 c 1,51,52
 200 300 200 300 200 400 c 1,53,54
 200 400 200 400 50 400 c 1,55,56
 50 400 50 400 50 500 c 1,24,25
EndSplineSet
Validated: 1
EndChar

StartChar: ae
Encoding: 230 230 174
Width: 300
GlyphClass: 2
Flags: W
LayerCount: 2
Back
Fore
SplineSet
212 300 m 1,0,1
 212 300 212 300 262 300 c 1,2,3
 262 300 262 300 262 400 c 1,4,5
 262 400 262 400 212 400 c 1,6,7
 212 400 212 400 212 300 c 1,0,1
88 100 m 1,8,9
 88 100 88 100 138 100 c 1,10,11
 138 100 138 100 138 200 c 1,12,13
 138 200 138 200 88 200 c 1,14,15
 88 200 88 200 88 100 c 1,8,9
62 0 m 1,16,17
 62 0 62 0 62 100 c 1,18,19
 62 100 62 100 38 100 c 1,20,21
 38 100 38 100 38 200 c 1,22,23
 38 200 38 200 62 200 c 1,24,25
 62 200 62 200 62 300 c 1,26,27
 62 300 62 300 138 300 c 1,28,29
 138 300 138 300 138 400 c 1,30,31
 138 400 138 400 62 400 c 1,32,33
 62 400 62 400 62 500 c 1,34,35
 62 500 62 500 162 500 c 1,36,37
 162 500 162 500 162 400 c 1,38,39
 162 400 162 400 212 400 c 1,40,41
 212 400 212 400 212 500 c 1,42,43
 212 500 212 500 288 500 c 1,44,45
 288 500 288 500 288 400 c 1,46,47
 288 400 288 400 312 400 c 1,48,49
 312 400 312 400 312 200 c 1,50,51
 312 200 312 200 212 200 c 1,52,53
 212 200 212 200 212 100 c 1,54,55
 212 100 212 100 312 100 c 1,56,57
 312 100 312 100 312 0 c 1,58,59
 312 0 312 0 188 0 c 1,60,61
 188 0 188 0 188 100 c 1,62,63
 188 100 188 100 162 100 c 1,64,65
 162 100 162 100 162 0 c 1,66,67
 162 0 162 0 62 0 c 1,16,17
EndSplineSet
Validated: 5
EndChar

StartChar: ccedilla
Encoding: 231 231 175
Width: 300
GlyphClass: 2
Flags: W
LayerCount: 2
Back
Fore
SplineSet
112 100 m 1,0,1
 112 100 112 100 88 100 c 1,2,3
 88 100 88 100 88 200 c 1,4,5
 88 200 88 200 62 200 c 1,6,7
 62 200 62 200 62 300 c 1,8,9
 62 300 62 300 88 300 c 1,10,11
 88 300 88 300 88 400 c 1,12,13
 88 400 88 400 112 400 c 1,14,15
 112 400 112 400 112 500 c 1,16,17
 112 500 112 500 288 500 c 1,18,19
 288 500 288 500 288 400 c 1,20,21
 288 400 288 400 138 400 c 1,22,23
 138 400 138 400 138 300 c 1,24,25
 138 300 138 300 112 300 c 1,26,27
 112 300 112 300 112 200 c 1,28,29
 112 200 112 200 138 200 c 1,30,31
 138 200 138 200 138 100 c 1,32,33
 138 100 138 100 288 100 c 1,34,35
 288 100 288 100 288 0 c 1,36,37
 288 0 288 0 212 0 c 1,38,39
 212 0 212 0 212 -100 c 1,40,41
 212 -100 212 -100 262 -100 c 1,42,43
 262 -100 262 -100 262 -200 c 1,44,45
 262 -200 262 -200 188 -200 c 1,46,47
 188 -200 188 -200 188 -100 c 1,48,49
 188 -100 188 -100 162 -100 c 1,50,51
 162 -100 162 -100 162 0 c 1,52,53
 162 0 162 0 112 0 c 1,54,55
 112 0 112 0 112 100 c 1,0,1
EndSplineSet
Validated: 1
EndChar

StartChar: egrave
Encoding: 232 232 176
Width: 300
GlyphClass: 2
Flags: W
LayerCount: 2
Back
Fore
SplineSet
112 400 m 1,0,1
 112 400 112 400 112 300 c 1,2,3
 112 300 112 300 238 300 c 1,4,5
 238 300 238 300 238 400 c 1,6,7
 238 400 238 400 112 400 c 1,0,1
88 400 m 1,8,9
 88 400 88 400 88 500 c 1,10,11
 88 500 88 500 262 500 c 1,12,13
 262 500 262 500 262 400 c 1,14,15
 262 400 262 400 288 400 c 1,16,17
 288 400 288 400 288 200 c 1,18,19
 288 200 288 200 112 200 c 1,20,21
 112 200 112 200 112 100 c 1,22,23
 112 100 112 100 262 100 c 1,24,25
 262 100 262 100 262 0 c 1,26,27
 262 0 262 0 88 0 c 1,28,29
 88 0 88 0 88 100 c 1,30,31
 88 100 88 100 62 100 c 1,32,33
 62 100 62 100 62 400 c 1,34,35
 62 400 62 400 88 400 c 1,8,9
EndSplineSet
Validated: 1
EndChar

StartChar: eacute
Encoding: 233 233 177
Width: 300
GlyphClass: 2
Flags: W
LayerCount: 2
Back
Fore
SplineSet
138 600 m 1,0,1
 138 600 138 600 138 700 c 1,2,3
 138 700 138 700 162 700 c 1,4,5
 162 700 162 700 162 800 c 1,6,7
 162 800 162 800 212 800 c 1,8,9
 212 800 212 800 212 700 c 1,10,11
 212 700 212 700 188 700 c 1,12,13
 188 700 188 700 188 600 c 1,14,15
 188 600 188 600 138 600 c 1,0,1
112 400 m 1,16,17
 112 400 112 400 112 300 c 1,18,19
 112 300 112 300 238 300 c 1,20,21
 238 300 238 300 238 400 c 1,22,23
 238 400 238 400 112 400 c 1,16,17
88 400 m 1,24,25
 88 400 88 400 88 500 c 1,26,27
 88 500 88 500 262 500 c 1,28,29
 262 500 262 500 262 400 c 1,30,31
 262 400 262 400 288 400 c 1,32,33
 288 400 288 400 288 200 c 1,34,35
 288 200 288 200 112 200 c 1,36,37
 112 200 112 200 112 100 c 1,38,39
 112 100 112 100 262 100 c 1,40,41
 262 100 262 100 262 0 c 1,42,43
 262 0 262 0 88 0 c 1,44,45
 88 0 88 0 88 100 c 1,46,47
 88 100 88 100 62 100 c 1,48,49
 62 100 62 100 62 400 c 1,50,51
 62 400 62 400 88 400 c 1,24,25
EndSplineSet
Validated: 1
EndChar

StartChar: ecircumflex
Encoding: 234 234 178
Width: 300
GlyphClass: 2
Flags: W
LayerCount: 2
Back
Fore
SplineSet
112 600 m 1,0,1
 112 600 112 600 112 700 c 1,2,3
 112 700 112 700 138 700 c 1,4,5
 138 700 138 700 138 800 c 1,6,7
 138 800 138 800 212 800 c 1,8,9
 212 800 212 800 212 700 c 1,10,11
 212 700 212 700 238 700 c 1,12,13
 238 700 238 700 238 600 c 1,14,15
 238 600 238 600 188 600 c 1,16,17
 188 600 188 600 188 700 c 1,18,19
 188 700 188 700 162 700 c 1,20,21
 162 700 162 700 162 600 c 1,22,23
 162 600 162 600 112 600 c 1,0,1
112 400 m 1,24,25
 112 400 112 400 112 300 c 1,26,27
 112 300 112 300 238 300 c 1,28,29
 238 300 238 300 238 400 c 1,30,31
 238 400 238 400 112 400 c 1,24,25
88 400 m 1,32,33
 88 400 88 400 88 500 c 1,34,35
 88 500 88 500 262 500 c 1,36,37
 262 500 262 500 262 400 c 1,38,39
 262 400 262 400 288 400 c 1,40,41
 288 400 288 400 288 200 c 1,42,43
 288 200 288 200 112 200 c 1,44,45
 112 200 112 200 112 100 c 1,46,47
 112 100 112 100 262 100 c 1,48,49
 262 100 262 100 262 0 c 1,50,51
 262 0 262 0 88 0 c 1,52,53
 88 0 88 0 88 100 c 1,54,55
 88 100 88 100 62 100 c 1,56,57
 62 100 62 100 62 400 c 1,58,59
 62 400 62 400 88 400 c 1,32,33
EndSplineSet
Validated: 1
EndChar

StartChar: edieresis
Encoding: 235 235 179
Width: 300
GlyphClass: 2
Flags: W
LayerCount: 2
Back
Fore
SplineSet
212 700 m 1,0,1
 212 700 212 700 262 700 c 1,2,3
 262 700 262 700 262 600 c 1,4,5
 262 600 262 600 212 600 c 1,6,7
 212 600 212 600 212 700 c 1,0,1
88 700 m 1,8,9
 88 700 88 700 138 700 c 1,10,11
 138 700 138 700 138 600 c 1,12,13
 138 600 138 600 88 600 c 1,14,15
 88 600 88 600 88 700 c 1,8,9
112 400 m 1,16,17
 112 400 112 400 112 300 c 1,18,19
 112 300 112 300 238 300 c 1,20,21
 238 300 238 300 238 400 c 1,22,23
 238 400 238 400 112 400 c 1,16,17
88 400 m 1,24,25
 88 400 88 400 88 500 c 1,26,27
 88 500 88 500 262 500 c 1,28,29
 262 500 262 500 262 400 c 1,30,31
 262 400 262 400 288 400 c 1,32,33
 288 400 288 400 288 200 c 1,34,35
 288 200 288 200 112 200 c 1,36,37
 112 200 112 200 112 100 c 1,38,39
 112 100 112 100 262 100 c 1,40,41
 262 100 262 100 262 0 c 1,42,43
 262 0 262 0 88 0 c 1,44,45
 88 0 88 0 88 100 c 1,46,47
 88 100 88 100 62 100 c 1,48,49
 62 100 62 100 62 400 c 1,50,51
 62 400 62 400 88 400 c 1,24,25
EndSplineSet
Validated: 1
EndChar

StartChar: igrave
Encoding: 236 236 180
Width: 300
GlyphClass: 2
Flags: W
LayerCount: 2
Back
Fore
SplineSet
125 600 m 1,0,1
 125 600 125 600 125 700 c 1,2,3
 125 700 125 700 100 700 c 1,4,5
 100 700 100 700 100 800 c 1,6,7
 100 800 100 800 150 800 c 1,8,9
 150 800 150 800 150 700 c 1,10,11
 150 700 150 700 175 700 c 1,12,13
 175 700 175 700 175 600 c 1,14,15
 175 600 175 600 125 600 c 1,0,1
100 500 m 1,16,17
 100 500 100 500 175 500 c 1,18,19
 175 434 175 434 174.5 300 c 128,-1,20
 174 166 174 166 174 100 c 1,21,22
 174 100 174 100 225 100 c 1,23,24
 225 100 225 100 225 0 c 1,25,26
 225 0 225 0 75 0 c 1,27,28
 75 0 75 0 75 100 c 1,29,30
 75 100 75 100 125 100 c 1,31,32
 125 100 125 100 125 400 c 1,33,34
 125 400 125 400 100 400 c 1,35,36
 100 400 100 400 100 500 c 1,16,17
EndSplineSet
Validated: 1
EndChar

StartChar: iacute
Encoding: 237 237 181
Width: 300
GlyphClass: 2
Flags: W
LayerCount: 2
Back
Fore
SplineSet
100 500 m 1,0,1
 100 500 100 500 175 500 c 1,2,3
 175 434 175 434 174.5 300 c 128,-1,4
 174 166 174 166 174 100 c 1,5,6
 174 100 174 100 225 100 c 1,7,8
 225 100 225 100 225 0 c 1,9,10
 225 0 225 0 75 0 c 1,11,12
 75 0 75 0 75 100 c 1,13,14
 75 100 75 100 125 100 c 1,15,16
 125 100 125 100 125 400 c 1,17,18
 125 400 125 400 100 400 c 1,19,20
 100 400 100 400 100 500 c 1,0,1
EndSplineSet
Validated: 1
EndChar

StartChar: icircumflex
Encoding: 238 238 182
Width: 300
GlyphClass: 2
Flags: W
LayerCount: 2
Back
Fore
SplineSet
75 600 m 1,0,1
 75 600 75 600 75 700 c 1,2,3
 75 700 75 700 100 700 c 1,4,5
 100 700 100 700 100 800 c 1,6,7
 100 800 100 800 175 800 c 1,8,9
 175 800 175 800 175 700 c 1,10,11
 175 700 175 700 200 700 c 1,12,13
 200 700 200 700 200 600 c 1,14,15
 200 600 200 600 150 600 c 1,16,17
 150 600 150 600 150 700 c 1,18,19
 150 700 150 700 125 700 c 1,20,21
 125 700 125 700 125 600 c 1,22,23
 125 600 125 600 75 600 c 1,0,1
100 500 m 1,24,25
 100 500 100 500 175 500 c 1,26,27
 175 434 175 434 174.5 300 c 128,-1,28
 174 166 174 166 174 100 c 1,29,30
 174 100 174 100 225 100 c 1,31,32
 225 100 225 100 225 0 c 1,33,34
 225 0 225 0 75 0 c 1,35,36
 75 0 75 0 75 100 c 1,37,38
 75 100 75 100 125 100 c 1,39,40
 125 100 125 100 125 400 c 1,41,42
 125 400 125 400 100 400 c 1,43,44
 100 400 100 400 100 500 c 1,24,25
EndSplineSet
Validated: 1
EndChar

StartChar: idieresis
Encoding: 239 239 183
Width: 300
GlyphClass: 2
Flags: W
LayerCount: 2
Back
Fore
SplineSet
100 500 m 1,0,1
 100 500 100 500 175 500 c 1,2,3
 175 434 175 434 174.5 300 c 128,-1,4
 174 166 174 166 174 100 c 1,5,6
 174 100 174 100 225 100 c 1,7,8
 225 100 225 100 225 0 c 1,9,10
 225 0 225 0 75 0 c 1,11,12
 75 0 75 0 75 100 c 1,13,14
 75 100 75 100 125 100 c 1,15,16
 125 100 125 100 125 400 c 1,17,18
 125 400 125 400 100 400 c 1,19,20
 100 400 100 400 100 500 c 1,0,1
100 700 m 1,21,22
 100 700 100 700 175 700 c 1,23,24
 175 700 175 700 175 600 c 1,25,26
 175 600 175 600 100 600 c 1,27,28
 100 600 100 600 100 700 c 1,21,22
EndSplineSet
Validated: 1
EndChar

StartChar: eth
Encoding: 240 240 184
Width: 300
GlyphClass: 2
Flags: W
LayerCount: 2
Back
Fore
SplineSet
100 100 m 1,0,1
 100 100 100 100 175 100 c 1,2,3
 175 100 175 100 175 200 c 1,4,5
 175 200 175 200 200 200 c 1,6,7
 200 200 200 200 200 300 c 1,8,9
 200 300 200 300 150 300 c 1,10,11
 150 300 150 300 150 400 c 1,12,13
 150 400 150 400 100 400 c 1,14,15
 100 400 100 400 100 300 c 1,16,17
 100 300 100 300 75 300 c 1,18,19
 75 300 75 300 75 200 c 1,20,21
 75 200 75 200 100 200 c 1,22,23
 100 200 100 200 100 100 c 1,0,1
75 0 m 1,24,25
 75 0 75 0 75 100 c 1,26,27
 75 100 75 100 50 100 c 1,28,29
 50 100 50 100 50 200 c 1,30,31
 50 200 50 200 25 200 c 1,32,33
 25 200 25 200 25 300 c 1,34,35
 25 300 25 300 50 300 c 1,36,37
 50 300 50 300 50 400 c 1,38,39
 50 400 50 400 75 400 c 1,40,41
 75 400 75 400 75 500 c 1,42,43
 75 500 75 500 175 500 c 1,44,45
 175 500 175 500 175 400 c 1,46,47
 175 400 175 400 200 400 c 1,48,49
 200 400 200 400 200 500 c 1,50,51
 200 500 200 500 175 500 c 1,52,53
 175 500 175 500 175 600 c 1,54,55
 175 600 175 600 125 600 c 1,56,57
 125 600 125 600 125 700 c 1,58,59
 125 700 125 700 275 700 c 1,60,61
 275 700 275 700 275 600 c 1,62,63
 275 600 275 600 225 600 c 1,64,65
 225 600 225 600 225 500 c 1,66,67
 225 500 225 500 250 500 c 1,68,69
 250 500 250 500 250 200 c 1,70,71
 250 200 250 200 225 200 c 1,72,73
 225 200 225 200 225 100 c 1,74,75
 225 100 225 100 200 100 c 1,76,77
 200 100 200 100 200 0 c 1,78,79
 200 0 200 0 75 0 c 1,24,25
EndSplineSet
Validated: 5
EndChar

StartChar: ntilde
Encoding: 241 241 185
Width: 300
GlyphClass: 2
Flags: W
LayerCount: 2
Back
Fore
SplineSet
88 600 m 1,0,1
 88 600 88 600 88 700 c 1,2,3
 88 700 88 700 112 700 c 1,4,5
 112 700 112 700 112 800 c 1,6,7
 112 800 112 800 188 800 c 1,8,9
 188 800 188 800 188 700 c 1,10,11
 188 700 188 700 212 700 c 1,12,13
 212 700 212 700 212 800 c 1,14,15
 212 800 212 800 262 800 c 1,16,17
 262 800 262 800 262 700 c 1,18,19
 262 700 262 700 238 700 c 1,20,21
 238 700 238 700 238 600 c 1,22,23
 238 600 238 600 162 600 c 1,24,25
 162 600 162 600 162 700 c 1,26,27
 162 700 162 700 138 700 c 1,28,29
 138 700 138 700 138 600 c 1,30,31
 138 600 138 600 88 600 c 1,0,1
62 0 m 1,32,33
 62 0 62 0 62 500 c 1,34,35
 62 500 62 500 112 500 c 1,36,37
 112 500 112 500 112 400 c 1,38,39
 112 400 112 400 138 400 c 1,40,41
 138 400 138 400 138 500 c 1,42,43
 138 500 138 500 262 500 c 1,44,45
 262 500 262 500 262 400 c 1,46,47
 262 400 262 400 288 400 c 1,48,49
 288 400 288 400 288 0 c 1,50,51
 288 0 288 0 238 0 c 1,52,53
 238 0 238 0 238 400 c 1,54,55
 238 400 238 400 138 400 c 1,56,57
 138 400 138 400 138 300 c 1,58,59
 138 300 138 300 112 300 c 1,60,61
 112 300 112 300 112 0 c 1,62,63
 112 0 112 0 62 0 c 1,32,33
EndSplineSet
Validated: 5
EndChar

StartChar: ograve
Encoding: 242 242 186
Width: 300
GlyphClass: 2
Flags: W
LayerCount: 2
Back
Fore
SplineSet
112 400 m 1,0,1
 112 400 112 400 112 100 c 1,2,3
 112 100 112 100 238 100 c 1,4,5
 238 100 238 100 238 400 c 1,6,7
 238 400 238 400 112 400 c 1,0,1
88 500 m 1,8,9
 88 500 88 500 262 500 c 1,10,11
 262 500 262 500 262 400 c 1,12,13
 262 400 262 400 288 400 c 1,14,15
 288 400 288 400 288 100 c 1,16,17
 288 100 288 100 262 100 c 1,18,19
 262 100 262 100 262 0 c 1,20,21
 262 0 262 0 88 0 c 1,22,23
 88 0 88 0 88 100 c 1,24,25
 88 100 88 100 62 100 c 1,26,27
 62 100 62 100 62 400 c 1,28,29
 62 400 62 400 88 400 c 1,30,31
 88 400 88 400 88 500 c 1,8,9
EndSplineSet
Validated: 1
EndChar

StartChar: oacute
Encoding: 243 243 187
Width: 300
GlyphClass: 2
Flags: W
LayerCount: 2
Back
Fore
SplineSet
138 600 m 1,0,1
 138 600 138 600 138 700 c 1,2,3
 138 700 138 700 162 700 c 1,4,5
 162 700 162 700 162 800 c 1,6,7
 162 800 162 800 212 800 c 1,8,9
 212 800 212 800 212 700 c 1,10,11
 212 700 212 700 188 700 c 1,12,13
 188 700 188 700 188 600 c 1,14,15
 188 600 188 600 138 600 c 1,0,1
112 400 m 1,16,17
 112 400 112 400 112 100 c 1,18,19
 112 100 112 100 238 100 c 1,20,21
 238 100 238 100 238 400 c 1,22,23
 238 400 238 400 112 400 c 1,16,17
88 500 m 1,24,25
 88 500 88 500 262 500 c 1,26,27
 262 500 262 500 262 400 c 1,28,29
 262 400 262 400 288 400 c 1,30,31
 288 400 288 400 288 100 c 1,32,33
 288 100 288 100 262 100 c 1,34,35
 262 100 262 100 262 0 c 1,36,37
 262 0 262 0 88 0 c 1,38,39
 88 0 88 0 88 100 c 1,40,41
 88 100 88 100 62 100 c 1,42,43
 62 100 62 100 62 400 c 1,44,45
 62 400 62 400 88 400 c 1,46,47
 88 400 88 400 88 500 c 1,24,25
EndSplineSet
Validated: 1
EndChar

StartChar: ocircumflex
Encoding: 244 244 188
Width: 300
GlyphClass: 2
Flags: W
LayerCount: 2
Back
Fore
SplineSet
112 600 m 1,0,1
 112 600 112 600 112 700 c 1,2,3
 112 700 112 700 138 700 c 1,4,5
 138 700 138 700 138 800 c 1,6,7
 138 800 138 800 212 800 c 1,8,9
 212 800 212 800 212 700 c 1,10,11
 212 700 212 700 238 700 c 1,12,13
 238 700 238 700 238 600 c 1,14,15
 238 600 238 600 188 600 c 1,16,17
 188 600 188 600 188 700 c 1,18,19
 188 700 188 700 162 700 c 1,20,21
 162 700 162 700 162 600 c 1,22,23
 162 600 162 600 112 600 c 1,0,1
112 400 m 1,24,25
 112 400 112 400 112 100 c 1,26,27
 112 100 112 100 238 100 c 1,28,29
 238 100 238 100 238 400 c 1,30,31
 238 400 238 400 112 400 c 1,24,25
88 500 m 1,32,33
 88 500 88 500 262 500 c 1,34,35
 262 500 262 500 262 400 c 1,36,37
 262 400 262 400 288 400 c 1,38,39
 288 400 288 400 288 100 c 1,40,41
 288 100 288 100 262 100 c 1,42,43
 262 100 262 100 262 0 c 1,44,45
 262 0 262 0 88 0 c 1,46,47
 88 0 88 0 88 100 c 1,48,49
 88 100 88 100 62 100 c 1,50,51
 62 100 62 100 62 400 c 1,52,53
 62 400 62 400 88 400 c 1,54,55
 88 400 88 400 88 500 c 1,32,33
EndSplineSet
Validated: 1
EndChar

StartChar: otilde
Encoding: 245 245 189
Width: 300
GlyphClass: 2
Flags: W
LayerCount: 2
Back
Fore
SplineSet
88 600 m 1,0,1
 88 600 88 600 88 700 c 1,2,3
 88 700 88 700 112 700 c 1,4,5
 112 700 112 700 112 800 c 1,6,7
 112 800 112 800 188 800 c 1,8,9
 188 800 188 800 188 700 c 1,10,11
 188 700 188 700 212 700 c 1,12,13
 212 700 212 700 212 800 c 1,14,15
 212 800 212 800 262 800 c 1,16,17
 262 800 262 800 262 700 c 1,18,19
 262 700 262 700 238 700 c 1,20,21
 238 700 238 700 238 600 c 1,22,23
 238 600 238 600 162 600 c 1,24,25
 162 600 162 600 162 700 c 1,26,27
 162 700 162 700 138 700 c 1,28,29
 138 700 138 700 138 600 c 1,30,31
 138 600 138 600 88 600 c 1,0,1
112 400 m 1,32,33
 112 400 112 400 112 100 c 1,34,35
 112 100 112 100 238 100 c 1,36,37
 238 100 238 100 238 400 c 1,38,39
 238 400 238 400 112 400 c 1,32,33
88 500 m 1,40,41
 88 500 88 500 262 500 c 1,42,43
 262 500 262 500 262 400 c 1,44,45
 262 400 262 400 288 400 c 1,46,47
 288 400 288 400 288 100 c 1,48,49
 288 100 288 100 262 100 c 1,50,51
 262 100 262 100 262 0 c 1,52,53
 262 0 262 0 88 0 c 1,54,55
 88 0 88 0 88 100 c 1,56,57
 88 100 88 100 62 100 c 1,58,59
 62 100 62 100 62 400 c 1,60,61
 62 400 62 400 88 400 c 1,62,63
 88 400 88 400 88 500 c 1,40,41
EndSplineSet
Validated: 1
EndChar

StartChar: odieresis
Encoding: 246 246 190
Width: 300
GlyphClass: 2
Flags: W
LayerCount: 2
Back
Fore
SplineSet
212 600 m 1,0,1
 212 600 212 600 212 700 c 1,2,3
 212 700 212 700 262 700 c 1,4,5
 262 700 262 700 262 600 c 1,6,7
 262 600 262 600 212 600 c 1,0,1
88 600 m 1,8,9
 88 600 88 600 88 700 c 1,10,11
 88 700 88 700 138 700 c 1,12,13
 138 700 138 700 138 600 c 1,14,15
 138 600 138 600 88 600 c 1,8,9
112 400 m 1,16,17
 112 400 112 400 112 100 c 1,18,19
 112 100 112 100 238 100 c 1,20,21
 238 100 238 100 238 400 c 1,22,23
 238 400 238 400 112 400 c 1,16,17
88 500 m 1,24,25
 88 500 88 500 262 500 c 1,26,27
 262 500 262 500 262 400 c 1,28,29
 262 400 262 400 288 400 c 1,30,31
 288 400 288 400 288 100 c 1,32,33
 288 100 288 100 262 100 c 1,34,35
 262 100 262 100 262 0 c 1,36,37
 262 0 262 0 88 0 c 1,38,39
 88 0 88 0 88 100 c 1,40,41
 88 100 88 100 62 100 c 1,42,43
 62 100 62 100 62 400 c 1,44,45
 62 400 62 400 88 400 c 1,46,47
 88 400 88 400 88 500 c 1,24,25
EndSplineSet
Validated: 1
EndChar

StartChar: divide
Encoding: 247 247 191
Width: 300
GlyphClass: 2
Flags: W
LayerCount: 2
Back
Fore
SplineSet
125 100 m 1,0,1
 125 100 125 100 125 200 c 1,2,3
 125 200 125 200 175 200 c 1,4,5
 175 200 175 200 175 100 c 1,6,7
 175 100 175 100 125 100 c 1,0,1
50 300 m 1,8,9
 50 300 50 300 50 400 c 1,10,11
 50 400 50 400 250 400 c 1,12,13
 250 400 250 400 250 300 c 1,14,15
 250 300 250 300 50 300 c 1,8,9
125 500 m 1,16,17
 125 500 125 500 125 600 c 1,18,19
 125 600 125 600 175 600 c 1,20,21
 175 600 175 600 175 500 c 1,22,23
 175 500 175 500 125 500 c 1,16,17
EndSplineSet
Validated: 1
EndChar

StartChar: oslash
Encoding: 248 248 192
Width: 300
GlyphClass: 2
Flags: W
LayerCount: 2
Back
Fore
SplineSet
112 400 m 1,0,1
 112 400 112 400 112 100 c 1,2,3
 112 100 112 100 238 100 c 1,4,5
 238 100 238 100 238 400 c 1,6,7
 238 400 238 400 112 400 c 1,0,1
88 500 m 1,8,9
 88 500 88 500 262 500 c 1,10,11
 262 500 262 500 262 400 c 1,12,13
 262 400 262 400 288 400 c 1,14,15
 288 400 288 400 288 100 c 1,16,17
 288 100 288 100 262 100 c 1,18,19
 262 100 262 100 262 0 c 1,20,21
 262 0 262 0 88 0 c 1,22,23
 88 0 88 0 88 100 c 1,24,25
 88 100 88 100 62 100 c 1,26,27
 62 100 62 100 62 400 c 1,28,29
 62 400 62 400 88 400 c 1,30,31
 88 400 88 400 88 500 c 1,8,9
EndSplineSet
Validated: 1
EndChar

StartChar: ugrave
Encoding: 249 249 193
Width: 300
GlyphClass: 2
Flags: W
LayerCount: 2
Back
Fore
SplineSet
62 500 m 1,0,1
 62 500 62 500 112 500 c 1,2,3
 112 500 112 500 112 100 c 1,4,5
 112 100 112 100 212 100 c 1,6,7
 212 100 212 100 212 200 c 1,8,9
 212 200 212 200 238 200 c 1,10,11
 238 200 238 200 238 500 c 1,12,13
 238 500 238 500 288 500 c 1,14,15
 288 500 288 500 288 0 c 1,16,17
 288 0 288 0 238 0 c 1,18,19
 238 0 238 0 238 100 c 1,20,21
 238 100 238 100 212 100 c 1,22,23
 212 100 212 100 212 0 c 1,24,25
 212 0 212 0 88 0 c 1,26,27
 88 0 88 0 88 100 c 1,28,29
 88 100 88 100 62 100 c 1,30,31
 62 100 62 100 62 500 c 1,0,1
EndSplineSet
Validated: 5
EndChar

StartChar: uacute
Encoding: 250 250 194
Width: 300
GlyphClass: 2
Flags: W
LayerCount: 2
Back
Fore
SplineSet
138 600 m 1,0,1
 138 600 138 600 138 700 c 1,2,3
 138 700 138 700 162 700 c 1,4,5
 162 700 162 700 162 800 c 1,6,7
 162 800 162 800 212 800 c 1,8,9
 212 800 212 800 212 700 c 1,10,11
 212 700 212 700 188 700 c 1,12,13
 188 700 188 700 188 600 c 1,14,15
 188 600 188 600 138 600 c 1,0,1
62 500 m 1,16,17
 62 500 62 500 112 500 c 1,18,19
 112 500 112 500 112 100 c 1,20,21
 112 100 112 100 212 100 c 1,22,23
 212 100 212 100 212 200 c 1,24,25
 212 200 212 200 238 200 c 1,26,27
 238 200 238 200 238 500 c 1,28,29
 238 500 238 500 288 500 c 1,30,31
 288 500 288 500 288 0 c 1,32,33
 288 0 288 0 238 0 c 1,34,35
 238 0 238 0 238 100 c 1,36,37
 238 100 238 100 212 100 c 1,38,39
 212 100 212 100 212 0 c 1,40,41
 212 0 212 0 88 0 c 1,42,43
 88 0 88 0 88 100 c 1,44,45
 88 100 88 100 62 100 c 1,46,47
 62 100 62 100 62 500 c 1,16,17
EndSplineSet
Validated: 5
EndChar

StartChar: ucircumflex
Encoding: 251 251 195
Width: 300
GlyphClass: 2
Flags: W
LayerCount: 2
Back
Fore
SplineSet
112 600 m 1,0,1
 112 600 112 600 112 700 c 1,2,3
 112 700 112 700 138 700 c 1,4,5
 138 700 138 700 138 800 c 1,6,7
 138 800 138 800 212 800 c 1,8,9
 212 800 212 800 212 700 c 1,10,11
 212 700 212 700 238 700 c 1,12,13
 238 700 238 700 238 600 c 1,14,15
 238 600 238 600 188 600 c 1,16,17
 188 600 188 600 188 700 c 1,18,19
 188 700 188 700 162 700 c 1,20,21
 162 700 162 700 162 600 c 1,22,23
 162 600 162 600 112 600 c 1,0,1
62 500 m 1,24,25
 62 500 62 500 112 500 c 1,26,27
 112 500 112 500 112 100 c 1,28,29
 112 100 112 100 212 100 c 1,30,31
 212 100 212 100 212 200 c 1,32,33
 212 200 212 200 238 200 c 1,34,35
 238 200 238 200 238 500 c 1,36,37
 238 500 238 500 288 500 c 1,38,39
 288 500 288 500 288 0 c 1,40,41
 288 0 288 0 238 0 c 1,42,43
 238 0 238 0 238 100 c 1,44,45
 238 100 238 100 212 100 c 1,46,47
 212 100 212 100 212 0 c 1,48,49
 212 0 212 0 88 0 c 1,50,51
 88 0 88 0 88 100 c 1,52,53
 88 100 88 100 62 100 c 1,54,55
 62 100 62 100 62 500 c 1,24,25
EndSplineSet
Validated: 5
EndChar

StartChar: udieresis
Encoding: 252 252 196
Width: 300
GlyphClass: 2
Flags: W
LayerCount: 2
Back
Fore
SplineSet
62 500 m 1,0,1
 62 500 62 500 112 500 c 1,2,3
 112 500 112 500 112 100 c 1,4,5
 112 100 112 100 212 100 c 1,6,7
 212 100 212 100 212 200 c 1,8,9
 212 200 212 200 238 200 c 1,10,11
 238 200 238 200 238 500 c 1,12,13
 238 500 238 500 288 500 c 1,14,15
 288 500 288 500 288 0 c 1,16,17
 288 0 288 0 238 0 c 1,18,19
 238 0 238 0 238 100 c 1,20,21
 238 100 238 100 212 100 c 1,22,23
 212 100 212 100 212 0 c 1,24,25
 212 0 212 0 88 0 c 1,26,27
 88 0 88 0 88 100 c 1,28,29
 88 100 88 100 62 100 c 1,30,31
 62 100 62 100 62 500 c 1,0,1
EndSplineSet
Validated: 5
EndChar

StartChar: yacute
Encoding: 253 253 197
Width: 300
GlyphClass: 2
Flags: W
LayerCount: 2
Back
Fore
SplineSet
138 600 m 1,0,1
 138 600 138 600 138 700 c 1,2,3
 138 700 138 700 162 700 c 1,4,5
 162 700 162 700 162 800 c 1,6,7
 162 800 162 800 212 800 c 1,8,9
 212 800 212 800 212 700 c 1,10,11
 212 700 212 700 188 700 c 1,12,13
 188 700 188 700 188 600 c 1,14,15
 188 600 188 600 138 600 c 1,0,1
62 500 m 1,16,17
 62 500 62 500 112 500 c 1,18,19
 112 500 112 500 112 400 c 1,20,21
 112 400 112 400 138 400 c 1,22,23
 138 400 138 400 138 300 c 1,24,25
 138 300 138 300 162 300 c 1,26,27
 162 300 162 300 162 200 c 1,28,29
 162 200 162 200 188 200 c 1,30,31
 188 200 188 200 188 300 c 1,32,33
 188 300 188 300 212 300 c 1,34,35
 212 300 212 300 212 400 c 1,36,37
 212 400 212 400 238 400 c 1,38,39
 238 400 238 400 238 500 c 1,40,41
 238 500 238 500 288 500 c 1,42,43
 288 500 288 500 288 400 c 1,44,45
 288 400 288 400 262 400 c 1,46,47
 262 400 262 400 262 300 c 1,48,49
 262 300 262 300 238 300 c 1,50,51
 238 300 238 300 238 200 c 1,52,53
 238 200 238 200 212 200 c 1,54,55
 212 200 212 200 212 100 c 1,56,57
 212 100 212 100 188 100 c 1,58,59
 188 100 188 100 188 0 c 1,60,61
 188 0 188 0 162 0 c 1,62,63
 162 0 162 0 162 -100 c 1,64,65
 162 -100 162 -100 138 -100 c 1,66,67
 138 -100 138 -100 138 -200 c 1,68,69
 138 -200 138 -200 62 -200 c 1,70,71
 62 -200 62 -200 62 -100 c 1,72,73
 62 -100 62 -100 112 -100 c 1,74,75
 112 -100 112 -100 112 0 c 1,76,77
 112 0 112 0 138 0 c 1,78,79
 138 0 138 0 138 200 c 1,80,81
 138 200 138 200 112 200 c 1,82,83
 112 200 112 200 112 300 c 1,84,85
 112 300 112 300 88 300 c 1,86,87
 88 300 88 300 88 400 c 1,88,89
 88 400 88 400 62 400 c 1,90,91
 62 400 62 400 62 500 c 1,16,17
EndSplineSet
Validated: 1
EndChar

StartChar: ydieresis
Encoding: 255 255 198
Width: 300
GlyphClass: 2
Flags: W
LayerCount: 2
Back
Fore
SplineSet
138 600 m 1,0,1
 138 600 138 600 138 700 c 1,2,3
 138 700 138 700 162 700 c 1,4,5
 162 700 162 700 162 800 c 1,6,7
 162 800 162 800 212 800 c 1,8,9
 212 800 212 800 212 700 c 1,10,11
 212 700 212 700 188 700 c 1,12,13
 188 700 188 700 188 600 c 1,14,15
 188 600 188 600 138 600 c 1,0,1
62 500 m 1,16,17
 62 500 62 500 112 500 c 1,18,19
 112 500 112 500 112 400 c 1,20,21
 112 400 112 400 138 400 c 1,22,23
 138 400 138 400 138 300 c 1,24,25
 138 300 138 300 162 300 c 1,26,27
 162 300 162 300 162 200 c 1,28,29
 162 200 162 200 188 200 c 1,30,31
 188 200 188 200 188 300 c 1,32,33
 188 300 188 300 212 300 c 1,34,35
 212 300 212 300 212 400 c 1,36,37
 212 400 212 400 238 400 c 1,38,39
 238 400 238 400 238 500 c 1,40,41
 238 500 238 500 288 500 c 1,42,43
 288 500 288 500 288 400 c 1,44,45
 288 400 288 400 262 400 c 1,46,47
 262 400 262 400 262 300 c 1,48,49
 262 300 262 300 238 300 c 1,50,51
 238 300 238 300 238 200 c 1,52,53
 238 200 238 200 212 200 c 1,54,55
 212 200 212 200 212 100 c 1,56,57
 212 100 212 100 188 100 c 1,58,59
 188 100 188 100 188 0 c 1,60,61
 188 0 188 0 162 0 c 1,62,63
 162 0 162 0 162 -100 c 1,64,65
 162 -100 162 -100 138 -100 c 1,66,67
 138 -100 138 -100 138 -200 c 1,68,69
 138 -200 138 -200 62 -200 c 1,70,71
 62 -200 62 -200 62 -100 c 1,72,73
 62 -100 62 -100 112 -100 c 1,74,75
 112 -100 112 -100 112 0 c 1,76,77
 112 0 112 0 138 0 c 1,78,79
 138 0 138 0 138 200 c 1,80,81
 138 200 138 200 112 200 c 1,82,83
 112 200 112 200 112 300 c 1,84,85
 112 300 112 300 88 300 c 1,86,87
 88 300 88 300 88 400 c 1,88,89
 88 400 88 400 62 400 c 1,90,91
 62 400 62 400 62 500 c 1,16,17
EndSplineSet
Validated: 1
EndChar

StartChar: Ccircumflex
Encoding: 264 264 199
Width: 300
GlyphClass: 2
Flags: W
LayerCount: 2
Back
Fore
SplineSet
112 700 m 1,0,1
 112 700 112 700 112 800 c 1,2,3
 112 800 112 800 262 800 c 1,4,5
 262 800 262 800 262 700 c 1,6,7
 262 700 262 700 112 700 c 1,0,1
112 600 m 1,8,9
 112 600 112 600 262 600 c 1,10,11
 262 600 262 600 262 500 c 1,12,13
 262 500 262 500 288 500 c 1,14,15
 288 500 288 500 288 400 c 1,16,17
 288 400 288 400 238 400 c 1,18,19
 238 400 238 400 238 500 c 1,20,21
 238 500 238 500 138 500 c 1,22,23
 138 500 138 500 138 400 c 1,24,25
 138 400 138 400 112 400 c 1,26,27
 112 400 112 400 112 200 c 1,28,29
 112 200 112 200 138 200 c 1,30,31
 138 200 138 200 138 100 c 1,32,33
 138 100 138 100 238 100 c 1,34,35
 238 100 238 100 238 200 c 1,36,37
 238 200 238 200 288 200 c 1,38,39
 288 200 288 200 288 100 c 1,40,41
 288 100 288 100 262 100 c 1,42,43
 262 100 262 100 262 0 c 1,44,45
 262 0 262 0 112 0 c 1,46,47
 112 0 112 0 112 100 c 1,48,49
 112 100 112 100 88 100 c 1,50,51
 88 100 88 100 88 200 c 1,52,53
 88 200 88 200 62 200 c 1,54,55
 62 200 62 200 62 400 c 1,56,57
 62 400 62 400 88 400 c 1,58,59
 88 400 88 400 88 500 c 1,60,61
 88 500 88 500 112 500 c 1,62,63
 112 500 112 500 112 600 c 1,8,9
EndSplineSet
Validated: 1
EndChar

StartChar: ccircumflex
Encoding: 265 265 200
Width: 300
GlyphClass: 2
Flags: W
LayerCount: 2
Back
Fore
SplineSet
138 600 m 1,0,1
 138 600 138 600 138 700 c 1,2,3
 138 700 138 700 162 700 c 1,4,5
 162 700 162 700 162 800 c 1,6,7
 162 800 162 800 238 800 c 1,8,9
 238 800 238 800 238 700 c 1,10,11
 238 700 238 700 262 700 c 1,12,13
 262 700 262 700 262 600 c 1,14,15
 262 600 262 600 212 600 c 1,16,17
 212 600 212 600 212 700 c 1,18,19
 212 700 212 700 188 700 c 1,20,21
 188 700 188 700 188 600 c 1,22,23
 188 600 188 600 138 600 c 1,0,1
112 500 m 1,24,25
 112 500 112 500 288 500 c 1,26,27
 288 500 288 500 288 400 c 1,28,29
 288 400 288 400 138 400 c 1,30,31
 138 400 138 400 138 300 c 1,32,33
 138 300 138 300 112 300 c 1,34,35
 112 300 112 300 112 200 c 1,36,37
 112 200 112 200 138 200 c 1,38,39
 138 200 138 200 138 100 c 1,40,41
 138 100 138 100 288 100 c 1,42,43
 288 100 288 100 288 0 c 1,44,45
 288 0 288 0 112 0 c 1,46,47
 112 0 112 0 112 100 c 1,48,49
 112 100 112 100 88 100 c 1,50,51
 88 100 88 100 88 200 c 1,52,53
 88 200 88 200 62 200 c 1,54,55
 62 200 62 200 62 300 c 1,56,57
 62 300 62 300 88 300 c 1,58,59
 88 300 88 300 88 400 c 1,60,61
 88 400 88 400 112 400 c 1,62,63
 112 400 112 400 112 500 c 1,24,25
EndSplineSet
Validated: 1
EndChar

StartChar: Cdotaccent
Encoding: 266 266 201
Width: 300
GlyphClass: 2
Flags: W
LayerCount: 2
Back
Fore
SplineSet
162 700 m 1,0,1
 162 700 162 700 162 800 c 1,2,3
 162 800 162 800 212 800 c 1,4,5
 212 800 212 800 212 700 c 1,6,7
 212 700 212 700 162 700 c 1,0,1
112 600 m 1,8,9
 112 600 112 600 262 600 c 1,10,11
 262 600 262 600 262 500 c 1,12,13
 262 500 262 500 288 500 c 1,14,15
 288 500 288 500 288 400 c 1,16,17
 288 400 288 400 238 400 c 1,18,19
 238 400 238 400 238 500 c 1,20,21
 238 500 238 500 138 500 c 1,22,23
 138 500 138 500 138 400 c 1,24,25
 138 400 138 400 112 400 c 1,26,27
 112 400 112 400 112 200 c 1,28,29
 112 200 112 200 138 200 c 1,30,31
 138 200 138 200 138 100 c 1,32,33
 138 100 138 100 238 100 c 1,34,35
 238 100 238 100 238 200 c 1,36,37
 238 200 238 200 288 200 c 1,38,39
 288 200 288 200 288 100 c 1,40,41
 288 100 288 100 262 100 c 1,42,43
 262 100 262 100 262 0 c 1,44,45
 262 0 262 0 112 0 c 1,46,47
 112 0 112 0 112 100 c 1,48,49
 112 100 112 100 88 100 c 1,50,51
 88 100 88 100 88 200 c 1,52,53
 88 200 88 200 62 200 c 1,54,55
 62 200 62 200 62 400 c 1,56,57
 62 400 62 400 88 400 c 1,58,59
 88 400 88 400 88 500 c 1,60,61
 88 500 88 500 112 500 c 1,62,63
 112 500 112 500 112 600 c 1,8,9
EndSplineSet
Validated: 1
EndChar

StartChar: cdotaccent
Encoding: 267 267 202
Width: 300
GlyphClass: 2
Flags: W
LayerCount: 2
Back
Fore
SplineSet
162 600 m 1,0,1
 162 600 162 600 162 700 c 1,2,3
 162 700 162 700 212 700 c 1,4,5
 212 700 212 700 212 600 c 1,6,7
 212 600 212 600 162 600 c 1,0,1
112 500 m 1,8,9
 112 500 112 500 288 500 c 1,10,11
 288 500 288 500 288 400 c 1,12,13
 288 400 288 400 138 400 c 1,14,15
 138 400 138 400 138 300 c 1,16,17
 138 300 138 300 112 300 c 1,18,19
 112 300 112 300 112 200 c 1,20,21
 112 200 112 200 138 200 c 1,22,23
 138 200 138 200 138 100 c 1,24,25
 138 100 138 100 288 100 c 1,26,27
 288 100 288 100 288 0 c 1,28,29
 288 0 288 0 112 0 c 1,30,31
 112 0 112 0 112 100 c 1,32,33
 112 100 112 100 88 100 c 1,34,35
 88 100 88 100 88 200 c 1,36,37
 88 200 88 200 62 200 c 1,38,39
 62 200 62 200 62 300 c 1,40,41
 62 300 62 300 88 300 c 1,42,43
 88 300 88 300 88 400 c 1,44,45
 88 400 88 400 112 400 c 1,46,47
 112 400 112 400 112 500 c 1,8,9
EndSplineSet
Validated: 1
EndChar

StartChar: Ccaron
Encoding: 268 268 203
Width: 300
GlyphClass: 2
Flags: W
LayerCount: 2
Back
Fore
SplineSet
112 500 m 1,0,1
 112 500 112 500 112 600 c 1,2,3
 112 600 112 600 138 600 c 1,4,5
 138 600 138 600 138 700 c 1,6,7
 138 700 138 700 112 700 c 1,8,9
 112 700 112 700 112 800 c 1,10,11
 112 800 112 800 162 800 c 1,12,13
 162 800 162 800 162 700 c 1,14,15
 162 700 162 700 188 700 c 1,16,17
 188 700 188 700 188 800 c 1,18,19
 188 800 188 800 238 800 c 1,20,21
 238 800 238 800 238 700 c 1,22,23
 238 700 238 700 212 700 c 1,24,25
 212 700 212 700 212 600 c 1,26,27
 212 600 212 600 262 600 c 1,28,29
 262 600 262 600 262 500 c 1,30,31
 262 500 262 500 288 500 c 1,32,33
 288 500 288 500 288 400 c 1,34,35
 288 400 288 400 238 400 c 1,36,37
 238 400 238 400 238 500 c 1,38,39
 238 500 238 500 138 500 c 1,40,41
 138 500 138 500 138 400 c 1,42,43
 138 400 138 400 112 400 c 1,44,45
 112 400 112 400 112 200 c 1,46,47
 112 200 112 200 138 200 c 1,48,49
 138 200 138 200 138 100 c 1,50,51
 138 100 138 100 238 100 c 1,52,53
 238 100 238 100 238 200 c 1,54,55
 238 200 238 200 288 200 c 1,56,57
 288 200 288 200 288 100 c 1,58,59
 288 100 288 100 262 100 c 1,60,61
 262 100 262 100 262 0 c 1,62,63
 262 0 262 0 112 0 c 1,64,65
 112 0 112 0 112 100 c 1,66,67
 112 100 112 100 88 100 c 1,68,69
 88 100 88 100 88 200 c 1,70,71
 88 200 88 200 62 200 c 1,72,73
 62 200 62 200 62 400 c 1,74,75
 62 400 62 400 88 400 c 1,76,77
 88 400 88 400 88 500 c 1,78,79
 88 500 88 500 112 500 c 1,0,1
EndSplineSet
Validated: 1
EndChar

StartChar: ccaron
Encoding: 269 269 204
Width: 300
GlyphClass: 2
Flags: W
LayerCount: 2
Back
Fore
SplineSet
138 700 m 1,0,1
 138 700 138 700 138 800 c 1,2,3
 138 800 138 800 188 800 c 1,4,5
 188 800 188 800 188 700 c 1,6,7
 188 700 188 700 212 700 c 1,8,9
 212 700 212 700 212 800 c 1,10,11
 212 800 212 800 262 800 c 1,12,13
 262 800 262 800 262 700 c 1,14,15
 262 700 262 700 238 700 c 1,16,17
 238 700 238 700 238 600 c 1,18,19
 238 600 238 600 162 600 c 1,20,21
 162 600 162 600 162 700 c 1,22,23
 162 700 162 700 138 700 c 1,0,1
112 500 m 1,24,25
 112 500 112 500 288 500 c 1,26,27
 288 500 288 500 288 400 c 1,28,29
 288 400 288 400 138 400 c 1,30,31
 138 400 138 400 138 300 c 1,32,33
 138 300 138 300 112 300 c 1,34,35
 112 300 112 300 112 200 c 1,36,37
 112 200 112 200 138 200 c 1,38,39
 138 200 138 200 138 100 c 1,40,41
 138 100 138 100 288 100 c 1,42,43
 288 100 288 100 288 0 c 1,44,45
 288 0 288 0 112 0 c 1,46,47
 112 0 112 0 112 100 c 1,48,49
 112 100 112 100 88 100 c 1,50,51
 88 100 88 100 88 200 c 1,52,53
 88 200 88 200 62 200 c 1,54,55
 62 200 62 200 62 300 c 1,56,57
 62 300 62 300 88 300 c 1,58,59
 88 300 88 300 88 400 c 1,60,61
 88 400 88 400 112 400 c 1,62,63
 112 400 112 400 112 500 c 1,24,25
EndSplineSet
Validated: 1
EndChar

StartChar: Dcaron
Encoding: 270 270 205
Width: 300
GlyphClass: 2
Flags: W
LayerCount: 2
Back
Fore
SplineSet
112 500 m 1,0,1
 112 500 112 500 112 100 c 1,2,3
 112 100 112 100 212 100 c 1,4,5
 212 100 212 100 212 200 c 1,6,7
 212 200 212 200 238 200 c 1,8,9
 238 200 238 200 238 400 c 1,10,11
 238 400 238 400 212 400 c 1,12,13
 212 400 212 400 212 500 c 1,14,15
 212 500 212 500 112 500 c 1,0,1
238 500 m 1,16,17
 238 500 238 500 262 500 c 1,18,19
 262 500 262 500 262 400 c 1,20,21
 262 400 262 400 288 400 c 1,22,23
 288 400 288 400 288 200 c 1,24,25
 288 200 288 200 262 200 c 1,26,27
 262 200 262 200 262 100 c 1,28,29
 262 100 262 100 238 100 c 1,30,31
 238 100 238 100 238 0 c 1,32,33
 238 0 238 0 62 0 c 1,34,35
 62 0 62 0 62 600 c 1,36,37
 62 600 62 600 112 600 c 1,38,39
 112 600 112 600 112 700 c 1,40,41
 112 700 112 700 88 700 c 1,42,43
 88 700 88 700 88 800 c 1,44,45
 88 800 88 800 138 800 c 1,46,47
 138 800 138 800 138 700 c 1,48,49
 138 700 138 700 162 700 c 1,50,51
 162 700 162 700 162 800 c 1,52,53
 162 800 162 800 212 800 c 1,54,55
 212 800 212 800 212 700 c 1,56,57
 212 700 212 700 188 700 c 1,58,59
 188 700 188 700 188 600 c 1,60,61
 188 600 188 600 238 600 c 1,62,63
 238 600 238 600 238 500 c 1,16,17
EndSplineSet
Validated: 1
EndChar

StartChar: dcaron
Encoding: 271 271 206
Width: 300
GlyphClass: 2
Flags: W
LayerCount: 2
Back
Fore
SplineSet
262 600 m 1,0,1
 262 600 262 600 262 800 c 1,2,3
 262 800 262 800 312 800 c 1,4,5
 312 800 312 800 312 600 c 1,6,7
 312 600 312 600 262 600 c 1,0,1
88 100 m 1,8,9
 88 100 88 100 188 100 c 1,10,11
 188 100 188 100 188 300 c 1,12,13
 188 300 188 300 162 300 c 1,14,15
 162 300 162 300 162 400 c 1,16,17
 162 400 162 400 88 400 c 1,18,19
 88 400 88 400 88 100 c 1,8,9
188 700 m 1,20,21
 188 700 188 700 238 700 c 1,22,23
 238 700 238 700 238 0 c 1,24,25
 238 0 238 0 62 0 c 1,26,27
 62 0 62 0 62 100 c 1,28,29
 62 100 62 100 38 100 c 1,30,31
 38 100 38 100 38 400 c 1,32,33
 38 400 38 400 62 400 c 1,34,35
 62 400 62 400 62 500 c 1,36,37
 62 500 62 500 162 500 c 1,38,39
 162 500 162 500 162 400 c 1,40,41
 162 400 162 400 188 400 c 1,42,43
 188 400 188 400 188 700 c 1,20,21
EndSplineSet
Validated: 5
EndChar

StartChar: Dcroat
Encoding: 272 272 207
Width: 300
GlyphClass: 2
Flags: W
LayerCount: 2
Back
Fore
SplineSet
188 100 m 1,0,1
 188 100 188 100 188 200 c 1,2,3
 188 200 188 200 212 200 c 1,4,5
 212 200 212 200 212 500 c 1,6,7
 212 500 212 500 188 500 c 1,8,9
 188 500 188 500 188 600 c 1,10,11
 188 600 188 600 88 600 c 1,12,13
 88 600 88 600 88 400 c 1,14,15
 88 400 88 400 138 400 c 1,16,17
 138 400 138 400 138 300 c 1,18,19
 138 300 138 300 88 300 c 1,20,21
 88 300 88 300 88 100 c 1,22,23
 88 100 88 100 188 100 c 1,0,1
38 700 m 1,24,25
 38 700 38 700 212 700 c 1,26,27
 212 700 212 700 212 600 c 1,28,29
 212 600 212 600 238 600 c 1,30,31
 238 600 238 600 238 500 c 1,32,33
 238 500 238 500 262 500 c 1,34,35
 262 500 262 500 262 200 c 1,36,37
 262 200 262 200 238 200 c 1,38,39
 238 200 238 200 238 100 c 1,40,41
 238 100 238 100 212 100 c 1,42,43
 212 100 212 100 212 0 c 1,44,45
 212 0 212 0 38 0 c 1,46,47
 38 0 38 0 38 300 c 1,48,49
 38 300 38 300 -12 300 c 1,50,51
 -12 300 -12 300 -12 400 c 1,52,53
 -12 400 -12 400 38 400 c 1,54,55
 38 400 38 400 38 700 c 1,24,25
EndSplineSet
Validated: 1
EndChar

StartChar: dcroat
Encoding: 273 273 208
Width: 300
GlyphClass: 2
Flags: W
LayerCount: 2
Back
Fore
SplineSet
88 100 m 1,0,1
 88 100 88 100 212 100 c 1,2,3
 212 100 212 100 212 300 c 1,4,5
 212 300 212 300 88 300 c 1,6,7
 88 300 88 300 88 100 c 1,0,1
62 0 m 1,8,9
 62 0 62 0 62 100 c 1,10,11
 62 100 62 100 38 100 c 1,12,13
 38 100 38 100 38 300 c 1,14,15
 38 300 38 300 62 300 c 1,16,17
 62 300 62 300 62 400 c 1,18,19
 62 400 62 400 212 400 c 1,20,21
 212 400 212 400 212 500 c 1,22,23
 212 500 212 500 162 500 c 1,24,25
 162 500 162 500 162 600 c 1,26,27
 162 600 162 600 212 600 c 1,28,29
 212 600 212 600 212 700 c 1,30,31
 212 700 212 700 262 700 c 1,32,33
 262 700 262 700 262 600 c 1,34,35
 262 600 262 600 312 600 c 1,36,37
 312 600 312 600 312 500 c 1,38,39
 312 500 312 500 262 500 c 1,40,41
 262 500 262 500 262 0 c 1,42,43
 262 0 262 0 62 0 c 1,8,9
EndSplineSet
Validated: 1
EndChar

StartChar: IJ
Encoding: 306 306 209
Width: 300
GlyphClass: 2
Flags: W
LayerCount: 2
Back
Fore
SplineSet
250 700 m 1,0,1
 250 700 250 700 300 700 c 1,2,3
 300 700 300 700 300 100 c 1,4,5
 300 100 300 100 275 100 c 1,6,7
 275 100 275 100 275 0 c 1,8,9
 275 0 275 0 175 0 c 1,10,11
 175 0 175 0 175 100 c 1,12,13
 175 100 175 100 150 100 c 1,14,15
 150 100 150 100 150 200 c 1,16,17
 150 200 150 200 200 200 c 1,18,19
 200 200 200 200 200 100 c 1,20,21
 200 100 200 100 250 100 c 1,22,23
 250 100 250 100 250 700 c 1,0,1
0 700 m 1,24,25
 0 700 0 700 150 700 c 1,26,27
 150 700 150 700 150 600 c 1,28,29
 150 600 150 600 100 600 c 1,30,31
 100 600 100 600 100 100 c 1,32,33
 100 100 100 100 150 100 c 1,34,35
 150 100 150 100 150 0 c 1,36,37
 150 0 150 0 0 0 c 1,38,39
 0 0 0 0 0 100 c 1,40,41
 0 100 0 100 50 100 c 1,42,43
 50 100 50 100 50 600 c 1,44,45
 50 600 50 600 0 600 c 1,46,47
 0 600 0 600 0 700 c 1,24,25
EndSplineSet
Validated: 5
EndChar

StartChar: ij
Encoding: 307 307 210
Width: 300
GlyphClass: 2
Flags: W
LayerCount: 2
Back
Fore
SplineSet
275 600 m 1,0,1
 275 600 275 600 275 700 c 1,2,3
 275 700 275 700 200 700 c 1,4,5
 200 700 200 700 200 600 c 1,6,7
 200 600 200 600 275 600 c 1,0,1
100 600 m 1,8,9
 100 600 100 600 100 700 c 1,10,11
 100 700 100 700 25 700 c 1,12,13
 25 700 25 700 25 600 c 1,14,15
 25 600 25 600 100 600 c 1,8,9
125 0 m 1,16,17
 125 0 125 0 175 0 c 1,18,19
 175 0 175 0 175 -100 c 1,20,21
 175 -100 175 -100 225 -100 c 1,22,23
 225 -100 225 -100 225 400 c 1,24,25
 225 400 225 400 200 400 c 1,26,27
 200 400 200 400 200 500 c 1,28,29
 200 500 200 500 275 500 c 1,30,31
 275 500 275 500 275 -100 c 1,32,33
 275 -100 275 -100 250 -100 c 1,34,35
 250 -100 250 -100 250 -200 c 1,36,37
 250 -200 250 -200 150 -200 c 1,38,39
 150 -200 150 -200 150 -100 c 1,40,41
 150 -100 150 -100 125 -100 c 1,42,43
 125 -100 125 -100 125 0 c 1,16,17
25 0 m 1,44,45
 25 0 25 0 25 100 c 1,46,47
 25 100 25 100 50 100 c 1,48,49
 50 100 50 100 50 400 c 1,50,51
 50 400 50 400 25 400 c 1,52,53
 25 400 25 400 25 500 c 1,54,55
 25 500 25 500 100 500 c 1,56,57
 100 500 100 500 100 100 c 1,58,59
 100 100 100 100 125 100 c 1,60,61
 125 100 125 100 125 0 c 1,62,63
 125 0 125 0 25 0 c 1,44,45
EndSplineSet
Validated: 5
EndChar

StartChar: Rcaron
Encoding: 344 344 211
Width: 300
GlyphClass: 2
Flags: W
LayerCount: 2
Back
Fore
SplineSet
112 400 m 1,0,1
 112 400 112 400 238 400 c 1,2,3
 238 400 238 400 238 500 c 1,4,5
 238 500 238 500 112 500 c 1,6,7
 112 500 112 500 112 400 c 1,0,1
62 0 m 1,8,9
 62 0 62 0 62 600 c 1,10,11
 62 600 62 600 138 600 c 1,12,13
 138 600 138 600 138 700 c 1,14,15
 138 700 138 700 112 700 c 1,16,17
 112 700 112 700 112 800 c 1,18,19
 112 800 112 800 162 800 c 1,20,21
 162 800 162 800 162 700 c 1,22,23
 162 700 162 700 188 700 c 1,24,25
 188 700 188 700 188 800 c 1,26,27
 188 800 188 800 238 800 c 1,28,29
 238 800 238 800 238 700 c 1,30,31
 238 700 238 700 212 700 c 1,32,33
 212 700 212 700 212 600 c 1,34,35
 212 600 212 600 262 600 c 1,36,37
 262 600 262 600 262 500 c 1,38,39
 262 500 262 500 288 500 c 1,40,41
 288 500 288 500 288 400 c 1,42,43
 288 400 288 400 262 400 c 1,44,45
 262 400 262 400 262 300 c 1,46,47
 262 300 262 300 212 300 c 1,48,49
 212 300 212 300 212 200 c 1,50,51
 212 200 212 200 238 200 c 1,52,53
 238 200 238 200 238 100 c 1,54,55
 238 100 238 100 288 100 c 1,56,57
 288 100 288 100 288 0 c 1,58,59
 288 0 288 0 212 0 c 1,60,61
 212 0 212 0 212 100 c 1,62,63
 212 100 212 100 188 100 c 1,64,65
 188 100 188 100 188 200 c 1,66,67
 188 200 188 200 162 200 c 1,68,69
 162 200 162 200 162 300 c 1,70,71
 162 300 162 300 112 300 c 1,72,73
 112 300 112 300 112 0 c 1,74,75
 112 0 112 0 62 0 c 1,8,9
EndSplineSet
Validated: 1
EndChar

StartChar: rcaron
Encoding: 345 345 212
Width: 300
GlyphClass: 2
Flags: W
LayerCount: 2
Back
Fore
SplineSet
62 0 m 1,0,1
 62 0 62 0 62 500 c 1,2,3
 62 500 62 500 112 500 c 1,4,5
 112 500 112 500 112 400 c 1,6,7
 112 400 112 400 162 400 c 1,8,9
 162 400 162 400 162 500 c 1,10,11
 162 500 162 500 288 500 c 1,12,13
 288 500 288 500 288 400 c 1,14,15
 288 400 288 400 162 400 c 1,16,17
 162 400 162 400 162 300 c 1,18,19
 162 300 162 300 112 300 c 1,20,21
 112 300 112 300 112 0 c 1,22,23
 112 0 112 0 62 0 c 1,0,1
EndSplineSet
Validated: 5
EndChar

StartChar: Scaron
Encoding: 352 352 213
Width: 300
GlyphClass: 2
Flags: W
LayerCount: 2
Back
Fore
SplineSet
62 400 m 1,0,1
 62 400 62 400 62 500 c 1,2,3
 62 500 62 500 88 500 c 1,4,5
 88 500 88 500 88 600 c 1,6,7
 88 600 88 600 138 600 c 1,8,9
 138 600 138 600 138 700 c 1,10,11
 138 700 138 700 112 700 c 1,12,13
 112 700 112 700 112 800 c 1,14,15
 112 800 112 800 162 800 c 1,16,17
 162 800 162 800 162 700 c 1,18,19
 162 700 162 700 188 700 c 1,20,21
 188 700 188 700 188 800 c 1,22,23
 188 800 188 800 238 800 c 1,24,25
 238 800 238 800 238 700 c 1,26,27
 238 700 238 700 212 700 c 1,28,29
 212 700 212 700 212 600 c 1,30,31
 212 600 212 600 262 600 c 1,32,33
 262 600 262 600 262 500 c 1,34,35
 262 500 262 500 138 500 c 1,36,37
 138 500 138 500 138 400 c 1,38,39
 138 400 138 400 188 400 c 1,40,41
 188 400 188 400 188 300 c 1,42,43
 188 300 188 300 262 300 c 1,44,45
 262 300 262 300 262 200 c 1,46,47
 262 200 262 200 288 200 c 1,48,49
 288 200 288 200 288 100 c 1,50,51
 288 100 288 100 262 100 c 1,52,53
 262 100 262 100 262 0 c 1,54,55
 262 0 262 0 88 0 c 1,56,57
 88 0 88 0 88 100 c 1,58,59
 88 100 88 100 212 100 c 1,60,61
 212 100 212 100 212 200 c 1,62,63
 212 200 212 200 162 200 c 1,64,65
 162 200 162 200 162 300 c 1,66,67
 162 300 162 300 88 300 c 1,68,69
 88 300 88 300 88 400 c 1,70,71
 88 400 88 400 62 400 c 1,0,1
EndSplineSet
Validated: 1
EndChar

StartChar: scaron
Encoding: 353 353 214
Width: 300
GlyphClass: 2
Flags: W
LayerCount: 2
Back
Fore
SplineSet
112 700 m 1,0,1
 112 700 112 700 112 800 c 1,2,3
 112 800 112 800 162 800 c 1,4,5
 162 800 162 800 162 700 c 1,6,7
 162 700 162 700 188 700 c 1,8,9
 188 700 188 700 188 800 c 1,10,11
 188 800 188 800 238 800 c 1,12,13
 238 800 238 800 238 700 c 1,14,15
 238 700 238 700 212 700 c 1,16,17
 212 700 212 700 212 600 c 1,18,19
 212 600 212 600 138 600 c 1,20,21
 138 600 138 600 138 700 c 1,22,23
 138 700 138 700 112 700 c 1,0,1
262 400 m 1,24,25
 262 400 262 400 112 400 c 1,26,27
 112 400 112 400 112 300 c 1,28,29
 112 300 112 300 262 300 c 1,30,31
 262 300 262 300 262 200 c 1,32,33
 262 200 262 200 288 200 c 1,34,35
 288 200 288 200 288 100 c 1,36,37
 288 100 288 100 262 100 c 1,38,39
 262 100 262 100 262 0 c 1,40,41
 262 0 262 0 88 0 c 1,42,43
 88 0 88 0 88 100 c 1,44,45
 88 100 88 100 238 100 c 1,46,47
 238 100 238 100 238 200 c 1,48,49
 238 200 238 200 88 200 c 1,50,51
 88 200 88 200 88 300 c 1,52,53
 88 300 88 300 62 300 c 1,54,55
 62 300 62 300 62 400 c 1,56,57
 62 400 62 400 88 400 c 1,58,59
 88 400 88 400 88 500 c 1,60,61
 88 500 88 500 262 500 c 1,62,63
 262 500 262 500 262 400 c 1,24,25
EndSplineSet
Validated: 1
EndChar

StartChar: Tcaron
Encoding: 356 356 215
Width: 300
GlyphClass: 2
Flags: W
LayerCount: 2
Back
Fore
SplineSet
25 600 m 1,0,1
 25 600 25 600 100 600 c 1,2,3
 100 600 100 600 100 700 c 1,4,5
 100 700 100 700 75 700 c 1,6,7
 75 700 75 700 75 800 c 1,8,9
 75 800 75 800 125 800 c 1,10,11
 125 800 125 800 125 700 c 1,12,13
 125 700 125 700 175 700 c 1,14,15
 175 700 175 700 175 800 c 1,16,17
 175 800 175 800 225 800 c 1,18,19
 225 800 225 800 225 700 c 1,20,21
 225 700 225 700 200 700 c 1,22,23
 200 700 200 700 200 600 c 1,24,25
 200 600 200 600 275 600 c 1,26,27
 275 600 275 600 275 500 c 1,28,29
 275 500 275 500 175 500 c 1,30,31
 175 500 175 500 175 0 c 1,32,33
 175 0 175 0 125 0 c 1,34,35
 125 0 125 0 125 500 c 1,36,37
 125 500 125 500 25 500 c 1,38,39
 25 500 25 500 25 600 c 1,0,1
EndSplineSet
Validated: 1
EndChar

StartChar: tcaron
Encoding: 357 357 216
Width: 300
GlyphClass: 2
Flags: W
LayerCount: 2
Back
Fore
SplineSet
238 600 m 1,0,1
 238 600 238 600 238 800 c 1,2,3
 238 800 238 800 288 800 c 1,4,5
 288 800 288 800 288 600 c 1,6,7
 288 600 288 600 238 600 c 1,0,1
112 700 m 1,8,9
 112 700 112 700 162 700 c 1,10,11
 162 700 162 700 162 500 c 1,12,13
 162 500 162 500 238 500 c 1,14,15
 238 500 238 500 238 400 c 1,16,17
 238 400 238 400 162 400 c 1,18,19
 162 400 162 400 162 100 c 1,20,21
 162 100 162 100 288 100 c 1,22,23
 288 100 288 100 288 0 c 1,24,25
 288 0 288 0 138 0 c 1,26,27
 138 0 138 0 138 100 c 1,28,29
 138 100 138 100 112 100 c 1,30,31
 112 100 112 100 112 400 c 1,32,33
 112 400 112 400 62 400 c 1,34,35
 62 400 62 400 62 500 c 1,36,37
 62 500 62 500 112 500 c 1,38,39
 112 500 112 500 112 700 c 1,8,9
EndSplineSet
Validated: 1
EndChar

StartChar: Uring
Encoding: 366 366 217
Width: 300
GlyphClass: 2
Flags: W
LayerCount: 2
Back
Fore
SplineSet
138 600 m 1,0,1
 138 600 138 600 138 800 c 1,2,3
 138 800 138 800 212 800 c 1,4,5
 212 800 212 800 212 600 c 1,6,7
 212 600 212 600 138 600 c 1,0,1
62 600 m 1,8,9
 62 600 62 600 112 600 c 1,10,11
 112 600 112 600 112 100 c 1,12,13
 112 100 112 100 238 100 c 1,14,15
 238 100 238 100 238 600 c 1,16,17
 238 600 238 600 288 600 c 1,18,19
 288 600 288 600 288 100 c 1,20,21
 288 100 288 100 262 100 c 1,22,23
 262 100 262 100 262 0 c 1,24,25
 262 0 262 0 88 0 c 1,26,27
 88 0 88 0 88 100 c 1,28,29
 88 100 88 100 62 100 c 1,30,31
 62 100 62 100 62 600 c 1,8,9
EndSplineSet
Validated: 1
EndChar

StartChar: uring
Encoding: 367 367 218
Width: 300
GlyphClass: 2
Flags: W
LayerCount: 2
Back
Fore
SplineSet
162 600 m 1,0,1
 162 600 162 600 188 600 c 1,2,3
 188 600 188 600 188 700 c 1,4,5
 188 700 188 700 162 700 c 1,6,7
 162 700 162 700 162 600 c 1,0,1
138 500 m 1,8,9
 138 500 138 500 138 600 c 1,10,11
 138 600 138 600 112 600 c 1,12,13
 112 600 112 600 112 700 c 1,14,15
 112 700 112 700 138 700 c 1,16,17
 138 700 138 700 138 800 c 1,18,19
 138 800 138 800 212 800 c 1,20,21
 212 800 212 800 212 700 c 1,22,23
 212 700 212 700 238 700 c 1,24,25
 238 700 238 700 238 600 c 1,26,27
 238 600 238 600 212 600 c 1,28,29
 212 600 212 600 212 500 c 1,30,31
 212 500 212 500 138 500 c 1,8,9
62 500 m 1,32,33
 62 500 62 500 112 500 c 1,34,35
 112 500 112 500 112 100 c 1,36,37
 112 100 112 100 212 100 c 1,38,39
 212 100 212 100 212 200 c 1,40,41
 212 200 212 200 238 200 c 1,42,43
 238 200 238 200 238 500 c 1,44,45
 238 500 238 500 288 500 c 1,46,47
 288 500 288 500 288 0 c 1,48,49
 288 0 288 0 238 0 c 1,50,51
 238 0 238 0 238 100 c 1,52,53
 238 100 238 100 212 100 c 1,54,55
 212 100 212 100 212 0 c 1,56,57
 212 0 212 0 88 0 c 1,58,59
 88 0 88 0 88 100 c 1,60,61
 88 100 88 100 62 100 c 1,62,63
 62 100 62 100 62 500 c 1,32,33
EndSplineSet
Validated: 5
EndChar

StartChar: Uhungarumlaut
Encoding: 368 368 219
Width: 300
GlyphClass: 2
Flags: W
LayerCount: 2
Back
Fore
SplineSet
188 600 m 1,0,1
 188 600 188 600 188 700 c 1,2,3
 188 700 188 700 212 700 c 1,4,5
 212 700 212 700 212 800 c 1,6,7
 212 800 212 800 262 800 c 1,8,9
 262 800 262 800 262 700 c 1,10,11
 262 700 262 700 238 700 c 1,12,13
 238 700 238 700 238 600 c 1,14,15
 238 600 238 600 188 600 c 1,0,1
88 600 m 1,16,17
 88 600 88 600 88 700 c 1,18,19
 88 700 88 700 112 700 c 1,20,21
 112 700 112 700 112 800 c 1,22,23
 112 800 112 800 162 800 c 1,24,25
 162 800 162 800 162 700 c 1,26,27
 162 700 162 700 138 700 c 1,28,29
 138 700 138 700 138 600 c 1,30,31
 138 600 138 600 88 600 c 1,16,17
62 100 m 1,32,33
 62 100 62 100 62 500 c 1,34,35
 62 500 62 500 112 500 c 1,36,37
 112 500 112 500 112 100 c 1,38,39
 112 100 112 100 238 100 c 1,40,41
 238 100 238 100 238 500 c 1,42,43
 238 500 238 500 288 500 c 1,44,45
 288 500 288 500 288 100 c 1,46,47
 288 100 288 100 262 100 c 1,48,49
 262 100 262 100 262 0 c 1,50,51
 262 0 262 0 88 0 c 1,52,53
 88 0 88 0 88 100 c 1,54,55
 88 100 88 100 62 100 c 1,32,33
EndSplineSet
Validated: 1
EndChar

StartChar: uhungarumlaut
Encoding: 369 369 220
Width: 300
GlyphClass: 2
Flags: W
LayerCount: 2
Back
Fore
SplineSet
188 600 m 1,0,1
 188 600 188 600 188 700 c 1,2,3
 188 700 188 700 212 700 c 1,4,5
 212 700 212 700 212 800 c 1,6,7
 212 800 212 800 262 800 c 1,8,9
 262 800 262 800 262 700 c 1,10,11
 262 700 262 700 238 700 c 1,12,13
 238 700 238 700 238 600 c 1,14,15
 238 600 238 600 188 600 c 1,0,1
88 600 m 1,16,17
 88 600 88 600 88 700 c 1,18,19
 88 700 88 700 112 700 c 1,20,21
 112 700 112 700 112 800 c 1,22,23
 112 800 112 800 162 800 c 1,24,25
 162 800 162 800 162 700 c 1,26,27
 162 700 162 700 138 700 c 1,28,29
 138 700 138 700 138 600 c 1,30,31
 138 600 138 600 88 600 c 1,16,17
62 500 m 1,32,33
 62 500 62 500 112 500 c 1,34,35
 112 500 112 500 112 100 c 1,36,37
 112 100 112 100 212 100 c 1,38,39
 212 100 212 100 212 200 c 1,40,41
 212 200 212 200 238 200 c 1,42,43
 238 200 238 200 238 500 c 1,44,45
 238 500 238 500 288 500 c 1,46,47
 288 500 288 500 288 0 c 1,48,49
 288 0 288 0 238 0 c 1,50,51
 238 0 238 0 238 100 c 1,52,53
 238 100 238 100 212 100 c 1,54,55
 212 100 212 100 212 0 c 1,56,57
 212 0 212 0 88 0 c 1,58,59
 88 0 88 0 88 100 c 1,60,61
 88 100 88 100 62 100 c 1,62,63
 62 100 62 100 62 500 c 1,32,33
EndSplineSet
Validated: 5
EndChar

StartChar: Zacute
Encoding: 377 377 221
Width: 300
GlyphClass: 2
Flags: W
LayerCount: 2
Back
Fore
SplineSet
125 600 m 1,0,1
 125 600 125 600 125 700 c 1,2,3
 125 700 125 700 150 700 c 1,4,5
 150 700 150 700 150 800 c 1,6,7
 150 800 150 800 200 800 c 1,8,9
 200 800 200 800 200 700 c 1,10,11
 200 700 200 700 175 700 c 1,12,13
 175 700 175 700 175 600 c 1,14,15
 175 600 175 600 125 600 c 1,0,1
50 500 m 1,16,17
 50 500 50 500 250 500 c 1,18,19
 250 500 250 500 250 400 c 1,20,21
 250 400 250 400 200 400 c 1,22,23
 200 400 200 400 200 300 c 1,24,25
 200 300 200 300 175 300 c 1,26,27
 175 300 175 300 175 200 c 1,28,29
 175 200 175 200 150 200 c 1,30,31
 150 200 150 200 150 100 c 1,32,33
 150 100 150 100 250 100 c 1,34,35
 250 100 250 100 250 0 c 1,36,37
 250 0 250 0 50 0 c 1,38,39
 50 0 50 0 50 100 c 1,40,41
 50 100 50 100 100 100 c 1,42,43
 100 100 100 100 100 200 c 1,44,45
 100 200 100 200 125 200 c 1,46,47
 125 200 125 200 125 300 c 1,48,49
 125 300 125 300 150 300 c 1,50,51
 150 300 150 300 150 400 c 1,52,53
 150 400 150 400 50 400 c 1,54,55
 50 400 50 400 50 500 c 1,16,17
EndSplineSet
Validated: 1
EndChar

StartChar: zacute
Encoding: 378 378 222
Width: 300
GlyphClass: 2
Flags: W
LayerCount: 2
Back
Fore
SplineSet
125 600 m 1,0,1
 125 600 125 600 125 700 c 1,2,3
 125 700 125 700 150 700 c 1,4,5
 150 700 150 700 150 800 c 1,6,7
 150 800 150 800 200 800 c 1,8,9
 200 800 200 800 200 700 c 1,10,11
 200 700 200 700 175 700 c 1,12,13
 175 700 175 700 175 600 c 1,14,15
 175 600 175 600 125 600 c 1,0,1
50 500 m 1,16,17
 50 500 50 500 250 500 c 1,18,19
 250 500 250 500 250 400 c 1,20,21
 250 400 250 400 200 400 c 1,22,23
 200 400 200 400 200 300 c 1,24,25
 200 300 200 300 175 300 c 1,26,27
 175 300 175 300 175 200 c 1,28,29
 175 200 175 200 150 200 c 1,30,31
 150 200 150 200 150 100 c 1,32,33
 150 100 150 100 250 100 c 1,34,35
 250 100 250 100 250 0 c 1,36,37
 250 0 250 0 50 0 c 1,38,39
 50 0 50 0 50 100 c 1,40,41
 50 100 50 100 100 100 c 1,42,43
 100 100 100 100 100 200 c 1,44,45
 100 200 100 200 125 200 c 1,46,47
 125 200 125 200 125 300 c 1,48,49
 125 300 125 300 150 300 c 1,50,51
 150 300 150 300 150 400 c 1,52,53
 150 400 150 400 50 400 c 1,54,55
 50 400 50 400 50 500 c 1,16,17
EndSplineSet
Validated: 1
EndChar

StartChar: Zcaron
Encoding: 381 381 223
Width: 300
GlyphClass: 2
Flags: W
LayerCount: 2
Back
Fore
SplineSet
50 0 m 1,0,1
 50 0 50 0 50 100 c 1,2,3
 50 100 50 100 75 100 c 1,4,5
 75 100 75 100 75 200 c 1,6,7
 75 200 75 200 100 200 c 1,8,9
 100 200 100 200 100 300 c 1,10,11
 100 300 100 300 125 300 c 1,12,13
 125 300 125 300 125 400 c 1,14,15
 125 400 125 400 150 400 c 1,16,17
 150 400 150 400 150 500 c 1,18,19
 150 500 150 500 50 500 c 1,20,21
 50 500 50 500 50 600 c 1,22,23
 50 600 50 600 125 600 c 1,24,25
 125 600 125 600 125 700 c 1,26,27
 125 700 125 700 100 700 c 1,28,29
 100 700 100 700 100 800 c 1,30,31
 100 800 100 800 150 800 c 1,32,33
 150 800 150 800 150 700 c 1,34,35
 150 700 150 700 175 700 c 1,36,37
 175 700 175 700 175 800 c 1,38,39
 175 800 175 800 225 800 c 1,40,41
 225 800 225 800 225 700 c 1,42,43
 225 700 225 700 200 700 c 1,44,45
 200 700 200 700 200 600 c 1,46,47
 200 600 200 600 250 600 c 1,48,49
 250 600 250 600 250 500 c 1,50,51
 250 500 250 500 200 500 c 1,52,53
 200 500 200 500 200 400 c 1,54,55
 200 400 200 400 175 400 c 1,56,57
 175 400 175 400 175 300 c 1,58,59
 175 300 175 300 150 300 c 1,60,61
 150 300 150 300 150 200 c 1,62,63
 150 200 150 200 125 200 c 1,64,65
 125 200 125 200 125 100 c 1,66,67
 125 100 125 100 250 100 c 1,68,69
 250 100 250 100 250 0 c 1,70,71
 250 0 250 0 50 0 c 1,0,1
EndSplineSet
Validated: 1
EndChar

StartChar: zcaron
Encoding: 382 382 224
Width: 300
GlyphClass: 2
Flags: W
LayerCount: 2
Back
Fore
SplineSet
75 700 m 1,0,1
 75 700 75 700 75 800 c 1,2,3
 75 800 75 800 125 800 c 1,4,5
 125 800 125 800 125 700 c 1,6,7
 125 700 125 700 150 700 c 1,8,9
 150 700 150 700 150 800 c 1,10,11
 150 800 150 800 200 800 c 1,12,13
 200 800 200 800 200 700 c 1,14,15
 200 700 200 700 175 700 c 1,16,17
 175 700 175 700 175 600 c 1,18,19
 175 600 175 600 100 600 c 1,20,21
 100 600 100 600 100 700 c 1,22,23
 100 700 100 700 75 700 c 1,0,1
50 500 m 1,24,25
 50 500 50 500 250 500 c 1,26,27
 250 500 250 500 250 400 c 1,28,29
 250 400 250 400 200 400 c 1,30,31
 200 400 200 400 200 300 c 1,32,33
 200 300 200 300 175 300 c 1,34,35
 175 300 175 300 175 200 c 1,36,37
 175 200 175 200 150 200 c 1,38,39
 150 200 150 200 150 100 c 1,40,41
 150 100 150 100 250 100 c 1,42,43
 250 100 250 100 250 0 c 1,44,45
 250 0 250 0 50 0 c 1,46,47
 50 0 50 0 50 100 c 1,48,49
 50 100 50 100 100 100 c 1,50,51
 100 100 100 100 100 200 c 1,52,53
 100 200 100 200 125 200 c 1,54,55
 125 200 125 200 125 300 c 1,56,57
 125 300 125 300 150 300 c 1,58,59
 150 300 150 300 150 400 c 1,60,61
 150 400 150 400 50 400 c 1,62,63
 50 400 50 400 50 500 c 1,24,25
EndSplineSet
Validated: 1
EndChar

StartChar: uni01B5
Encoding: 437 437 225
Width: 300
GlyphClass: 2
Flags: W
LayerCount: 2
Back
Fore
SplineSet
50 600 m 1,0,1
 50 600 50 600 50 700 c 1,2,3
 50 700 50 700 250 700 c 1,4,5
 250 700 250 700 250 600 c 1,6,7
 250 600 250 600 225 600 c 1,8,9
 225 600 225 600 225 500 c 1,10,11
 225 500 225 500 200 500 c 1,12,13
 200 500 200 500 200 400 c 1,14,15
 200 400 200 400 225 400 c 1,16,17
 225 400 225 400 225 300 c 1,18,19
 225 300 225 300 150 300 c 1,20,21
 150 300 150 300 150 200 c 1,22,23
 150 200 150 200 125 200 c 1,24,25
 125 200 125 200 125 100 c 1,26,27
 125 100 125 100 250 100 c 1,28,29
 250 100 250 100 250 0 c 1,30,31
 250 0 250 0 50 0 c 1,32,33
 50 0 50 0 50 100 c 1,34,35
 50 100 50 100 75 100 c 1,36,37
 75 100 75 100 75 200 c 1,38,39
 75 200 75 200 100 200 c 1,40,41
 100 200 100 200 100 300 c 1,42,43
 100 300 100 300 75 300 c 1,44,45
 75 300 75 300 75 400 c 1,46,47
 75 400 75 400 150 400 c 1,48,49
 150 400 150 400 150 500 c 1,50,51
 150 500 150 500 175 500 c 1,52,53
 175 500 175 500 175 600 c 1,54,55
 175 600 175 600 50 600 c 1,0,1
EndSplineSet
Validated: 1
EndChar

